<svg version="1.1" id="Layer_1" xmlns="http://www.w3.org/2000/svg" xmlns:xlink="http://www.w3.org/1999/xlink" x="0px" y="0px"
	 width="100%" viewBox="0 0 225 225" enable-background="new 0 0 225 225" xml:space="preserve">
<path fill="#FEFEFE" opacity="1.000000" stroke="none" 
	d="
M157.000000,226.000000 
	C104.666672,226.000000 52.833340,226.000000 1.000007,226.000000 
	C1.000005,151.000000 1.000005,76.000015 1.000002,1.000017 
	C75.999992,1.000011 150.999985,1.000011 225.999969,1.000006 
	C225.999985,75.999985 225.999985,150.999969 226.000000,225.999969 
	C203.166672,226.000000 180.333328,226.000000 157.000000,226.000000 
M127.001152,100.997078 
	C127.001152,100.997078 127.021500,101.006966 127.537437,100.673553 
	C127.614929,100.283844 127.692413,99.894142 127.604225,98.851212 
	C127.858528,98.231003 128.112823,97.610802 128.732407,96.728081 
	C128.934433,96.468338 128.982880,96.182541 128.984497,95.892647 
	C128.984497,95.892647 128.877014,95.910446 129.655289,96.033546 
	C131.531708,96.327660 133.408112,96.621773 135.284531,96.915886 
	C134.726364,97.177963 134.168182,97.440033 133.610016,97.702110 
	C132.744308,95.800728 131.878601,93.899345 131.096741,91.262833 
	C132.016418,89.004997 133.881439,86.592270 133.545212,84.540199 
	C133.293549,83.004181 130.205429,81.932907 127.852364,80.285004 
	C127.071915,82.901115 126.589584,84.517899 125.993118,86.034477 
	C125.993118,86.034477 126.123611,86.111771 125.384995,86.040131 
	C122.902756,87.670219 120.420509,89.300308 117.365494,90.746414 
	C114.078896,92.782707 110.853996,94.930573 107.474701,96.799225 
	C106.161781,97.525238 104.500275,97.620872 102.751434,97.600075 
	C102.408333,97.613281 102.065231,97.626488 101.722130,97.639694 
	C102.149414,97.758507 102.576698,97.877327 102.931282,98.711601 
	C101.962440,101.153328 100.993607,103.595047 99.999908,105.999695 
	C99.999908,105.999695 100.036888,106.024734 99.401276,105.950752 
	C98.627052,106.178665 97.852821,106.406578 97.078598,106.634491 
	C97.656761,107.461823 98.234932,108.289162 99.263313,109.600197 
	C100.487373,109.554932 101.711433,109.509666 103.869469,109.329704 
	C109.587540,109.395851 115.305603,109.461990 120.935692,109.794388 
	C120.935692,109.794388 120.994240,110.068626 121.020340,110.518410 
	C121.344826,110.659378 121.669304,110.800346 122.679901,110.900383 
	C124.113976,110.253136 125.548058,109.605881 127.326187,108.810028 
	C127.214500,108.545090 127.102814,108.280144 126.748657,107.421280 
	C126.496117,106.613800 126.243576,105.806328 125.999138,104.999390 
	C125.999138,104.999390 125.998337,104.991501 126.484497,105.007858 
	C126.768837,104.895836 127.053177,104.783813 127.337517,104.671791 
	C127.004860,104.433952 126.672203,104.196106 126.259926,103.307533 
	C126.278290,102.871361 126.296661,102.435181 126.676010,101.778847 
	C126.885185,101.568169 126.995743,101.314499 127.001152,100.997078 
M181.230042,105.462051 
	C181.522629,105.617149 181.815201,105.772255 182.544479,106.322624 
	C182.707184,106.878258 182.869904,107.433884 182.514160,108.381569 
	C182.265167,108.811592 181.914124,109.212585 181.782303,109.675941 
	C179.277588,118.479591 176.725952,127.271973 174.455566,136.136215 
	C174.278061,136.829208 176.102692,138.035004 177.000000,139.000000 
	C177.000000,139.000000 176.997879,139.003555 177.080887,139.390381 
	C177.396118,139.342957 177.711334,139.295532 178.660889,139.147949 
	C179.086288,139.182159 179.511703,139.216385 180.155380,139.917953 
	C182.125549,139.698563 184.095718,139.479156 186.686157,139.159637 
	C187.101807,139.193832 187.517456,139.228012 188.061310,139.837906 
	C189.615448,139.892258 191.169601,139.946609 192.723740,140.000961 
	C192.422104,139.320389 192.120468,138.639816 192.187851,137.289917 
	C194.803131,129.015289 197.959076,120.863945 199.882019,112.431435 
	C201.814743,103.956055 199.753937,99.619728 193.053070,93.994049 
	C192.433395,93.351089 191.863861,92.211067 191.186234,92.142738 
	C185.007217,91.519661 178.809387,91.083183 171.844604,90.530945 
	C171.673981,90.304665 170.800018,89.145615 169.972351,87.312851 
	C170.080566,86.876450 170.188797,86.440041 170.689758,85.656624 
	C170.722412,85.320107 170.755081,84.983589 170.833771,84.087547 
	C170.957306,83.735237 171.080856,83.382935 171.881622,82.871574 
	C173.981262,79.183922 176.561325,75.598648 174.399002,70.359764 
	C174.720291,69.573509 175.041580,68.787254 175.928192,67.609802 
	C176.739029,65.331467 177.127228,62.756199 178.466904,60.849415 
	C180.169434,58.426163 180.377472,56.348541 177.723404,55.295479 
	C175.575607,54.443291 172.647537,54.229500 171.237671,58.035770 
	C169.546906,58.614880 167.895203,59.390736 166.157944,59.735641 
	C161.251678,60.709675 157.998169,63.056416 156.608536,68.261185 
	C152.993515,81.801186 149.001816,95.240631 145.073151,109.425133 
	C146.753082,110.237061 148.433014,111.048988 150.447754,112.022736 
	C150.641510,113.946121 150.898010,116.492409 151.086975,119.692673 
	C150.966019,120.113571 150.845062,120.534470 149.936249,120.981544 
	C146.730743,121.325539 143.525253,121.669540 139.151337,122.138931 
	C138.508682,126.468582 137.791473,131.300507 137.089127,136.578598 
	C137.089127,136.578598 136.921158,136.992203 136.318588,137.120560 
	C136.046188,137.454895 135.773788,137.789230 135.501389,138.123566 
	C136.349594,138.406235 137.197784,138.688904 138.966049,139.090363 
	C143.639526,139.138916 148.312988,139.187485 153.220825,139.522537 
	C153.481400,139.358658 153.741974,139.194763 154.006439,138.991074 
	C154.006439,138.991074 154.039871,139.013000 154.797241,139.027191 
	C158.817184,136.091019 159.155533,131.917999 158.675171,127.163666 
	C158.675171,127.163666 158.900208,126.953743 159.607071,126.862877 
	C159.806824,125.247551 160.006577,123.632217 160.179657,121.504311 
	C160.247330,121.347176 160.314987,121.190033 160.935699,120.640808 
	C162.967484,116.114822 164.999268,111.588837 167.759766,106.864548 
	C171.171356,105.902061 174.582932,104.939568 178.668793,103.995140 
	C179.098312,104.123581 179.527847,104.252022 180.179077,104.758461 
	C180.409180,104.977013 180.680466,105.058449 181.000000,104.999519 
	C181.000000,104.999519 180.999298,105.006195 181.230042,105.462051 
M197.909882,169.572922 
	C198.269562,169.894470 198.629242,170.216019 198.988922,170.537552 
	C199.195129,170.148788 199.401337,169.760025 199.607559,169.371262 
	C199.037231,169.253860 198.466888,169.136459 198.102478,168.371506 
	C198.012863,167.930374 197.923264,167.489258 198.163818,166.350479 
	C197.131027,165.908478 196.098221,165.466476 194.394531,165.067337 
	C192.466217,165.108398 191.118744,169.118744 188.864517,165.066971 
	C189.342545,158.811905 188.302231,157.632339 181.991928,156.859879 
	C178.073395,156.380203 174.177628,155.714325 170.271652,155.132019 
	C170.305511,154.568130 170.339371,154.004242 170.373245,153.440353 
	C176.124817,149.872055 182.612732,152.913605 188.775909,152.134857 
	C189.135483,150.803558 189.499542,149.455643 190.124481,147.141815 
	C183.160248,147.141815 176.717331,146.783142 170.340057,147.275314 
	C166.467636,147.574188 163.490646,152.327362 163.968231,156.171677 
	C164.481979,160.306992 167.849136,160.587509 170.985825,161.022308 
	C173.619247,161.387344 176.281174,161.561905 178.902924,161.989731 
	C180.315628,162.220261 181.670441,162.805527 183.051376,163.230728 
	C182.986099,163.806961 182.920837,164.383194 182.855576,164.959427 
	C176.213425,167.661331 169.332947,165.674011 162.227676,164.776443 
	C161.692719,166.392593 161.199600,167.882294 160.550491,169.843307 
	C169.335190,171.341934 177.609299,172.683914 185.915741,170.523163 
	C186.244080,172.593765 186.572403,174.664383 186.967117,177.153610 
	C190.126816,173.463943 192.463760,170.735046 194.992340,168.529922 
	C195.352982,168.411179 195.713623,168.292419 196.631729,168.126450 
	C197.085037,168.391190 197.538345,168.655930 197.909882,169.572922 
M118.065842,138.240158 
	C118.350380,135.817276 118.634918,133.394409 118.909370,130.306473 
	C119.020813,129.884521 119.132263,129.462585 119.976364,128.821289 
	C120.357948,126.751633 120.739540,124.681976 121.282524,121.736938 
	C111.444435,122.172668 102.740776,122.826889 94.034256,122.867477 
	C85.486862,122.907326 76.936562,122.323524 68.387527,122.013420 
	C68.209618,121.525658 68.031715,121.037903 67.853806,120.550148 
	C71.186737,116.571503 74.574135,112.636604 77.823875,108.591125 
	C79.005402,107.120300 79.858589,105.385727 81.024170,103.345604 
	C81.201080,103.067879 81.453621,102.915428 82.567841,102.954796 
	C85.734627,102.919846 87.357712,101.441116 87.296883,97.609840 
	C87.645058,97.429230 87.993240,97.248611 88.608360,96.972672 
	C88.781273,96.875076 88.898010,96.731758 89.275352,96.092651 
	C89.445709,96.024605 89.616074,95.956551 90.557587,95.952003 
	C93.824776,95.067986 97.185905,94.279945 97.102814,89.234047 
	C97.708504,88.805573 98.314194,88.377098 99.423790,87.751404 
	C99.592918,87.444374 99.762047,87.137337 100.048409,86.380768 
	C100.226425,86.094116 100.483810,85.940193 101.597351,85.965492 
	C102.084206,85.891541 102.754532,85.998207 103.031120,85.717255 
	C110.187180,78.448586 108.511353,63.046799 98.547241,58.797642 
	C95.539192,57.514866 92.628258,55.965137 89.541260,54.930122 
	C88.586601,54.610039 87.197151,55.586716 85.356316,56.077606 
	C84.917068,56.092865 84.477814,56.108124 83.716270,55.426880 
	C80.146484,54.954155 76.576691,54.481426 73.000000,54.000000 
	C73.000000,54.000000 72.991150,53.993206 72.581566,53.525486 
	C67.277695,55.348892 62.052399,57.464497 56.648964,58.917698 
	C50.636070,60.534801 47.896805,65.092163 50.013844,70.987572 
	C50.219002,71.558884 50.635471,72.380363 50.407722,72.732643 
	C46.351406,79.006813 52.814240,77.305779 54.741913,77.799606 
	C58.172504,78.678452 64.242050,74.529739 64.960907,71.764572 
	C64.960907,71.764572 64.801025,71.789703 65.711082,71.936844 
	C70.568008,71.936844 75.424934,71.936844 80.197952,71.936844 
	C81.139244,75.063301 81.923943,77.669647 82.425537,80.788315 
	C77.281326,84.859131 72.137115,88.929955 66.241043,92.952606 
	C64.822723,92.351768 63.404400,91.750931 62.900085,91.537292 
	C60.485455,94.791878 58.841240,98.188927 56.168694,100.257210 
	C53.795353,102.093941 51.733490,103.815987 50.353409,106.480194 
	C49.979431,107.202156 48.803432,107.508659 47.889824,107.729286 
	C47.805817,107.679230 47.721806,107.629181 47.637798,107.579124 
	C47.760487,107.717911 47.883171,107.856697 47.913616,108.658279 
	C47.554626,110.445015 47.195637,112.231750 46.879528,114.538841 
	C46.586708,114.693420 46.293884,114.848000 45.185143,114.977943 
	C41.022804,114.797783 42.134216,117.813789 41.986519,120.594711 
	C41.986519,120.594711 41.659908,120.952591 40.934692,120.994072 
	C40.304230,122.345306 39.673767,123.696533 38.997673,125.004189 
	C38.997673,125.004189 39.049732,125.037712 38.330318,125.019501 
	C32.892815,127.837807 31.342333,136.292267 35.060532,143.612396 
	C35.370296,144.654037 35.680061,145.695679 35.202488,146.900604 
	C34.454235,147.327408 33.209236,147.607422 33.033184,148.203278 
	C30.838379,155.631546 28.798721,163.105682 26.629646,170.889465 
	C28.892822,170.889465 30.821318,170.889465 32.963409,170.889465 
	C34.354160,166.259369 35.749004,161.615677 37.386059,156.165588 
	C39.694588,160.335907 41.578751,163.739594 43.856339,167.854004 
	C47.994007,164.263336 51.710735,161.037964 55.427464,157.812592 
	C55.755177,158.047821 56.082890,158.283051 56.410603,158.518280 
	C55.299759,162.866516 54.188915,167.214752 53.028156,171.758392 
	C57.708324,172.482224 60.419350,171.449341 60.963200,166.605026 
	C61.253155,164.022308 62.402046,161.536026 63.854607,159.013290 
	C65.178001,159.344055 66.501404,159.674835 67.924545,160.558868 
	C67.649002,161.507034 67.373459,162.455185 66.419250,163.812958 
	C66.900734,165.210342 67.382217,166.607712 68.168503,168.405594 
	C68.206314,168.569031 68.244125,168.732483 67.648567,169.161438 
	C67.316360,170.395721 66.984154,171.630005 66.651939,172.864288 
	C67.098480,172.937805 67.545021,173.011337 67.991554,173.084869 
	C68.431091,172.038162 68.870628,170.991440 70.127899,170.110764 
	C74.848396,170.551636 79.569115,171.350983 84.289330,171.347931 
	C91.084290,171.343552 94.764969,167.211716 96.261574,160.876312 
	C96.601303,159.438187 96.820915,157.972122 97.125931,156.525269 
	C98.397469,150.493607 97.701897,149.158768 91.901154,146.179169 
	C91.231819,146.225418 90.562492,146.271667 89.002853,146.451675 
	C83.032204,146.211563 77.077644,146.044830 71.803482,149.688934 
	C71.429070,149.669769 71.054657,149.650620 70.680244,149.631454 
	C70.839317,150.209366 70.998390,150.787262 71.083839,151.888748 
	C70.765472,152.277496 70.447105,152.666245 69.441849,152.758148 
	C68.084145,152.122208 66.726440,151.486252 65.396820,150.184311 
	C65.611298,149.193771 65.825768,148.203232 66.090668,146.979797 
	C63.427299,146.979797 61.213970,146.979797 58.931007,146.441437 
	C58.729942,146.283096 58.528877,146.124756 58.327812,145.966415 
	C58.290688,146.521454 58.253563,147.076508 57.716091,148.263367 
	C55.490368,149.602097 53.264645,150.940826 51.482597,151.326721 
	C50.855114,149.321457 50.227631,147.316177 49.600147,145.310913 
	C48.984921,145.552979 48.369694,145.795029 47.754467,146.037094 
	C48.757835,148.246429 49.761208,150.455765 50.993679,153.285828 
	C50.580334,153.988449 50.166985,154.691071 48.845097,154.980865 
	C47.255100,154.851974 45.665104,154.723099 43.605385,154.226593 
	C43.127625,153.152100 42.649864,152.077606 42.793983,150.895081 
	C43.284866,147.280151 40.080105,142.948990 37.050041,142.321625 
	C38.043423,141.307968 39.036804,140.294327 40.912132,139.144150 
	C43.295010,139.068069 45.677891,138.992004 48.509327,139.106583 
	C48.509327,139.106583 48.968029,139.273834 49.646557,139.754837 
	C51.465958,139.847092 53.285217,140.016312 55.104786,140.019760 
	C74.406151,140.056351 93.707573,140.066605 113.360252,140.560272 
	C115.998711,143.231247 117.447021,142.432571 118.065842,138.240158 
M155.499466,166.934631 
	C156.875763,163.073807 158.625946,159.298370 159.532028,155.330185 
	C160.621384,150.559464 158.386292,147.497253 153.555023,146.937119 
	C149.806519,146.502533 145.930038,146.428940 142.185455,146.854706 
	C133.886169,147.798279 126.985329,159.223938 129.852524,167.058975 
	C130.310303,168.309921 131.457382,169.580338 132.624969,170.253555 
	C138.165390,173.448181 150.100006,171.899902 155.499466,166.934631 
M110.046204,156.709595 
	C109.120514,161.375183 108.194817,166.040756 107.262299,170.740738 
	C111.484131,172.226471 113.873650,170.810944 114.838203,166.216095 
	C115.816391,161.556381 117.296883,157.002121 118.450447,152.791962 
	C122.565712,150.343536 129.617752,155.477402 130.852051,146.933167 
	C122.222855,146.933167 113.910950,146.894104 105.599693,146.950302 
	C101.673836,146.976837 100.366531,148.956665 101.725723,153.131989 
	C104.786530,153.131989 107.852554,153.131989 111.478325,153.131989 
	C110.819420,154.439957 110.467758,155.138031 110.046204,156.709595 
M105.020737,162.344772 
	C105.060440,162.504501 105.062973,162.690842 105.152000,162.815292 
	C105.219368,162.909470 105.487579,162.996460 105.512756,162.964722 
	C106.586922,161.611252 107.643837,160.244080 108.834747,158.708557 
	C107.354805,157.994583 106.303017,157.487167 105.008171,156.862473 
	C105.008171,158.726730 105.008171,160.203140 105.020737,162.344772 
M197.408371,175.481873 
	C197.408371,175.481873 197.523346,175.412064 197.408371,175.481873 
M194.517349,172.409973 
	C194.517349,172.409973 194.584412,172.522156 194.517349,172.409973 
M121.518356,86.413162 
	C121.518356,86.413162 121.584602,86.524063 121.518356,86.413162 
M105.483124,92.594330 
	C105.483124,92.594330 105.412025,92.477402 105.483124,92.594330 
M97.407623,146.482315 
	C97.407623,146.482315 97.523346,146.412430 97.407623,146.482315 
M103.594040,111.513611 
	C103.594040,111.513611 103.475754,111.586510 103.594040,111.513611 
M37.519508,122.409973 
	C37.519508,122.409973 37.588730,122.523918 37.519508,122.409973 
z"/>
<path fill="#D72425" opacity="1.000000" stroke="none" 
	d="
M48.060768,138.915924 
	C45.677891,138.992004 43.295010,139.068069 40.099846,139.112396 
	C38.523056,139.016754 37.758549,138.952866 36.996223,138.477203 
	C36.348526,132.174530 39.464985,127.230255 43.378693,124.211731 
	C47.944839,120.689995 47.809803,116.272751 48.920189,111.916016 
	C48.970188,111.986275 48.843044,111.869736 49.189732,111.908112 
	C50.237087,111.245316 50.937756,110.544136 51.690407,109.678223 
	C51.742386,109.513489 51.920910,109.217705 51.955498,109.007797 
	C51.990086,108.797882 52.030941,108.374359 52.221649,108.224915 
	C52.412354,108.075470 52.883877,107.963814 53.247089,107.942276 
	C54.411343,106.630638 55.212379,105.340530 56.182846,103.760681 
	C59.899151,99.980881 63.446022,96.490822 66.992897,93.000763 
	C72.137115,88.929955 77.281326,84.859131 82.833466,80.377274 
	C86.606247,74.806732 85.491791,70.569557 79.547127,69.877495 
	C74.770699,69.321449 69.726440,71.066002 64.801025,71.789703 
	C64.801025,71.789703 64.960907,71.764572 64.497314,71.822746 
	C62.031670,72.524483 60.020050,73.139915 58.029499,73.817245 
	C53.342255,75.412209 53.905556,69.976074 51.374062,68.590187 
	C51.151737,68.468468 52.124695,64.310699 53.367668,63.695908 
	C57.980183,61.414459 62.814831,59.312538 67.800049,58.127899 
	C73.073860,56.874680 78.614487,56.744240 84.038567,56.123379 
	C84.477814,56.108124 84.917068,56.092865 85.964508,56.247139 
	C89.008614,57.280003 91.453392,58.119175 93.878830,59.010956 
	C102.887482,62.323246 107.539108,72.247284 103.850220,80.403046 
	C102.988319,82.308632 101.838127,84.083824 100.820572,85.919006 
	C100.483810,85.940193 100.226425,86.094116 99.730347,86.690872 
	C99.248154,87.316856 99.084015,87.632736 98.919876,87.948624 
	C98.314194,88.377098 97.708504,88.805573 96.618607,89.574074 
	C95.100838,90.630966 93.978394,92.055519 93.049545,91.938843 
	C89.538910,91.497833 89.987701,93.865585 89.786438,95.888504 
	C89.616074,95.956551 89.445709,96.024605 88.958344,96.319519 
	C88.421669,96.651344 88.321693,96.825218 88.341415,97.067993 
	C87.993240,97.248611 87.645058,97.429230 86.862076,97.969200 
	C84.878777,99.848465 83.330284,101.368362 81.781792,102.888260 
	C81.453621,102.915428 81.201080,103.067879 80.626823,103.684952 
	C75.511230,109.451912 70.721741,114.821014 66.158684,120.376099 
	C65.540520,121.128662 66.058022,122.814087 66.306839,124.361580 
	C68.707886,124.795288 70.851768,124.934982 73.071716,125.445892 
	C74.703018,126.542831 76.247620,127.869522 77.815231,127.897278 
	C88.394730,128.084595 98.980949,128.086868 109.559311,127.870659 
	C110.727058,127.846786 111.858849,126.063744 113.444839,125.075371 
	C115.643097,125.038666 117.403847,125.023178 119.430023,125.179764 
	C119.544876,126.581429 119.394295,127.811028 119.243713,129.040634 
	C119.132263,129.462585 119.020813,129.884521 118.714249,130.642090 
	C118.519119,130.977722 118.124489,131.045456 117.757187,131.067917 
	C114.730392,132.147034 114.139183,133.753922 116.069489,136.389404 
	C115.904518,137.410568 115.745010,138.075409 115.404663,138.773132 
	C115.223816,138.806046 114.977478,139.078918 114.639488,139.044830 
	C113.853226,138.956848 113.404953,138.902939 112.648926,138.575256 
	C91.482147,138.214600 70.623138,138.120773 49.764030,138.077835 
	C49.196854,138.076660 48.628548,138.624237 48.060768,138.915924 
M47.482891,124.585114 
	C47.482891,124.585114 47.419281,124.477142 47.482891,124.585114 
z"/>
<path fill="#D62425" opacity="1.000000" stroke="none" 
	d="
M193.065155,94.723854 
	C199.753937,99.619728 201.814743,103.956055 199.882019,112.431435 
	C197.959076,120.863945 194.803131,129.015289 191.681564,137.758942 
	C190.094559,138.572723 189.013824,138.917450 187.933105,139.262192 
	C187.517456,139.228012 187.101807,139.193832 185.947815,139.101746 
	C183.452011,139.112762 181.694550,139.181671 179.937103,139.250595 
	C179.511703,139.216385 179.086288,139.182159 178.097244,139.092010 
	C177.355042,139.025238 177.176468,139.014404 176.997879,139.003555 
	C176.997879,139.003555 177.000000,139.000000 176.898895,138.657898 
	C176.765121,137.275162 176.474487,136.162979 176.740143,135.205078 
	C179.080383,126.766785 181.519562,118.355927 184.280609,109.949318 
	C185.201691,109.310051 186.394165,108.402649 186.247421,108.045479 
	C184.294495,103.292130 178.567993,101.136475 172.620392,102.918022 
	C170.482254,103.583687 168.721039,104.228386 166.686981,105.106400 
	C162.138382,109.700142 161.392700,115.417320 160.382660,121.032883 
	C160.314987,121.190033 160.247330,121.347176 159.994476,122.072952 
	C159.506256,124.078979 159.203232,125.516365 158.900208,126.953743 
	C158.900208,126.953743 158.675171,127.163666 158.414490,127.598564 
	C156.782501,131.693298 155.411179,135.353149 154.039856,139.013000 
	C154.039871,139.013000 154.006439,138.991074 153.739227,139.006256 
	C153.310181,139.092957 153.148331,139.164490 152.986465,139.236038 
	C148.312988,139.187485 143.639526,139.138916 138.435425,138.748306 
	C137.576904,137.934906 137.249023,137.463547 136.921158,136.992203 
	C136.921158,136.992203 137.089127,136.578598 137.335052,136.082428 
	C138.103683,133.704346 138.711304,131.841110 139.130249,129.936371 
	C139.851593,126.656685 140.969421,124.492203 145.177353,124.687233 
	C146.964798,124.770081 148.871582,122.277496 150.724121,120.955368 
	C150.845062,120.534470 150.966019,120.113571 151.396057,119.125923 
	C152.586548,115.677956 153.467941,112.796730 154.441650,109.613724 
	C150.618439,109.245651 147.889420,108.982925 145.160416,108.720192 
	C149.001816,95.240631 152.993515,81.801186 156.608536,68.261185 
	C157.998169,63.056416 161.251678,60.709675 166.157944,59.735641 
	C167.895203,59.390736 169.546906,58.614880 171.945068,58.091629 
	C177.865753,60.246494 175.175919,64.519417 175.362885,68.001007 
	C175.041580,68.787254 174.720291,69.573509 174.249359,71.045898 
	C173.134598,75.498222 172.169495,79.264420 171.204391,83.030624 
	C171.080856,83.382935 170.957306,83.735237 170.598267,84.529846 
	C170.340851,85.315979 170.318924,85.659813 170.296997,86.003639 
	C170.188797,86.440041 170.080566,86.876450 169.669067,87.864838 
	C168.733795,90.462456 168.101807,92.508080 167.374207,94.863182 
	C177.144745,92.049477 183.829742,92.466759 193.065155,94.723854 
z"/>
<path fill="#0B0B0B" opacity="1.000000" stroke="none" 
	d="
M49.753639,155.393692 
	C50.166985,154.691071 50.580334,153.988449 50.916786,152.915405 
	C50.839893,152.544998 51.038921,152.279556 51.038918,152.279556 
	C53.264645,150.940826 55.490368,149.602097 58.218666,147.852325 
	C58.814377,147.287460 58.907509,147.133621 59.000641,146.979797 
	C61.213970,146.979797 63.427299,146.979797 66.090668,146.979797 
	C65.825768,148.203232 65.611298,149.193771 65.232208,150.828705 
	C64.432816,153.984131 63.798035,156.495178 63.163261,159.006210 
	C62.402046,161.536026 61.253155,164.022308 60.963200,166.605026 
	C60.419350,171.449341 57.708324,172.482224 53.028156,171.758392 
	C54.188915,167.214752 55.299759,162.866516 56.410603,158.518280 
	C56.082890,158.283051 55.755177,158.047821 55.427464,157.812592 
	C51.710735,161.037964 47.994007,164.263336 43.856339,167.854004 
	C41.578751,163.739594 39.694588,160.335907 37.386059,156.165588 
	C35.749004,161.615677 34.354160,166.259369 32.963409,170.889465 
	C30.821318,170.889465 28.892822,170.889465 26.629646,170.889465 
	C28.798721,163.105682 30.838379,155.631546 33.033184,148.203278 
	C33.209236,147.607422 34.454235,147.327408 35.971848,146.911163 
	C38.551506,148.282181 40.361805,149.642639 42.172104,151.003113 
	C42.649864,152.077606 43.127625,153.152100 43.851421,154.802765 
	C44.738110,156.457672 45.378757,157.536423 46.674042,159.717484 
	C47.912548,157.978607 48.833092,156.686142 49.753639,155.393692 
z"/>
<path fill="#111111" opacity="1.000000" stroke="none" 
	d="
M155.271683,167.230408 
	C150.100006,171.899902 138.165390,173.448181 132.624969,170.253555 
	C131.457382,169.580338 130.310303,168.309921 129.852524,167.058975 
	C126.985329,159.223938 133.886169,147.798279 142.185455,146.854706 
	C145.930038,146.428940 149.806519,146.502533 153.555023,146.937119 
	C158.386292,147.497253 160.621384,150.559464 159.532028,155.330185 
	C158.625946,159.298370 156.875763,163.073807 155.271683,167.230408 
M152.998672,157.082199 
	C152.739029,155.571777 152.538559,152.763351 152.210739,152.748413 
	C148.213150,152.566177 143.230988,151.397446 140.460175,153.313339 
	C137.751175,155.186493 137.200653,160.285065 135.993286,164.060730 
	C135.876373,164.426392 137.732986,165.915909 138.803146,166.090912 
	C147.908035,167.579727 151.396027,165.324585 152.998672,157.082199 
z"/>
<path fill="#111111" opacity="1.000000" stroke="none" 
	d="
M72.063087,150.165604 
	C77.077644,146.044830 83.032204,146.211563 89.662163,146.573654 
	C90.883820,146.718002 91.446167,146.740372 92.008514,146.762756 
	C97.701897,149.158768 98.397469,150.493607 97.125931,156.525269 
	C96.820915,157.972122 96.601303,159.438187 96.261574,160.876312 
	C94.764969,167.211716 91.084290,171.343552 84.289330,171.347931 
	C79.569115,171.350983 74.848396,170.551636 69.671043,169.831818 
	C68.903442,169.333908 68.592690,169.114929 68.281937,168.895935 
	C68.244125,168.732483 68.206314,168.569031 68.030083,167.856125 
	C67.627083,166.005554 67.362503,164.704453 67.097916,163.403351 
	C67.373459,162.455185 67.649002,161.507034 68.029175,159.966125 
	C68.399422,158.247818 68.665039,157.122269 69.071838,155.877106 
	C69.213013,155.757492 69.202744,155.387573 69.464798,155.185547 
	C69.860825,154.340668 69.994781,153.697830 70.128738,153.054993 
	C70.447105,152.666245 70.765472,152.277496 71.368149,151.516785 
	C71.789345,150.818420 71.926216,150.492020 72.063087,150.165604 
M90.737358,152.873489 
	C89.009506,152.439682 87.298553,151.726349 85.550865,151.620728 
	C78.220268,151.177658 73.938187,155.135300 74.067604,162.474136 
	C74.089417,163.710922 75.628883,165.672150 76.834106,166.017319 
	C85.984810,168.638046 90.974075,164.239929 90.737358,152.873489 
z"/>
<path fill="#0D0D0D" opacity="1.000000" stroke="none" 
	d="
M185.936584,169.804443 
	C177.609299,172.683914 169.335190,171.341934 160.550491,169.843307 
	C161.199600,167.882294 161.692719,166.392593 162.227676,164.776443 
	C169.332947,165.674011 176.213425,167.661331 182.855576,164.959427 
	C182.920837,164.383194 182.986099,163.806961 183.051376,163.230728 
	C181.670441,162.805527 180.315628,162.220261 178.902924,161.989731 
	C176.281174,161.561905 173.619247,161.387344 170.985825,161.022308 
	C167.849136,160.587509 164.481979,160.306992 163.968231,156.171677 
	C163.490646,152.327362 166.467636,147.574188 170.340057,147.275314 
	C176.717331,146.783142 183.160248,147.141815 190.124481,147.141815 
	C189.499542,149.455643 189.135483,150.803558 188.775909,152.134857 
	C182.612732,152.913605 176.124817,149.872055 170.373245,153.440353 
	C170.339371,154.004242 170.305511,154.568130 170.271652,155.132019 
	C174.177628,155.714325 178.073395,156.380203 181.991928,156.859879 
	C188.302231,157.632339 189.342545,158.811905 188.541595,165.664185 
	C187.457962,167.442429 186.697266,168.623428 185.936584,169.804443 
z"/>
<path fill="#D62525" opacity="1.000000" stroke="none" 
	d="
M121.023674,109.528130 
	C115.305603,109.461990 109.587540,109.395851 103.060242,109.287903 
	C101.176414,108.810051 100.101814,108.373993 99.089752,107.666428 
	C99.447166,106.938179 99.742027,106.481453 100.036880,106.024734 
	C100.036888,106.024734 99.999908,105.999695 100.333832,105.910172 
	C106.440407,101.137764 112.213051,96.454880 118.332901,91.768990 
	C121.161278,89.881248 123.642441,87.996506 126.123611,86.111771 
	C126.123611,86.111771 125.993118,86.034477 126.408447,86.043243 
	C128.019791,85.942650 129.215790,85.833282 130.411789,85.723915 
	C130.330887,86.919655 130.313858,88.124153 130.151382,89.308701 
	C129.984406,90.526039 129.675430,91.723900 129.287338,93.285889 
	C129.056396,94.397812 128.966705,95.154129 128.877014,95.910446 
	C128.877014,95.910446 128.984497,95.892647 128.738113,96.005630 
	C128.279984,96.384941 128.238449,96.675606 128.367126,96.990601 
	C128.112823,97.610802 127.858528,98.231003 127.463211,99.366875 
	C127.221962,100.257347 127.121727,100.632156 127.021500,101.006966 
	C127.021500,101.006966 127.001152,100.997078 126.741791,101.049591 
	C126.426628,101.401070 126.370819,101.700035 126.315018,101.999008 
	C126.296661,102.435181 126.278290,102.871361 126.170815,103.876785 
	C126.053917,104.627861 126.026131,104.809685 125.998337,104.991501 
	C125.998337,104.991501 125.999138,104.999390 125.662918,105.136765 
	C123.892357,106.692131 122.458015,108.110130 121.023674,109.528130 
z"/>
<path fill="#0B0B0B" opacity="1.000000" stroke="none" 
	d="
M110.081154,156.272842 
	C110.467758,155.138031 110.819420,154.439957 111.478325,153.131989 
	C107.852554,153.131989 104.786530,153.131989 101.725723,153.131989 
	C100.366531,148.956665 101.673836,146.976837 105.599693,146.950302 
	C113.910950,146.894104 122.222855,146.933167 130.852051,146.933167 
	C129.617752,155.477402 122.565712,150.343536 118.450447,152.791962 
	C117.296883,157.002121 115.816391,161.556381 114.838203,166.216095 
	C113.873650,170.810944 111.484131,172.226471 107.262299,170.740738 
	C108.194817,166.040756 109.120514,161.375183 110.081154,156.272842 
z"/>
<path fill="#FBEBEA" opacity="1.000000" stroke="none" 
	d="
M83.877419,55.775127 
	C78.614487,56.744240 73.073860,56.874680 67.800049,58.127899 
	C62.814831,59.312538 57.980183,61.414459 53.367668,63.695908 
	C52.124695,64.310699 51.151737,68.468468 51.374062,68.590187 
	C53.905556,69.976074 53.342255,75.412209 58.029499,73.817245 
	C60.020050,73.139915 62.031670,72.524483 64.416153,71.819328 
	C64.242050,74.529739 58.172504,78.678452 54.741913,77.799606 
	C52.814240,77.305779 46.351406,79.006813 50.407722,72.732643 
	C50.635471,72.380363 50.219002,71.558884 50.013844,70.987572 
	C47.896805,65.092163 50.636070,60.534801 56.648964,58.917698 
	C62.052399,57.464497 67.277695,55.348892 72.646713,53.814571 
	C72.810204,54.072006 72.908554,54.040352 73.006905,54.008701 
	C76.576691,54.481426 80.146484,54.954155 83.877419,55.775127 
z"/>
<path fill="#FCDEDD" opacity="1.000000" stroke="none" 
	d="
M119.610046,128.930969 
	C119.394295,127.811028 119.544876,126.581429 119.203400,124.791489 
	C101.157463,124.176620 83.603569,124.122093 66.049675,124.067566 
	C66.058022,122.814087 65.540520,121.128662 66.158684,120.376099 
	C70.721741,114.821014 75.511230,109.451912 80.545532,103.897903 
	C79.858589,105.385727 79.005402,107.120300 77.823875,108.591125 
	C74.574135,112.636604 71.186737,116.571503 67.853806,120.550148 
	C68.031715,121.037903 68.209618,121.525658 68.387527,122.013420 
	C76.936562,122.323524 85.486862,122.907326 94.034256,122.867477 
	C102.740776,122.826889 111.444435,122.172668 121.282524,121.736938 
	C120.739540,124.681976 120.357948,126.751633 119.610046,128.930969 
z"/>
<path fill="#FBEBEA" opacity="1.000000" stroke="none" 
	d="
M101.208961,85.942245 
	C101.838127,84.083824 102.988319,82.308632 103.850220,80.403046 
	C107.539108,72.247284 102.887482,62.323246 93.878830,59.010956 
	C91.453392,58.119175 89.008614,57.280003 86.289742,56.193172 
	C87.197151,55.586716 88.586601,54.610039 89.541260,54.930122 
	C92.628258,55.965137 95.539192,57.514866 98.547241,58.797642 
	C108.511353,63.046799 110.187180,78.448586 103.031120,85.717255 
	C102.754532,85.998207 102.084206,85.891541 101.208961,85.942245 
z"/>
<path fill="#FAE7E5" opacity="1.000000" stroke="none" 
	d="
M51.920910,109.217705 
	C51.920910,109.217705 51.742386,109.513489 51.400772,109.777153 
	C50.320450,110.650452 49.581745,111.260094 48.843044,111.869736 
	C48.843044,111.869736 48.970188,111.986275 48.643623,112.045334 
	C47.823589,112.742424 47.330116,113.380455 46.836647,114.018486 
	C47.195637,112.231750 47.554626,110.445015 47.956810,108.329140 
	C48.000000,108.000000 47.995548,108.005844 47.995548,108.005844 
	C48.803432,107.508659 49.979431,107.202156 50.353409,106.480194 
	C51.733490,103.815987 53.795353,102.093941 56.168694,100.257210 
	C58.841240,98.188927 60.485455,94.791878 62.900085,91.537292 
	C63.404400,91.750931 64.822723,92.351768 66.616974,92.976685 
	C63.446022,96.490822 59.899151,99.980881 55.877274,103.879112 
	C54.562805,105.512794 53.723343,106.738304 52.883881,107.963814 
	C52.883877,107.963814 52.412354,108.075470 52.063194,108.239273 
	C51.541302,108.724693 51.610260,108.996239 51.920910,109.217705 
z"/>
<path fill="#FBDDD8" opacity="1.000000" stroke="none" 
	d="
M193.059113,94.358948 
	C183.829742,92.466759 177.144745,92.049477 167.374207,94.863182 
	C168.101807,92.508080 168.733795,90.462456 169.645935,88.201706 
	C170.800018,89.145615 171.673981,90.304665 171.844604,90.530945 
	C178.809387,91.083183 185.007217,91.519661 191.186234,92.142738 
	C191.863861,92.211067 192.433395,93.351089 193.059113,94.358948 
z"/>
<path fill="#CB2929" opacity="1.000000" stroke="none" 
	d="
M46.858086,114.278664 
	C47.330116,113.380455 47.823589,112.742424 48.593620,111.975075 
	C47.809803,116.272751 47.944839,120.689995 43.378693,124.211731 
	C39.464985,127.230255 36.348526,132.174530 36.620285,138.428543 
	C36.015881,137.219315 35.287876,135.512466 35.665955,134.102142 
	C36.497269,131.001160 37.887592,128.050018 39.049732,125.037712 
	C39.049732,125.037712 38.997673,125.004189 39.284561,124.862473 
	C40.267601,123.464691 40.963753,122.208641 41.659904,120.952591 
	C41.659908,120.952591 41.986519,120.594711 42.308266,120.187698 
	C43.753693,118.187988 44.877377,116.595284 46.001060,115.002579 
	C46.293884,114.848000 46.586708,114.693420 46.858086,114.278664 
z"/>
<path fill="#FBEBEA" opacity="1.000000" stroke="none" 
	d="
M65.256058,71.863281 
	C69.726440,71.066002 74.770699,69.321449 79.547127,69.877495 
	C85.491791,70.569557 86.606247,74.806732 82.975021,80.121109 
	C81.923943,77.669647 81.139244,75.063301 80.197952,71.936844 
	C75.424934,71.936844 70.568008,71.936844 65.256058,71.863281 
z"/>
<path fill="#FAE7E5" opacity="1.000000" stroke="none" 
	d="
M112.956680,138.849030 
	C113.404953,138.902939 113.853226,138.956848 114.474564,139.284119 
	C114.101410,139.733017 113.555191,139.908554 113.008980,140.084106 
	C93.707573,140.066605 74.406151,140.056351 55.104786,140.019760 
	C53.285217,140.016312 51.465958,139.847092 49.769661,139.418533 
	C70.914070,139.004501 91.935371,138.926773 112.956680,138.849030 
z"/>
<path fill="#A71821" opacity="1.000000" stroke="none" 
	d="
M112.648926,138.575256 
	C91.935371,138.926773 70.914070,139.004501 49.430397,139.178040 
	C48.968029,139.273834 48.509327,139.106583 48.285049,139.011261 
	C48.628548,138.624237 49.196854,138.076660 49.764030,138.077835 
	C70.623138,138.120773 91.482147,138.214600 112.648926,138.575256 
z"/>
<path fill="#F7CDD0" opacity="1.000000" stroke="none" 
	d="
M183.929459,109.936951 
	C181.519562,118.355927 179.080383,126.766785 176.740143,135.205078 
	C176.474487,136.162979 176.765121,137.275162 176.897308,138.659149 
	C176.102692,138.035004 174.278061,136.829208 174.455566,136.136215 
	C176.725952,127.271973 179.277588,118.479591 181.782303,109.675941 
	C181.914124,109.212585 182.265167,108.811592 182.973877,108.374321 
	C183.598892,108.890366 183.764175,109.413658 183.929459,109.936951 
z"/>
<path fill="#FAEBEA" opacity="1.000000" stroke="none" 
	d="
M117.985703,91.771988 
	C112.213051,96.454880 106.440407,101.137764 100.346268,105.928711 
	C100.993607,103.595047 101.962440,101.153328 102.965637,98.355789 
	C103.000000,97.999985 102.997566,98.003662 102.997566,98.003662 
	C104.500275,97.620872 106.161781,97.525238 107.474701,96.799225 
	C110.853996,94.930573 114.078896,92.782707 117.666191,91.048996 
	C117.966888,91.351578 117.985703,91.771996 117.985703,91.771988 
z"/>
<path fill="#FAE7E5" opacity="1.000000" stroke="none" 
	d="
M38.690025,125.028610 
	C37.887592,128.050018 36.497269,131.001160 35.665955,134.102142 
	C35.287876,135.512466 36.015881,137.219315 36.618103,138.840332 
	C37.758549,138.952866 38.523056,139.016754 39.658875,139.180649 
	C39.036804,140.294327 38.043423,141.307968 36.677013,142.647034 
	C35.883198,142.965652 35.462406,142.958878 35.041618,142.952118 
	C31.342333,136.292267 32.892815,127.837807 38.690025,125.028610 
z"/>
<path fill="#FADFDE" opacity="1.000000" stroke="none" 
	d="
M150.330185,120.968460 
	C148.871582,122.277496 146.964798,124.770081 145.177353,124.687233 
	C140.969421,124.492203 139.851593,126.656685 139.130249,129.936371 
	C138.711304,131.841110 138.103683,133.704346 137.327606,135.859344 
	C137.791473,131.300507 138.508682,126.468582 139.151337,122.138931 
	C143.525253,121.669540 146.730743,121.325539 150.330185,120.968460 
z"/>
<path fill="#F8F8F8" opacity="1.000000" stroke="none" 
	d="
M185.926163,170.163803 
	C186.697266,168.623428 187.457962,167.442429 188.465942,166.080078 
	C191.118744,169.118744 192.466217,165.108398 194.714111,165.310944 
	C195.078537,165.725815 195.123367,165.897049 195.089691,166.388245 
	C194.941025,167.140854 194.870865,167.573502 194.800690,168.006165 
	C192.463760,170.735046 190.126816,173.463943 186.967117,177.153610 
	C186.572403,174.664383 186.244080,172.593765 185.926163,170.163803 
M188.482117,169.587372 
	C188.482117,169.587372 188.415955,169.476929 188.482117,169.587372 
z"/>
<path fill="#F9DCDB" opacity="1.000000" stroke="none" 
	d="
M175.645538,67.805405 
	C175.175919,64.519417 177.865753,60.246494 172.312531,57.996849 
	C172.647537,54.229500 175.575607,54.443291 177.723404,55.295479 
	C180.377472,56.348541 180.169434,58.426163 178.466904,60.849415 
	C177.127228,62.756199 176.739029,65.331467 175.645538,67.805405 
z"/>
<path fill="#F8E3E2" opacity="1.000000" stroke="none" 
	d="
M129.428589,92.930283 
	C129.675430,91.723900 129.984406,90.526039 130.151382,89.308701 
	C130.313858,88.124153 130.330887,86.919655 130.411789,85.723915 
	C129.215790,85.833282 128.019791,85.942650 126.465523,86.093346 
	C126.589584,84.517899 127.071915,82.901115 127.852364,80.285004 
	C130.205429,81.932907 133.293549,83.004181 133.545212,84.540199 
	C133.881439,86.592270 132.016418,89.004997 130.838226,91.711426 
	C130.195999,92.416763 129.812302,92.673523 129.428589,92.930283 
z"/>
<path fill="#FADFDE" opacity="1.000000" stroke="none" 
	d="
M145.116791,109.072662 
	C147.889420,108.982925 150.618439,109.245651 154.441650,109.613724 
	C153.467941,112.796730 152.586548,115.677956 151.429840,118.798935 
	C150.898010,116.492409 150.641510,113.946121 150.447754,112.022736 
	C148.433014,111.048988 146.753082,110.237061 145.116791,109.072662 
z"/>
<path fill="#F7F7F7" opacity="1.000000" stroke="none" 
	d="
M69.785294,152.906570 
	C69.994781,153.697830 69.860825,154.340668 69.319374,154.927979 
	C68.431511,154.838730 67.951141,154.804993 67.470764,154.771271 
	C67.957397,155.179749 68.444031,155.588226 68.930664,155.996704 
	C68.665039,157.122269 68.399422,158.247818 67.979294,159.689484 
	C66.501404,159.674835 65.178001,159.344055 63.508934,159.009750 
	C63.798035,156.495178 64.432816,153.984131 65.218170,151.161697 
	C66.726440,151.486252 68.084145,152.122208 69.785294,152.906570 
z"/>
<path fill="#F8CCCB" opacity="1.000000" stroke="none" 
	d="
M160.659180,120.836845 
	C161.392700,115.417320 162.138382,109.700142 166.701294,105.471069 
	C167.002640,106.089226 167.016846,106.576042 167.031052,107.062851 
	C164.999268,111.588837 162.967484,116.114822 160.659180,120.836845 
z"/>
<path fill="#F7F7F7" opacity="1.000000" stroke="none" 
	d="
M35.051075,143.282257 
	C35.462406,142.958878 35.883198,142.965652 36.618675,142.973511 
	C40.080105,142.948990 43.284866,147.280151 42.483044,150.949097 
	C40.361805,149.642639 38.551506,148.282181 36.365517,146.829514 
	C35.680061,145.695679 35.370296,144.654037 35.051075,143.282257 
z"/>
<path fill="#C13532" opacity="1.000000" stroke="none" 
	d="
M184.280609,109.949318 
	C183.764175,109.413658 183.598892,108.890366 183.233124,108.178299 
	C182.869904,107.433884 182.707184,106.878258 182.268372,105.854446 
	C181.661285,105.259583 181.330292,105.132889 180.999298,105.006195 
	C180.999298,105.006195 181.000000,104.999519 180.901733,104.787148 
	C180.573151,104.284790 180.291122,104.220016 179.957367,104.380463 
	C179.527847,104.252022 179.098312,104.123581 178.039459,103.766525 
	C175.939194,103.324295 174.468262,103.110680 172.997330,102.897057 
	C178.567993,101.136475 184.294495,103.292130 186.247421,108.045479 
	C186.394165,108.402649 185.201691,109.310051 184.280609,109.949318 
z"/>
<path fill="#FBEBEA" opacity="1.000000" stroke="none" 
	d="
M90.172012,95.920258 
	C89.987701,93.865585 89.538910,91.497833 93.049545,91.938843 
	C93.978394,92.055519 95.100838,90.630966 96.511688,89.834396 
	C97.185905,94.279945 93.824776,95.067986 90.172012,95.920258 
z"/>
<path fill="#F7CDD0" opacity="1.000000" stroke="none" 
	d="
M172.620392,102.918022 
	C174.468262,103.110680 175.939194,103.324295 177.702332,103.757492 
	C174.582932,104.939568 171.171356,105.902061 167.395416,106.963699 
	C167.016846,106.576042 167.002640,106.089226 166.974136,105.237747 
	C168.721039,104.228386 170.482254,103.583687 172.620392,102.918022 
z"/>
<path fill="#F9DCDB" opacity="1.000000" stroke="none" 
	d="
M171.542999,82.951096 
	C172.169495,79.264420 173.134598,75.498222 174.255005,71.368607 
	C176.561325,75.598648 173.981262,79.183922 171.542999,82.951096 
z"/>
<path fill="#FCDAD9" opacity="1.000000" stroke="none" 
	d="
M154.418549,139.020096 
	C155.411179,135.353149 156.782501,131.693298 158.416626,127.752426 
	C159.155533,131.917999 158.817184,136.091019 154.418549,139.020096 
z"/>
<path fill="#FAEBEA" opacity="1.000000" stroke="none" 
	d="
M129.287338,93.285889 
	C129.812302,92.673523 130.195999,92.416763 130.796295,92.078987 
	C131.878601,93.899345 132.744308,95.800728 133.610016,97.702110 
	C134.168182,97.440033 134.726364,97.177963 135.284531,96.915886 
	C133.408112,96.621773 131.531708,96.327660 129.266144,95.972000 
	C128.966705,95.154129 129.056396,94.397812 129.287338,93.285889 
z"/>
<path fill="#F8E3E2" opacity="1.000000" stroke="none" 
	d="
M118.332909,91.768997 
	C117.985703,91.771996 117.966888,91.351578 117.952576,91.140991 
	C120.420509,89.300308 122.902756,87.670219 125.754303,86.075951 
	C123.642441,87.996506 121.161278,89.881248 118.332909,91.768997 
z"/>
<path fill="#FCDEDD" opacity="1.000000" stroke="none" 
	d="
M115.585495,138.740234 
	C115.745010,138.075409 115.904518,137.410568 116.392975,136.243866 
	C117.189438,134.176468 117.656967,132.610962 118.124489,131.045456 
	C118.124489,131.045456 118.519119,130.977722 118.719284,130.974625 
	C118.634918,133.394409 118.350380,135.817276 117.622208,138.600800 
	C116.647552,138.887711 116.116524,138.813980 115.585495,138.740234 
z"/>
<path fill="#F8E3E2" opacity="1.000000" stroke="none" 
	d="
M120.979683,109.661255 
	C122.458015,108.110130 123.892357,106.692131 125.658875,105.136490 
	C126.243576,105.806328 126.496117,106.613800 126.869141,107.954033 
	C126.989624,108.486786 126.982140,108.958633 126.982140,108.958633 
	C125.548058,109.605881 124.113976,110.253136 122.228043,110.717453 
	C121.572845,110.283104 121.312195,110.127800 120.994240,110.068626 
	C120.994240,110.068626 120.935692,109.794388 120.979683,109.661255 
z"/>
<path fill="#F1F1F1" opacity="1.000000" stroke="none" 
	d="
M105.014450,162.012161 
	C105.008171,160.203140 105.008171,158.726730 105.008171,156.862473 
	C106.303017,157.487167 107.354805,157.994583 108.834747,158.708557 
	C107.643837,160.244080 106.586922,161.611252 105.512756,162.964722 
	C105.487579,162.996460 105.219368,162.909470 105.152000,162.815292 
	C105.062973,162.690842 105.060440,162.504501 105.014450,162.012161 
z"/>
<path fill="#F7F7F7" opacity="1.000000" stroke="none" 
	d="
M51.260757,151.803131 
	C51.038921,152.279556 50.839893,152.544998 50.802238,152.605042 
	C49.761208,150.455765 48.757835,148.246429 47.754467,146.037094 
	C48.369694,145.795029 48.984921,145.552979 49.600147,145.310913 
	C50.227631,147.316177 50.855114,149.321457 51.260757,151.803131 
z"/>
<path fill="#F7F7F7" opacity="1.000000" stroke="none" 
	d="
M49.299366,155.187286 
	C48.833092,156.686142 47.912548,157.978607 46.674042,159.717484 
	C45.378757,157.536423 44.738110,156.457672 44.086281,154.986572 
	C45.665104,154.723099 47.255100,154.851974 49.299366,155.187286 
z"/>
<path fill="#FBEBEA" opacity="1.000000" stroke="none" 
	d="
M82.174820,102.921524 
	C83.330284,101.368362 84.878777,99.848465 86.740097,98.243927 
	C87.357712,101.441116 85.734627,102.919846 82.174820,102.921524 
z"/>
<path fill="#F7CDD0" opacity="1.000000" stroke="none" 
	d="
M180.046234,139.584274 
	C181.694550,139.181671 183.452011,139.112762 185.637665,139.151810 
	C184.095718,139.479156 182.125549,139.698563 180.046234,139.584274 
z"/>
<path fill="#FAE7E5" opacity="1.000000" stroke="none" 
	d="
M45.593102,114.990265 
	C44.877377,116.595284 43.753693,118.187988 42.350151,119.949097 
	C42.134216,117.813789 41.022804,114.797783 45.593102,114.990265 
z"/>
<path fill="#F7F7F7" opacity="1.000000" stroke="none" 
	d="
M115.404655,138.773132 
	C116.116524,138.813980 116.647552,138.887711 117.580856,138.968002 
	C117.447021,142.432571 115.998711,143.231247 113.184616,140.322189 
	C113.555191,139.908554 114.101410,139.733017 114.812546,139.318207 
	C114.977478,139.078918 115.223816,138.806046 115.404655,138.773132 
z"/>
<path fill="#F7CDD0" opacity="1.000000" stroke="none" 
	d="
M187.997208,139.550049 
	C189.013824,138.917450 190.094559,138.572723 191.497055,138.093613 
	C192.120468,138.639816 192.422104,139.320389 192.723740,140.000961 
	C191.169601,139.946609 189.615448,139.892258 187.997208,139.550049 
z"/>
<path fill="#F7F7F7" opacity="1.000000" stroke="none" 
	d="
M67.965256,169.028687 
	C68.592690,169.114929 68.903442,169.333908 69.262177,169.748810 
	C68.870628,170.991440 68.431091,172.038162 67.991554,173.084869 
	C67.545021,173.011337 67.098480,172.937805 66.651939,172.864288 
	C66.984154,171.630005 67.316360,170.395721 67.965256,169.028687 
z"/>
<path fill="#FCDAD9" opacity="1.000000" stroke="none" 
	d="
M159.253632,126.908310 
	C159.203232,125.516365 159.506256,124.078979 160.007812,122.329247 
	C160.006577,123.632217 159.806824,125.247551 159.253632,126.908310 
z"/>
<path fill="#FAEBEA" opacity="1.000000" stroke="none" 
	d="
M99.719078,105.987747 
	C99.742027,106.481453 99.447166,106.938179 99.047226,107.963058 
	C98.899132,108.726295 98.856117,108.921394 98.813095,109.116493 
	C98.234932,108.289162 97.656761,107.461823 97.078598,106.634491 
	C97.852821,106.406578 98.627052,106.178665 99.719078,105.987747 
z"/>
<path fill="#FAE7E5" opacity="1.000000" stroke="none" 
	d="
M41.297298,120.973328 
	C40.963753,122.208641 40.267601,123.464691 39.307381,124.884262 
	C39.673767,123.696533 40.304230,122.345306 41.297298,120.973328 
z"/>
<path fill="#F7F7F7" opacity="1.000000" stroke="none" 
	d="
M66.758583,163.608154 
	C67.362503,164.704453 67.627083,166.005554 67.877686,167.655884 
	C67.382217,166.607712 66.900734,165.210342 66.758583,163.608154 
z"/>
<path fill="#FCDAD9" opacity="1.000000" stroke="none" 
	d="
M136.619873,137.056381 
	C137.249023,137.463547 137.576904,137.934906 137.975388,138.688904 
	C137.197784,138.688904 136.349594,138.406235 135.501389,138.123566 
	C135.773788,137.789230 136.046188,137.454895 136.619873,137.056381 
z"/>
<path fill="#4F4F4F" opacity="1.000000" stroke="none" 
	d="
M195.168198,166.068298 
	C195.123367,165.897049 195.078537,165.725815 195.049561,165.289520 
	C196.098221,165.466476 197.131027,165.908478 197.688095,166.779083 
	C196.787933,167.227661 196.363495,167.247635 195.845215,167.042206 
	C195.669189,166.479843 195.474808,166.230331 195.168198,166.068298 
z"/>
<path fill="#F8E3E2" opacity="1.000000" stroke="none" 
	d="
M99.038208,109.358345 
	C98.856117,108.921394 98.899132,108.726295 98.984680,108.234573 
	C100.101814,108.373993 101.176414,108.810051 102.593262,109.355255 
	C101.711433,109.509666 100.487373,109.554932 99.038208,109.358345 
z"/>
<path fill="#F7F7F7" opacity="1.000000" stroke="none" 
	d="
M91.954834,146.470963 
	C91.446167,146.740372 90.883820,146.718002 90.107315,146.506775 
	C90.562492,146.271667 91.231819,146.225418 91.954834,146.470963 
z"/>
<path fill="#262626" opacity="1.000000" stroke="none" 
	d="
M195.939056,167.267609 
	C196.363495,167.247635 196.787933,167.227661 197.523010,167.127914 
	C197.923264,167.489258 198.012863,167.930374 198.045746,168.692383 
	C197.988998,169.013245 197.991653,168.920654 197.991653,168.920654 
	C197.538345,168.655930 197.085037,168.391190 196.313614,167.924377 
	C195.995499,167.722305 195.939056,167.267609 195.939056,167.267609 
z"/>
<path fill="#181818" opacity="1.000000" stroke="none" 
	d="
M195.845215,167.042206 
	C195.939056,167.267609 195.995499,167.722305 196.034882,167.947983 
	C195.713623,168.292419 195.352982,168.411179 194.896515,168.268036 
	C194.870865,167.573502 194.941025,167.140854 195.089691,166.388245 
	C195.474808,166.230331 195.669189,166.479843 195.845215,167.042206 
z"/>
<path fill="#A4A4A4" opacity="1.000000" stroke="none" 
	d="
M197.942780,169.016144 
	C198.466888,169.136459 199.037231,169.253860 199.607559,169.371277 
	C199.401337,169.760025 199.195129,170.148788 198.988922,170.537552 
	C198.629242,170.216019 198.269562,169.894470 197.950775,169.246796 
	C197.991653,168.920654 197.988998,169.013245 197.942780,169.016144 
z"/>
<path fill="#F7F7F7" opacity="1.000000" stroke="none" 
	d="
M71.933289,149.927277 
	C71.926216,150.492020 71.789345,150.818420 71.404968,151.255005 
	C70.998390,150.787262 70.839317,150.209366 70.680244,149.631454 
	C71.054657,149.650620 71.429070,149.669769 71.933289,149.927277 
z"/>
<path fill="#FAEBEA" opacity="1.000000" stroke="none" 
	d="
M103.001991,97.998062 
	C102.576698,97.877327 102.149414,97.758507 101.722130,97.639694 
	C102.065231,97.626488 102.408333,97.613281 102.874496,97.801865 
	C102.997566,98.003662 103.000000,97.999985 103.001991,97.998062 
z"/>
<path fill="#F8E3E2" opacity="1.000000" stroke="none" 
	d="
M126.241417,104.999680 
	C126.026131,104.809685 126.053917,104.627861 126.210625,104.202148 
	C126.672203,104.196106 127.004860,104.433952 127.337517,104.671799 
	C127.053177,104.783813 126.768837,104.895836 126.241417,104.999680 
z"/>
<path fill="#F7F7F7" opacity="1.000000" stroke="none" 
	d="
M58.965824,146.710617 
	C58.907509,147.133621 58.814377,147.287460 58.468842,147.536407 
	C58.253563,147.076508 58.290688,146.521454 58.327812,145.966415 
	C58.528877,146.124756 58.729942,146.283096 58.965824,146.710617 
z"/>
<path fill="#FAEBEA" opacity="1.000000" stroke="none" 
	d="
M121.007294,110.293518 
	C121.312195,110.127800 121.572845,110.283104 121.884995,110.737923 
	C121.669304,110.800346 121.344826,110.659378 121.007294,110.293518 
z"/>
<path fill="#F8F8F8" opacity="1.000000" stroke="none" 
	d="
M197.465851,175.446960 
	C197.523346,175.412064 197.408371,175.481873 197.465851,175.446960 
z"/>
<path fill="#F8F8F8" opacity="1.000000" stroke="none" 
	d="
M194.550873,172.466064 
	C194.584412,172.522156 194.517349,172.409973 194.550873,172.466064 
z"/>
<path fill="#F7CDD0" opacity="1.000000" stroke="none" 
	d="
M180.068222,104.569458 
	C180.291122,104.220016 180.573151,104.284790 180.898178,104.788773 
	C180.680466,105.058449 180.409180,104.977013 180.068222,104.569458 
z"/>
<path fill="#FBDDD8" opacity="1.000000" stroke="none" 
	d="
M170.493378,85.830132 
	C170.318924,85.659813 170.340851,85.315979 170.575256,84.809616 
	C170.755081,84.983589 170.722412,85.320107 170.493378,85.830132 
z"/>
<path fill="#F8E3E2" opacity="1.000000" stroke="none" 
	d="
M121.551483,86.468613 
	C121.584602,86.524063 121.518356,86.413162 121.551483,86.468613 
z"/>
<path fill="#FBEBEA" opacity="1.000000" stroke="none" 
	d="
M99.171829,87.850006 
	C99.084015,87.632736 99.248154,87.316856 99.671738,86.915642 
	C99.762047,87.137337 99.592918,87.444374 99.171829,87.850006 
z"/>
<path fill="#FAEBEA" opacity="1.000000" stroke="none" 
	d="
M105.447571,92.535866 
	C105.412025,92.477402 105.483124,92.594330 105.447571,92.535866 
z"/>
<path fill="#FBEBEA" opacity="1.000000" stroke="none" 
	d="
M88.474884,97.020332 
	C88.321693,96.825218 88.421669,96.651344 88.799965,96.544540 
	C88.898010,96.731758 88.781273,96.875076 88.474884,97.020332 
z"/>
<path fill="#F8E3E2" opacity="1.000000" stroke="none" 
	d="
M128.549774,96.859344 
	C128.238449,96.675606 128.279984,96.384941 128.684738,95.994644 
	C128.982880,96.182541 128.934433,96.468338 128.549774,96.859344 
z"/>
<path fill="#F8E3E2" opacity="1.000000" stroke="none" 
	d="
M127.279465,100.840256 
	C127.121727,100.632156 127.221962,100.257347 127.546051,99.693481 
	C127.692413,99.894142 127.614929,100.283844 127.279465,100.840256 
z"/>
<path fill="#F8E3E2" opacity="1.000000" stroke="none" 
	d="
M126.495514,101.888931 
	C126.370819,101.700035 126.426628,101.401070 126.745064,101.059967 
	C126.995743,101.314499 126.885185,101.568169 126.495514,101.888931 
z"/>
<path fill="#F7F7F7" opacity="1.000000" stroke="none" 
	d="
M97.465485,146.447372 
	C97.523346,146.412430 97.407623,146.482315 97.465485,146.447372 
z"/>
<path fill="#F7CDD0" opacity="1.000000" stroke="none" 
	d="
M181.114670,105.234123 
	C181.330292,105.132889 181.661285,105.259583 182.050034,105.656815 
	C181.815201,105.772255 181.522629,105.617149 181.114670,105.234123 
z"/>
<path fill="#FAE7E5" opacity="1.000000" stroke="none" 
	d="
M48.002930,107.997742 
	C47.883171,107.856697 47.760487,107.717911 47.637798,107.579124 
	C47.721806,107.629181 47.805817,107.679230 47.942688,107.867569 
	C47.995548,108.005844 48.000000,108.000000 48.002930,107.997742 
z"/>
<path fill="#FAEBEA" opacity="1.000000" stroke="none" 
	d="
M127.154160,108.884331 
	C126.982140,108.958633 126.989624,108.486786 126.990372,108.250992 
	C127.102814,108.280144 127.214500,108.545090 127.154160,108.884331 
z"/>
<path fill="#FAEBEA" opacity="1.000000" stroke="none" 
	d="
M103.534897,111.550064 
	C103.475754,111.586510 103.594040,111.513611 103.534897,111.550064 
z"/>
<path fill="#FAE7E5" opacity="1.000000" stroke="none" 
	d="
M37.554119,122.466949 
	C37.588730,122.523918 37.519508,122.409973 37.554119,122.466949 
z"/>
<path fill="#FCDAD9" opacity="1.000000" stroke="none" 
	d="
M153.103638,139.379288 
	C153.148331,139.164490 153.310181,139.092957 153.737274,139.026154 
	C153.741974,139.194763 153.481400,139.358658 153.103638,139.379288 
z"/>
<path fill="#F7CDD0" opacity="1.000000" stroke="none" 
	d="
M177.039383,139.196960 
	C177.176468,139.014404 177.355042,139.025238 177.780090,139.142090 
	C177.711334,139.295532 177.396118,139.342957 177.039383,139.196960 
z"/>
<path fill="#D42626" opacity="1.000000" stroke="none" 
	d="
M113.007324,125.096588 
	C111.858849,126.063744 110.727058,127.846786 109.559311,127.870659 
	C98.980949,128.086868 88.394730,128.084595 77.815231,127.897278 
	C76.247620,127.869522 74.703018,126.542831 73.540314,125.419540 
	C86.957672,125.046860 99.982498,125.071724 113.007324,125.096588 
z"/>
<path fill="#9B1C1F" opacity="1.000000" stroke="none" 
	d="
M113.444839,125.075363 
	C99.982498,125.071724 86.957672,125.046860 73.464249,125.048340 
	C70.851768,124.934982 68.707886,124.795288 66.306839,124.361580 
	C83.603569,124.122093 101.157463,124.176620 118.937973,124.619431 
	C117.403847,125.023178 115.643097,125.038666 113.444839,125.075363 
z"/>
<path fill="#D42626" opacity="1.000000" stroke="none" 
	d="
M117.757187,131.067917 
	C117.656967,132.610962 117.189438,134.176468 116.398430,135.887512 
	C114.139183,133.753922 114.730392,132.147034 117.757187,131.067917 
z"/>
<path fill="#CB2929" opacity="1.000000" stroke="none" 
	d="
M53.247093,107.942276 
	C53.723343,106.738304 54.562805,105.512794 55.707844,104.168854 
	C55.212379,105.340530 54.411343,106.630638 53.247093,107.942276 
z"/>
<path fill="#CB2929" opacity="1.000000" stroke="none" 
	d="
M49.189732,111.908112 
	C49.581745,111.260094 50.320450,110.650452 51.348793,109.941887 
	C50.937756,110.544136 50.237087,111.245316 49.189732,111.908112 
z"/>
<path fill="#CB2929" opacity="1.000000" stroke="none" 
	d="
M51.955498,109.007797 
	C51.610260,108.996239 51.541302,108.724693 51.872486,108.388718 
	C52.030941,108.374359 51.990086,108.797882 51.955498,109.007797 
z"/>
<path fill="#CB2929" opacity="1.000000" stroke="none" 
	d="
M47.451088,124.531128 
	C47.419281,124.477142 47.482891,124.585114 47.451088,124.531128 
z"/>
<path fill="#F5F5F5" opacity="1.000000" stroke="none" 
	d="
M152.944778,157.505112 
	C151.396027,165.324585 147.908035,167.579727 138.803146,166.090912 
	C137.732986,165.915909 135.876373,164.426392 135.993286,164.060730 
	C137.200653,160.285065 137.751175,155.186493 140.460175,153.313339 
	C143.230988,151.397446 148.213150,152.566177 152.210739,152.748413 
	C152.538559,152.763351 152.739029,155.571777 152.944778,157.505112 
z"/>
<path fill="#F6F6F6" opacity="1.000000" stroke="none" 
	d="
M90.982559,153.254272 
	C90.974075,164.239929 85.984810,168.638046 76.834106,166.017319 
	C75.628883,165.672150 74.089417,163.710922 74.067604,162.474136 
	C73.938187,155.135300 78.220268,151.177658 85.550865,151.620728 
	C87.298553,151.726349 89.009506,152.439682 90.982559,153.254272 
z"/>
<path fill="#FEFEFE" opacity="1.000000" stroke="none" 
	d="
M69.071838,155.877106 
	C68.444031,155.588226 67.957397,155.179749 67.470764,154.771271 
	C67.951141,154.804993 68.431511,154.838730 69.057312,155.130005 
	C69.202744,155.387573 69.213013,155.757492 69.071838,155.877106 
z"/>
<path fill="#FEFEFE" opacity="1.000000" stroke="none" 
	d="
M73.003448,54.004349 
	C72.908554,54.040352 72.810204,54.072006 72.851501,54.048431 
	C72.991150,53.993206 73.000000,54.000000 73.003448,54.004349 
z"/>
<path fill="#FEFEFE" opacity="1.000000" stroke="none" 
	d="
M188.449036,169.532150 
	C188.415955,169.476929 188.482117,169.587372 188.449036,169.532150 
z"/>
</svg>