<svg version="1.1" id="Layer_1" xmlns="http://www.w3.org/2000/svg" xmlns:xlink="http://www.w3.org/1999/xlink" x="0px" y="0px"
	 width="100%" viewBox="0 0 169 96" enable-background="new 0 0 169 96" xml:space="preserve">
<path fill="#FDFDFD" opacity="1.000000" stroke="none" 
	d="
M141.000000,1.000000 
	C150.649933,1.000000 160.299850,1.000000 169.974884,1.000000 
	C169.974884,32.927830 169.974884,64.855682 169.974884,97.000000 
	C127.646019,97.000000 85.291664,97.000000 42.455105,96.604019 
	C41.093887,95.042946 40.214886,93.877846 39.513439,92.465164 
	C40.146648,91.813591 40.602306,91.409592 41.356655,90.970032 
	C41.718201,90.273621 41.781052,89.612785 41.853935,88.697739 
	C41.954079,88.299858 42.044189,88.156181 42.453003,88.009979 
	C43.569824,87.919449 44.367943,87.831436 45.988899,87.652695 
	C44.410992,86.776741 43.716373,86.391136 43.029972,85.617599 
	C44.519695,80.470032 46.001205,75.710411 47.600750,70.571579 
	C49.201614,71.619797 50.373425,72.387070 51.404633,73.564331 
	C52.004944,75.968552 52.745869,77.962791 53.486790,79.957031 
	C54.056755,80.167130 54.626724,80.377220 55.196690,80.587311 
	C56.418884,78.864861 57.641075,77.142410 59.133591,75.232391 
	C62.805954,73.595123 64.238976,71.216492 64.109718,67.341637 
	C63.895523,60.920643 64.250542,54.480656 64.693146,48.043468 
	C65.892296,48.041641 66.764046,48.045017 67.749542,48.452805 
	C68.584229,51.563869 69.305161,54.270519 69.971169,57.185390 
	C69.985359,57.677578 69.994919,57.963535 69.729034,58.584282 
	C70.048103,59.593678 70.583069,60.270275 71.378624,61.169487 
	C72.800690,63.582863 73.962173,65.773628 74.807381,68.012192 
	C73.676056,70.570396 74.416000,71.344604 78.417656,71.975906 
	C78.964462,72.219254 79.099457,72.494904 79.077042,73.210808 
	C80.839470,75.916862 82.407722,78.655907 86.473297,76.812355 
	C89.047249,76.961311 91.374016,77.548050 93.400337,77.007835 
	C100.458176,75.126213 103.592773,69.661560 105.540390,62.945118 
	C106.678291,61.676445 107.466568,60.490257 108.535172,59.533169 
	C109.753914,61.110390 110.417740,62.837692 111.673752,63.747242 
	C122.737091,71.758835 135.753265,73.685768 148.638046,65.432579 
	C160.050247,58.122631 164.431549,47.485966 162.995880,34.319721 
	C161.542953,20.995386 154.660049,11.629155 141.992767,6.461094 
	C141.648911,5.786941 141.326797,5.383195 141.003586,4.581511 
	C141.001663,3.122381 141.000824,2.061191 141.000000,1.000000 
M147.814850,6.739034 
	C147.972809,6.624428 148.130783,6.509821 148.288742,6.395217 
	C148.068787,6.418377 147.848846,6.441536 147.814850,6.739034 
M145.821732,3.246353 
	C145.876892,3.412304 145.932037,3.578255 145.987198,3.744204 
	C146.040955,3.577166 146.094711,3.410127 145.821732,3.246353 
M88.516174,79.412552 
	C88.516174,79.412552 88.580780,79.522171 88.516174,79.412552 
z"/>
<path fill="#FBFBFB" opacity="1.000000" stroke="none" 
	d="
M140.531342,1.000000 
	C141.000824,2.061191 141.001663,3.122381 140.754807,4.740435 
	C140.307022,5.629976 140.106934,5.962655 139.489868,6.226297 
	C136.409027,6.514636 133.745163,6.872011 130.954102,6.979600 
	C130.212143,7.024379 129.597397,7.318944 128.653442,7.765527 
	C126.347931,8.996309 124.371590,10.075075 122.085098,11.031167 
	C119.850136,10.938761 117.925339,10.969028 115.911232,10.833108 
	C115.546974,10.777196 115.272026,10.887469 114.860420,11.052435 
	C114.816597,11.072387 114.909431,11.037648 115.251541,11.002211 
	C115.500824,11.001511 115.999390,11.000763 115.998932,11.477826 
	C115.788826,14.169679 115.579178,16.384468 115.346863,18.392292 
	C115.436394,18.792095 115.548584,19.398859 115.263016,19.916742 
	C110.401154,17.839188 105.878059,16.825468 100.958374,18.776478 
	C100.169800,18.003859 99.584953,17.453329 98.960564,16.619766 
	C98.615303,16.024517 98.309593,15.712303 98.003876,15.400090 
	C97.668839,15.865903 97.333801,16.331713 96.766052,16.884460 
	C96.160347,17.045530 95.942047,17.270065 95.547058,17.783081 
	C93.271507,20.196085 92.021271,18.527042 91.024750,16.951176 
	C92.190048,15.437493 93.053642,14.103334 93.917244,12.769176 
	C93.365402,12.387996 92.813560,12.006816 92.261719,11.625636 
	C91.143875,13.174650 90.026024,14.723664 88.501656,16.195564 
	C86.731476,15.954897 85.367828,15.791345 83.940735,15.344170 
	C83.252480,14.706060 82.627663,14.351572 81.980927,13.699959 
	C81.640190,12.934642 81.321373,12.466450 80.832802,11.763041 
	C80.125038,11.490973 79.587029,11.454122 79.049019,11.417270 
	C79.046379,11.576427 79.043732,11.735582 79.041084,11.894738 
	C79.693153,11.930751 80.345215,11.966763 81.019226,12.299921 
	C81.359894,13.065318 81.678627,13.533569 81.899399,14.246233 
	C81.538765,14.946509 81.276077,15.402373 80.738922,16.084633 
	C78.090790,17.838625 75.717125,19.366220 73.199387,20.532932 
	C72.156998,19.779318 71.258667,19.386587 70.216507,18.622601 
	C69.160210,15.663359 68.784706,12.666449 67.202324,10.588662 
	C65.123177,7.858574 64.640701,2.505445 58.623123,4.097898 
	C56.982491,5.346248 55.724545,6.645103 54.519592,7.975289 
	C54.572586,8.006618 54.683987,7.954195 54.582561,7.497110 
	C52.934456,7.480807 51.082375,7.523274 49.895477,8.433302 
	C45.438366,11.850706 45.725975,17.031691 45.106049,22.025780 
	C44.461769,22.610924 44.114853,23.103962 43.484150,23.380131 
	C41.123142,20.134821 39.045914,17.106382 36.966518,13.773665 
	C35.511292,4.930972 31.968025,13.087783 28.466681,11.437205 
	C29.891991,13.441253 30.446369,14.220731 30.998796,15.423746 
	C31.345285,18.792307 31.693724,21.737329 32.042160,24.682352 
	C29.136978,20.025251 27.425188,15.258613 25.055063,10.845547 
	C22.240679,5.605283 17.320385,5.438748 12.888183,10.208597 
	C12.348361,11.060845 12.038085,11.742860 11.331663,12.716685 
	C10.884715,16.551247 11.146252,20.132057 10.720103,23.629068 
	C9.739087,31.679371 8.092454,39.657593 7.329557,47.723106 
	C6.417420,57.366421 6.314315,67.111565 12.340878,75.475769 
	C13.386866,76.927483 16.079784,77.192543 18.342237,78.157425 
	C22.442703,79.874825 26.212940,81.440491 30.264246,83.199661 
	C31.771671,85.574249 32.998028,87.755325 33.951321,90.093910 
	C34.452171,92.500938 35.226086,94.750473 36.000000,97.000000 
	C24.358778,97.000000 12.717557,97.000000 1.038167,97.000000 
	C1.038167,65.095276 1.038167,33.190495 1.038167,1.000000 
	C24.020107,1.000000 47.041393,1.000000 70.570068,1.298155 
	C71.484520,1.914625 71.891594,2.232941 72.298668,2.551256 
	C72.532448,2.034171 72.766220,1.517085 73.000000,1.000000 
	C95.354225,1.000000 117.708458,1.000000 140.531342,1.000000 
M43.588650,17.518703 
	C43.588650,17.518703 43.484573,17.578848 43.588650,17.518703 
M9.483926,76.592697 
	C9.483926,76.592697 9.413047,76.476418 9.483926,76.592697 
M136.589188,4.515374 
	C136.589188,4.515374 136.478409,4.581238 136.589188,4.515374 
z"/>
<path fill="#EEEEEE" opacity="1.000000" stroke="none" 
	d="
M36.428463,97.000000 
	C35.226086,94.750473 34.452171,92.500938 34.232742,90.254547 
	C36.303448,91.076035 37.819668,91.894386 39.335884,92.712738 
	C40.214886,93.877846 41.093887,95.042946 41.986446,96.604019 
	C40.285641,97.000000 38.571285,97.000000 36.428463,97.000000 
z"/>
<path fill="#FAFAFA" opacity="1.000000" stroke="none" 
	d="
M72.666672,1.000000 
	C72.766220,1.517085 72.532448,2.034171 72.298668,2.551256 
	C71.891594,2.232941 71.484520,1.914625 71.038727,1.298155 
	C71.444443,1.000000 71.888893,1.000000 72.666672,1.000000 
z"/>
<path fill="#0D0D0D" opacity="1.000000" stroke="none" 
	d="
M39.513439,92.465164 
	C37.819668,91.894386 36.303448,91.076035 34.505806,90.097046 
	C32.998028,87.755325 31.771671,85.574249 30.251896,82.866043 
	C29.572598,81.550186 29.186714,80.761444 28.855366,79.710297 
	C28.616608,79.263519 28.323315,79.079140 27.971445,78.519447 
	C26.904064,74.526474 25.895260,70.908813 24.888695,66.968529 
	C23.926809,66.469948 22.962687,66.293991 21.998562,66.118042 
	C22.363167,66.423111 22.727772,66.728172 23.040298,67.432297 
	C21.329481,71.222801 19.670746,74.614250 18.012009,78.005699 
	C16.079784,77.192543 13.386866,76.927483 12.340878,75.475769 
	C6.314315,67.111565 6.417420,57.366421 7.329557,47.723106 
	C8.092454,39.657593 9.739087,31.679371 10.720103,23.629068 
	C11.146252,20.132057 10.884715,16.551247 11.485296,13.035454 
	C12.640834,13.375472 13.246595,13.688533 13.919544,14.437325 
	C13.802361,17.834827 13.686695,20.802765 13.421636,23.757296 
	C12.317407,36.065750 10.917756,48.355358 10.188451,60.685116 
	C9.970260,64.373894 11.579306,68.170753 12.351205,71.918098 
	C12.783529,71.871071 13.215854,71.824043 13.648177,71.777016 
	C13.814492,71.185303 13.980806,70.593582 14.478592,69.936935 
	C15.207232,68.912682 15.604402,67.953354 16.381025,66.914230 
	C17.126749,64.906578 17.493019,62.978725 18.109110,60.897350 
	C18.174328,60.140068 17.989725,59.536312 17.701111,58.485809 
	C18.390305,51.643543 19.183514,45.248013 20.253101,38.922020 
	C20.719261,38.982491 20.909039,38.973434 21.180061,39.296707 
	C21.378227,40.064037 21.495150,40.499039 21.486328,41.129265 
	C21.685724,41.848362 22.010860,42.372238 22.308357,43.239784 
	C22.352551,44.035255 22.424383,44.487053 22.383095,45.227566 
	C22.559181,45.996819 22.848391,46.477360 23.125607,47.300667 
	C23.269547,48.073341 23.425478,48.503242 23.416975,49.206219 
	C23.528374,49.977970 23.804207,50.476646 24.084225,51.326923 
	C24.299255,52.093185 24.510101,52.507847 24.595207,53.302521 
	C25.314640,57.787834 26.159813,61.893139 27.027405,66.246918 
	C27.049824,66.495384 27.208162,66.968552 27.146214,67.356415 
	C28.505661,71.124336 29.927057,74.504387 31.369095,78.222870 
	C31.785448,79.347618 32.181164,80.133942 32.498829,81.244164 
	C33.418858,82.989967 34.416935,84.411865 35.857018,86.463455 
	C36.981651,83.296783 37.926056,80.637581 38.998947,77.615433 
	C39.778011,74.508842 40.428596,71.765205 41.297333,68.826881 
	C41.549725,68.070419 41.583969,67.508644 41.700348,66.533813 
	C42.470123,60.088524 43.157764,54.056278 43.919731,47.607811 
	C43.844593,44.770126 43.695126,42.348671 43.525703,39.518028 
	C42.624748,35.755630 41.743752,32.402424 41.136703,28.859005 
	C40.923775,27.785461 40.436905,26.902124 39.638741,25.813694 
	C37.538662,22.681257 35.749866,19.753916 33.967403,16.417334 
	C33.851028,15.202030 33.728321,14.395967 33.617867,13.600679 
	C33.630119,13.611453 33.645061,13.583206 34.096313,13.682804 
	C34.855087,13.800756 35.162613,13.819109 35.726089,13.816437 
	C36.310925,13.889588 36.639805,13.983766 36.968689,14.077943 
	C39.045914,17.106382 41.123142,20.134821 43.538151,23.706280 
	C44.611221,25.839119 45.346508,27.428938 46.042183,29.301308 
	C46.849094,33.201458 47.695621,36.819057 48.488728,40.208363 
	C51.711445,35.901524 51.552975,34.312145 47.056911,28.561234 
	C46.465412,26.083027 45.934410,24.008350 45.403404,21.933674 
	C45.725975,17.031691 45.438366,11.850706 49.895477,8.433302 
	C51.082375,7.523274 52.934456,7.480807 54.266174,7.700381 
	C48.968376,11.182336 48.019371,15.814339 48.323280,21.100863 
	C48.624241,26.336029 51.133202,30.487940 56.105717,31.337650 
	C61.209026,32.209713 63.110489,27.257780 64.984306,23.546894 
	C67.938377,17.696724 64.829506,9.535170 59.000317,6.609253 
	C59.001213,5.554602 59.003513,4.851504 59.005810,4.148406 
	C64.640701,2.505445 65.123177,7.858574 67.202324,10.588662 
	C68.784706,12.666449 69.160210,15.663359 70.159508,18.971634 
	C70.425888,21.032078 70.605423,22.372227 70.904861,24.607483 
	C72.040543,22.877981 72.691994,21.885899 73.343452,20.893818 
	C75.717125,19.366220 78.090790,17.838625 81.115326,16.116135 
	C82.512177,15.823424 83.258179,15.725608 84.004173,15.627792 
	C85.367828,15.791345 86.731476,15.954897 88.626648,16.437008 
	C89.679794,16.880611 90.201424,17.005655 90.723061,17.130701 
	C92.021271,18.527042 93.271507,20.196085 95.600632,18.268665 
	C96.079933,19.260519 96.174278,19.904865 96.098297,20.862530 
	C95.362358,22.243931 94.796745,23.312016 94.208084,24.423620 
	C82.504478,15.819306 74.430344,18.760323 70.855392,32.855541 
	C68.803772,40.944611 69.958885,49.010586 71.920151,56.954338 
	C71.108513,56.970222 70.567307,56.973694 70.026093,56.977165 
	C69.305161,54.270519 68.584229,51.563869 67.831497,48.177948 
	C67.651756,46.966789 67.503807,46.434902 67.356010,45.408970 
	C66.775978,44.325943 66.195801,43.736965 65.615623,43.147984 
	C65.260712,44.062241 64.905792,44.976498 64.374100,46.123127 
	C64.253456,46.919891 64.309601,47.484280 64.365746,48.048672 
	C64.250542,54.480656 63.895523,60.920643 64.109718,67.341637 
	C64.238976,71.216492 62.805954,73.595123 58.755447,75.291206 
	C55.919727,74.743172 53.732483,73.948761 51.545238,73.154350 
	C50.373425,72.387070 49.201614,71.619797 47.600750,70.571579 
	C46.001205,75.710411 44.519695,80.470032 42.783768,85.783157 
	C42.397663,86.895271 42.265980,87.453880 42.134296,88.012497 
	C42.044189,88.156181 41.954079,88.299858 41.592300,88.845642 
	C41.233074,89.833687 41.145515,90.419647 41.057961,91.005600 
	C40.602306,91.409592 40.146648,91.813591 39.513439,92.465164 
M22.895687,60.703888 
	C22.806234,60.658455 22.716782,60.613022 22.627329,60.567593 
	C22.740292,60.720425 22.853252,60.873257 23.006033,61.505295 
	C23.134918,61.774998 23.263803,62.044697 23.392689,62.314400 
	C23.269436,61.866295 23.146183,61.418190 22.895687,60.703888 
M64.136070,39.868465 
	C64.599808,40.956612 65.063545,42.044758 65.527283,43.132904 
	C65.914558,43.012718 66.301834,42.892536 66.689110,42.772350 
	C66.767052,41.518982 66.844986,40.265614 67.310341,38.427334 
	C67.504768,36.924568 67.699203,35.421799 67.893639,33.919033 
	C67.449905,33.748005 67.006180,33.576973 66.562454,33.405941 
	C65.733490,35.264713 64.904526,37.123489 64.136070,39.868465 
M59.759495,55.116867 
	C59.759495,48.864918 59.759495,42.612972 59.759495,36.338284 
	C52.002377,36.929859 51.958622,36.930141 52.001236,43.525139 
	C52.031326,48.181969 52.209965,52.837708 52.300613,57.494358 
	C52.324753,58.734329 52.254429,59.975838 52.253281,61.216667 
	C52.251026,63.655228 52.266876,66.093803 52.275234,68.532379 
	C54.401485,68.198036 56.527733,67.863701 58.360027,67.575577 
	C58.837383,63.242630 59.234238,59.640381 59.759495,55.116867 
z"/>
<path fill="#101010" opacity="1.000000" stroke="none" 
	d="
M96.268616,20.549210 
	C96.174278,19.904865 96.079933,19.260519 95.932022,18.130589 
	C95.942047,17.270065 96.160347,17.045530 97.095169,16.957378 
	C98.104698,16.929842 98.552399,16.916319 99.000107,16.902798 
	C99.584953,17.453329 100.169800,18.003859 100.961632,19.148907 
	C101.874451,22.859028 102.580284,25.974632 103.176056,29.447903 
	C101.654808,36.597099 103.436111,44.159519 97.746521,50.112946 
	C88.136711,51.664997 88.142921,42.833271 84.187820,38.008892 
	C82.082008,44.950253 83.343170,51.268482 85.279182,57.474918 
	C85.639900,58.631275 87.173096,59.421898 88.165192,60.381310 
	C89.025017,59.310421 90.240715,58.363579 90.666679,57.141468 
	C91.429718,54.952328 91.510689,52.668175 94.874741,52.722885 
	C95.922356,52.739922 97.000252,50.894669 98.426498,49.933804 
	C104.386009,52.622185 105.275490,57.586151 105.190765,63.027603 
	C103.592773,69.661560 100.458176,75.126213 93.400337,77.007835 
	C91.374016,77.548050 89.047249,76.961311 86.264801,76.544861 
	C83.466988,75.084579 81.262604,73.970718 79.058220,72.856865 
	C79.099457,72.494904 78.964462,72.219254 78.316956,71.672913 
	C77.028343,70.198746 76.075996,69.081566 75.123657,67.964394 
	C73.962173,65.773628 72.800690,63.582863 71.380219,60.861687 
	C70.729126,59.638012 70.337029,58.944752 69.944931,58.251492 
	C69.994919,57.963535 69.985359,57.677578 69.971169,57.185390 
	C70.567307,56.973694 71.108513,56.970222 72.212784,57.142418 
	C75.338783,61.087784 77.428261,65.328453 80.587791,68.504715 
	C84.308197,72.244820 91.402946,71.967400 95.357666,68.899887 
	C99.866875,65.402306 101.850006,58.390831 99.857765,53.817577 
	C97.868874,55.187595 95.787277,56.408222 93.962784,57.935913 
	C91.985733,59.591351 89.986748,63.202888 88.466675,62.964802 
	C86.089600,62.592484 83.250641,60.119759 82.111877,57.798687 
	C78.023361,49.465332 77.712051,40.554379 80.110847,31.645351 
	C80.586594,29.878447 82.009041,28.214413 83.375641,26.898256 
	C84.155312,26.147364 85.959869,25.641874 86.832939,26.044657 
	C87.651627,26.422346 88.152245,28.111671 88.268150,29.276049 
	C88.644005,33.051479 88.449272,36.915340 89.171425,40.608841 
	C89.454063,42.054451 91.436264,43.427971 92.963303,44.217716 
	C93.445976,44.467346 95.706467,42.850933 95.886909,41.858303 
	C97.055679,35.428814 97.939186,28.943167 98.688019,22.449610 
	C98.749519,21.916235 97.115059,21.187286 96.268616,20.549210 
z"/>
<path fill="#131313" opacity="1.000000" stroke="none" 
	d="
M131.081314,7.229384 
	C133.745163,6.872011 136.409027,6.514636 139.683685,6.445894 
	C140.867813,6.733519 141.441162,6.732510 142.014496,6.731502 
	C154.660049,11.629155 161.542953,20.995386 162.995880,34.319721 
	C164.431549,47.485966 160.050247,58.122631 148.638046,65.432579 
	C135.753265,73.685768 122.737091,71.758835 111.673752,63.747242 
	C110.417740,62.837692 109.753914,61.110390 108.444305,59.208233 
	C105.314507,54.262115 102.984138,49.558193 104.112732,44.308620 
	C105.368469,38.467632 107.415367,32.796741 109.388947,26.952021 
	C110.117729,26.248129 110.575394,25.644020 111.314537,25.068913 
	C111.776337,25.428467 111.956657,25.759022 112.119370,26.493544 
	C111.093750,30.171986 109.889183,33.401047 109.119957,36.730690 
	C107.663971,43.033031 106.399902,49.398296 110.789429,55.156570 
	C110.846642,55.083103 110.748901,55.237904 110.871399,55.555382 
	C114.856529,58.301479 118.719162,60.730099 122.811440,63.406601 
	C123.698235,63.799858 124.355400,63.945236 125.210648,64.417313 
	C126.888512,65.146286 128.457825,66.083733 129.831802,65.853806 
	C134.587234,65.058029 139.274658,63.855988 144.330231,62.865639 
	C146.387970,61.610451 148.103455,60.298195 150.084610,58.757504 
	C153.326065,53.291237 156.999557,48.775978 157.599243,41.963444 
	C157.924713,38.266148 160.258667,34.323517 159.523300,29.772289 
	C159.440536,28.995247 159.261948,28.482899 159.110596,27.585888 
	C158.850601,26.101353 158.720520,24.929081 158.252228,23.912613 
	C152.511841,11.452375 138.063721,7.222679 125.611755,14.231700 
	C122.851997,15.785122 119.905998,17.007681 117.497711,18.253695 
	C116.962257,14.226425 120.279015,13.072936 122.395256,11.153840 
	C124.371590,10.075075 126.347931,8.996309 128.933990,7.846282 
	C130.056259,7.593141 130.568787,7.411263 131.081314,7.229384 
z"/>
<path fill="#E1E1E1" opacity="1.000000" stroke="none" 
	d="
M109.117844,27.051804 
	C107.415367,32.796741 105.368469,38.467632 104.112732,44.308620 
	C102.984138,49.558193 105.314507,54.262115 108.163986,58.979130 
	C107.466568,60.490257 106.678291,61.676445 105.540390,62.945118 
	C105.275490,57.586151 104.386009,52.622185 98.451126,49.969429 
	C98.113533,49.973198 98.183983,50.023582 98.183983,50.023582 
	C103.436111,44.159519 101.654808,36.597099 103.552460,29.412449 
	C105.731895,28.363487 107.424873,27.707647 109.117844,27.051804 
z"/>
<path fill="#F1F1F1" opacity="1.000000" stroke="none" 
	d="
M51.404633,73.564331 
	C53.732483,73.948761 55.919727,74.743172 58.485119,75.478775 
	C57.641075,77.142410 56.418884,78.864861 55.196690,80.587311 
	C54.626724,80.377220 54.056755,80.167130 53.486790,79.957031 
	C52.745869,77.962791 52.004944,75.968552 51.404633,73.564331 
z"/>
<path fill="#F1F1F1" opacity="1.000000" stroke="none" 
	d="
M79.077042,73.210808 
	C81.262604,73.970718 83.466988,75.084579 85.879868,76.465927 
	C82.407722,78.655907 80.839470,75.916862 79.077042,73.210808 
z"/>
<path fill="#F1F1F1" opacity="1.000000" stroke="none" 
	d="
M74.807373,68.012192 
	C76.075996,69.081566 77.028343,70.198746 78.081390,71.618912 
	C74.416000,71.344604 73.676056,70.570396 74.807373,68.012192 
z"/>
<path fill="#E1E1E1" opacity="1.000000" stroke="none" 
	d="
M67.355858,45.903019 
	C67.503807,46.434902 67.651756,46.966789 67.717751,47.773533 
	C66.764046,48.045017 65.892296,48.041641 64.693146,48.043468 
	C64.309601,47.484280 64.253456,46.919891 64.840820,46.165108 
	C66.108170,45.950817 66.732010,45.926918 67.355858,45.903019 
z"/>
<path fill="#ECECEC" opacity="1.000000" stroke="none" 
	d="
M42.453003,88.009979 
	C42.265980,87.453880 42.397663,86.895271 42.775551,86.171097 
	C43.716373,86.391136 44.410992,86.776741 45.988899,87.652695 
	C44.367943,87.831436 43.569824,87.919449 42.453003,88.009979 
z"/>
<path fill="#ECECEC" opacity="1.000000" stroke="none" 
	d="
M41.356655,90.970032 
	C41.145515,90.419647 41.233074,89.833687 41.582264,89.099838 
	C41.781052,89.612785 41.718201,90.273621 41.356655,90.970032 
z"/>
<path fill="#E1E1E1" opacity="1.000000" stroke="none" 
	d="
M69.729034,58.584282 
	C70.337029,58.944752 70.729126,59.638012 71.119637,60.639076 
	C70.583069,60.270275 70.048103,59.593678 69.729034,58.584282 
z"/>
<path fill="#F3F3F3" opacity="1.000000" stroke="none" 
	d="
M141.992767,6.461094 
	C141.441162,6.732510 140.867813,6.733519 140.100662,6.514930 
	C140.106934,5.962655 140.307022,5.629976 140.755905,5.138373 
	C141.326797,5.383195 141.648911,5.786941 141.992767,6.461094 
z"/>
<path fill="#F3F3F3" opacity="1.000000" stroke="none" 
	d="
M147.721863,6.601865 
	C147.848846,6.441536 148.068787,6.418377 148.288742,6.395216 
	C148.130783,6.509821 147.972809,6.624428 147.721863,6.601865 
z"/>
<path fill="#F3F3F3" opacity="1.000000" stroke="none" 
	d="
M145.985107,3.244721 
	C146.094711,3.410127 146.040955,3.577166 145.987198,3.744205 
	C145.932037,3.578255 145.876892,3.412304 145.985107,3.244721 
z"/>
<path fill="#F1F1F1" opacity="1.000000" stroke="none" 
	d="
M88.548477,79.467361 
	C88.580780,79.522171 88.516174,79.412552 88.548477,79.467361 
z"/>
<path fill="#101010" opacity="1.000000" stroke="none" 
	d="
M33.605614,13.589905 
	C33.728321,14.395967 33.851028,15.202030 33.747665,16.791702 
	C35.737720,32.967815 38.967690,48.314133 35.365299,65.200790 
	C34.380619,61.137814 33.663914,58.171898 32.942902,55.207024 
	C29.668682,41.742973 26.575865,28.230904 23.032120,14.838155 
	C21.526907,9.149560 18.534460,8.514536 14.041019,11.867386 
	C13.710999,11.054165 13.414363,10.546264 13.117727,10.038363 
	C17.320385,5.438748 22.240679,5.605283 25.055063,10.845547 
	C27.425188,15.258613 29.136978,20.025251 32.042160,24.682352 
	C31.693724,21.737329 31.345285,18.792307 31.255512,15.262203 
	C32.211323,14.314716 32.908466,13.952311 33.605614,13.589905 
z"/>
<path fill="#E7E7E7" opacity="1.000000" stroke="none" 
	d="
M59.001720,6.960806 
	C64.829506,9.535170 67.938377,17.696724 64.984306,23.546894 
	C63.110489,27.257780 61.209026,32.209713 56.105717,31.337650 
	C51.133202,30.487940 48.624241,26.336029 48.323280,21.100863 
	C48.019371,15.814339 48.968376,11.182336 54.367599,8.157467 
	C54.683987,7.954195 54.572586,8.006618 54.718578,8.276624 
	C56.243622,8.018022 57.622669,7.489414 59.001720,6.960806 
z"/>
<path fill="#FAFAFA" opacity="1.000000" stroke="none" 
	d="
M109.388954,26.952023 
	C107.424873,27.707647 105.731895,28.363487 103.662521,29.054783 
	C102.580284,25.974632 101.874451,22.859028 101.165359,19.370995 
	C105.878059,16.825468 110.401154,17.839188 115.204979,20.258154 
	C115.087616,21.197184 114.630524,21.705919 113.901688,22.120380 
	C113.413292,21.722567 113.196648,21.419027 112.835175,20.858746 
	C112.089516,20.833103 111.488686,21.064201 110.847443,21.517447 
	C110.882378,22.839699 110.957726,23.939804 111.033066,25.039911 
	C110.575394,25.644020 110.117729,26.248129 109.388954,26.952023 
z"/>
<path fill="#EEEEEE" opacity="1.000000" stroke="none" 
	d="
M28.800831,79.972702 
	C29.186714,80.761444 29.572598,81.550186 29.970829,82.672539 
	C26.212940,81.440491 22.442703,79.874825 18.342237,78.157425 
	C19.670746,74.614250 21.329481,71.222801 23.344402,67.426743 
	C24.095877,67.111801 24.491167,67.201477 24.886456,67.291153 
	C25.895260,70.908813 26.904064,74.526474 28.045479,78.735321 
	C28.307482,79.617256 28.515062,79.832649 28.800831,79.972702 
z"/>
<path fill="#FAFAFA" opacity="1.000000" stroke="none" 
	d="
M122.085098,11.031167 
	C120.279015,13.072936 116.962257,14.226425 117.484253,18.264589 
	C117.018837,18.404371 116.949776,18.476994 116.927872,18.862797 
	C116.916542,19.506002 116.927116,19.763403 116.971115,20.013023 
	C117.004539,20.005243 117.019051,19.938177 116.734711,19.904398 
	C116.090088,19.446831 115.729805,19.023043 115.369522,18.599255 
	C115.579178,16.384468 115.788826,14.169679 115.999237,11.477445 
	C116.000000,11.000000 116.000534,10.999295 116.000534,10.999294 
	C117.925339,10.969028 119.850136,10.938761 122.085098,11.031167 
z"/>
<path fill="#EEEEEE" opacity="1.000000" stroke="none" 
	d="
M33.617867,13.600679 
	C32.908466,13.952311 32.211323,14.314716 31.257462,14.838665 
	C30.446369,14.220731 29.891991,13.441253 28.466681,11.437205 
	C31.968025,13.087783 35.511292,4.930972 36.966518,13.773665 
	C36.639805,13.983766 36.310925,13.889588 35.585579,13.560145 
	C34.674431,13.410989 34.159748,13.497097 33.645061,13.583206 
	C33.645061,13.583206 33.630119,13.611453 33.617867,13.600679 
z"/>
<path fill="#FAFAFA" opacity="1.000000" stroke="none" 
	d="
M91.024750,16.951176 
	C90.201424,17.005655 89.679794,16.880611 89.033173,16.514122 
	C90.026024,14.723664 91.143875,13.174650 92.261719,11.625636 
	C92.813560,12.006816 93.365402,12.387996 93.917244,12.769176 
	C93.053642,14.103334 92.190048,15.437493 91.024750,16.951176 
z"/>
<path fill="#E1E1E1" opacity="1.000000" stroke="none" 
	d="
M46.081795,29.018759 
	C45.346508,27.428938 44.611221,25.839119 43.821934,23.923151 
	C44.114853,23.103962 44.461769,22.610924 45.106049,22.025780 
	C45.934410,24.008350 46.465412,26.083027 46.797974,28.574011 
	C46.426949,28.999798 46.254372,29.009277 46.081795,29.018759 
z"/>
<path fill="#141414" opacity="1.000000" stroke="none" 
	d="
M59.000317,6.609253 
	C57.622669,7.489414 56.243622,8.018022 54.665585,8.245295 
	C55.724545,6.645103 56.982491,5.346248 58.623123,4.097898 
	C59.003513,4.851504 59.001213,5.554602 59.000317,6.609253 
z"/>
<path fill="#181818" opacity="1.000000" stroke="none" 
	d="
M115.346863,18.392292 
	C115.729805,19.023043 116.090088,19.446831 117.033501,20.152527 
	C116.742287,21.620308 115.867935,22.806179 114.712395,23.913315 
	C114.345276,23.294605 114.259354,22.754631 114.173431,22.214657 
	C114.630524,21.705919 115.087616,21.197184 115.602737,20.347034 
	C115.548584,19.398859 115.436394,18.792095 115.346863,18.392292 
z"/>
<path fill="#FAFAFA" opacity="1.000000" stroke="none" 
	d="
M73.199387,20.532932 
	C72.691994,21.885899 72.040543,22.877981 70.904861,24.607483 
	C70.605423,22.372227 70.425888,21.032078 70.303345,19.342892 
	C71.258667,19.386587 72.156998,19.779318 73.199387,20.532932 
z"/>
<path fill="#0F0F0F" opacity="1.000000" stroke="none" 
	d="
M12.888183,10.208597 
	C13.414363,10.546264 13.710999,11.054165 14.058920,12.177201 
	C14.024257,13.195423 13.938307,13.598508 13.852356,14.001594 
	C13.246595,13.688533 12.640834,13.375472 11.881440,12.743643 
	C12.038085,11.742860 12.348361,11.060845 12.888183,10.208597 
z"/>
<path fill="#FAFAFA" opacity="1.000000" stroke="none" 
	d="
M83.940735,15.344170 
	C83.258179,15.725608 82.512177,15.823424 81.389786,15.889740 
	C81.276077,15.402373 81.538765,14.946509 81.900726,14.245316 
	C82.000000,13.999987 82.002853,13.997084 82.002853,13.997084 
	C82.627663,14.351572 83.252480,14.706060 83.940735,15.344170 
z"/>
<path fill="#FAFAFA" opacity="1.000000" stroke="none" 
	d="
M98.960564,16.619764 
	C98.552399,16.916319 98.104698,16.929842 97.327881,16.870445 
	C97.333801,16.331713 97.668839,15.865903 98.003876,15.400090 
	C98.309593,15.712303 98.615303,16.024517 98.960564,16.619764 
z"/>
<path fill="#F3F3F3" opacity="1.000000" stroke="none" 
	d="
M130.954102,6.979599 
	C130.568787,7.411263 130.056259,7.593141 129.263184,7.694264 
	C129.597397,7.318944 130.212143,7.024379 130.954102,6.979599 
z"/>
<path fill="#FAFAFA" opacity="1.000000" stroke="none" 
	d="
M80.997284,12.002775 
	C80.345215,11.966763 79.693153,11.930751 79.041084,11.894738 
	C79.043732,11.735582 79.046379,11.576427 79.049019,11.417270 
	C79.587029,11.454122 80.125038,11.490973 80.831528,11.763918 
	C81.000000,12.000011 80.997284,12.002774 80.997284,12.002775 
z"/>
<path fill="#FAFAFA" opacity="1.000000" stroke="none" 
	d="
M81.998680,14.000904 
	C81.678627,13.533569 81.359894,13.065318 81.019226,12.299921 
	C80.997284,12.002774 81.000000,12.000011 81.001282,11.999134 
	C81.321373,12.466450 81.640190,12.934642 81.980927,13.699959 
	C82.002853,13.997084 82.000000,13.999987 81.998680,14.000904 
z"/>
<path fill="#FAFAFA" opacity="1.000000" stroke="none" 
	d="
M114.997070,10.997743 
	C115.272026,10.887469 115.546974,10.777196 115.911232,10.833109 
	C116.000534,10.999295 116.000000,11.000000 115.999695,11.000381 
	C115.999390,11.000763 115.500824,11.001511 115.250412,11.000755 
	C115.000000,11.000000 114.997070,10.997743 114.997070,10.997743 
z"/>
<path fill="#FAFAFA" opacity="1.000000" stroke="none" 
	d="
M115.001129,11.001455 
	C114.909431,11.037648 114.816597,11.072387 114.860420,11.052435 
	C114.997070,10.997743 115.000000,11.000000 115.001129,11.001455 
z"/>
<path fill="#E1E1E1" opacity="1.000000" stroke="none" 
	d="
M43.536613,17.548775 
	C43.484573,17.578848 43.588650,17.518703 43.536613,17.548775 
z"/>
<path fill="#EEEEEE" opacity="1.000000" stroke="none" 
	d="
M9.448486,76.534561 
	C9.413047,76.476418 9.483926,76.592697 9.448486,76.534561 
z"/>
<path fill="#F3F3F3" opacity="1.000000" stroke="none" 
	d="
M136.533798,4.548306 
	C136.478409,4.581238 136.589188,4.515374 136.533798,4.548306 
z"/>
<path fill="#F3F3F3" opacity="1.000000" stroke="none" 
	d="
M13.919544,14.437325 
	C13.938307,13.598508 14.024257,13.195423 14.092306,12.482521 
	C18.534460,8.514536 21.526907,9.149560 23.032120,14.838155 
	C26.575865,28.230904 29.668682,41.742973 32.942902,55.207024 
	C33.663914,58.171898 34.380619,61.137814 35.365299,65.200790 
	C38.967690,48.314133 35.737720,32.967815 33.741333,17.200943 
	C35.749866,19.753916 37.538662,22.681257 39.661812,26.159679 
	C40.285034,27.490242 40.573895,28.269726 40.862755,29.049212 
	C41.743752,32.402424 42.624748,35.755630 43.145374,39.552895 
	C41.018185,42.952744 41.316135,45.635773 43.845409,48.024036 
	C43.157764,54.056278 42.470123,60.088524 41.427948,66.571335 
	C41.075336,67.688454 41.077259,68.355011 41.079182,69.021568 
	C40.428596,71.765205 39.778011,74.508842 38.680603,77.653389 
	C37.019859,80.335464 34.793167,80.617592 32.576878,80.920258 
	C32.181164,80.133942 31.785448,79.347618 31.606295,77.953575 
	C31.813591,73.206833 31.680517,69.122871 27.208162,66.968552 
	C27.208162,66.968552 27.049824,66.495384 27.339594,65.994102 
	C28.371986,60.906586 28.234407,56.524006 24.720947,52.922508 
	C24.510101,52.507847 24.299255,52.093185 24.317396,51.212288 
	C24.224724,50.141747 23.903067,49.537445 23.581409,48.933144 
	C23.425478,48.503242 23.269547,48.073341 23.354427,47.176647 
	C23.228899,46.119518 22.862558,45.529186 22.496218,44.938850 
	C22.424383,44.487053 22.352551,44.035255 22.506907,43.097839 
	C22.359421,42.052826 21.985746,41.493435 21.612072,40.934040 
	C21.495150,40.499039 21.378227,40.064037 21.432072,39.114815 
	C21.365952,37.888184 21.129063,37.175770 20.892176,36.463360 
	C20.587025,37.259735 20.281874,38.056110 19.976721,38.852486 
	C19.183514,45.248013 18.390305,51.643543 17.551628,58.664627 
	C17.623867,59.877079 17.741577,60.463978 17.859287,61.050873 
	C17.493019,62.978725 17.126749,64.906578 16.164780,66.622192 
	C15.209001,65.454964 14.848922,64.499977 14.147120,62.638683 
	C14.147120,65.846619 14.147120,67.924248 14.147120,70.001869 
	C13.980806,70.593582 13.814492,71.185303 13.648177,71.777016 
	C13.215854,71.824043 12.783529,71.871071 12.351205,71.918098 
	C11.579306,68.170753 9.970260,64.373894 10.188451,60.685116 
	C10.917756,48.355358 12.317407,36.065750 13.421636,23.757296 
	C13.686695,20.802765 13.802361,17.834827 13.919544,14.437325 
M41.417400,57.485218 
	C41.417400,57.485218 41.542370,57.409725 41.417400,57.485218 
z"/>
<path fill="#EEEEEE" opacity="1.000000" stroke="none" 
	d="
M96.098297,20.862530 
	C97.115059,21.187286 98.749519,21.916235 98.688019,22.449610 
	C97.939186,28.943167 97.055679,35.428814 95.886909,41.858303 
	C95.706467,42.850933 93.445976,44.467346 92.963303,44.217716 
	C91.436264,43.427971 89.454063,42.054451 89.171425,40.608841 
	C88.449272,36.915340 88.644005,33.051479 88.268150,29.276049 
	C88.152245,28.111671 87.651627,26.422346 86.832939,26.044657 
	C85.959869,25.641874 84.155312,26.147364 83.375641,26.898256 
	C82.009041,28.214413 80.586594,29.878447 80.110847,31.645351 
	C77.712051,40.554379 78.023361,49.465332 82.111877,57.798687 
	C83.250641,60.119759 86.089600,62.592484 88.466675,62.964802 
	C89.986748,63.202888 91.985733,59.591351 93.962784,57.935913 
	C95.787277,56.408222 97.868874,55.187595 99.857765,53.817577 
	C101.850006,58.390831 99.866875,65.402306 95.357666,68.899887 
	C91.402946,71.967400 84.308197,72.244820 80.587791,68.504715 
	C77.428261,65.328453 75.338783,61.087784 72.483200,57.130005 
	C69.958885,49.010586 68.803772,40.944611 70.855392,32.855541 
	C74.430344,18.760323 82.504478,15.819306 94.208084,24.423620 
	C94.796745,23.312016 95.362358,22.243931 96.098297,20.862530 
z"/>
<path fill="#EBEBEB" opacity="1.000000" stroke="none" 
	d="
M59.695293,55.577499 
	C59.234238,59.640381 58.837383,63.242630 58.360027,67.575577 
	C56.527733,67.863701 54.401485,68.198036 52.275234,68.532379 
	C52.266876,66.093803 52.251026,63.655228 52.253281,61.216667 
	C52.254429,59.975838 52.324753,58.734329 52.300613,57.494358 
	C52.209965,52.837708 52.031326,48.181969 52.001236,43.525139 
	C51.958622,36.930141 52.002377,36.929859 59.759495,36.338284 
	C59.759495,42.612972 59.759495,48.864918 59.695293,55.577499 
z"/>
<path fill="#D6D6D6" opacity="1.000000" stroke="none" 
	d="
M46.042183,29.301308 
	C46.254372,29.009277 46.426949,28.999798 46.858467,28.977539 
	C51.552975,34.312145 51.711445,35.901524 48.488728,40.208363 
	C47.695621,36.819057 46.849094,33.201458 46.042183,29.301308 
z"/>
<path fill="#D6D6D6" opacity="1.000000" stroke="none" 
	d="
M24.595207,53.302521 
	C28.234407,56.524006 28.371986,60.906586 27.317175,65.745636 
	C26.159813,61.893139 25.314640,57.787834 24.595207,53.302521 
z"/>
<path fill="#D6D6D6" opacity="1.000000" stroke="none" 
	d="
M27.146214,67.356415 
	C31.680517,69.122871 31.813591,73.206833 31.585655,77.615143 
	C29.927057,74.504387 28.505661,71.124336 27.146214,67.356415 
z"/>
<path fill="#D6D6D6" opacity="1.000000" stroke="none" 
	d="
M32.498829,81.244164 
	C34.793167,80.617592 37.019859,80.335464 38.552120,78.016342 
	C37.926056,80.637581 36.981651,83.296783 35.857018,86.463455 
	C34.416935,84.411865 33.418858,82.989967 32.498829,81.244164 
z"/>
<path fill="#E1E1E1" opacity="1.000000" stroke="none" 
	d="
M64.075562,38.982262 
	C64.904526,37.123489 65.733490,35.264713 66.562454,33.405941 
	C67.006180,33.576973 67.449905,33.748005 67.893639,33.919033 
	C67.699203,35.421799 67.504768,36.924568 66.760849,38.706192 
	C65.499428,38.984116 64.787491,38.983185 64.075562,38.982262 
z"/>
<path fill="#D6D6D6" opacity="1.000000" stroke="none" 
	d="
M43.919731,47.607811 
	C41.316135,45.635773 41.018185,42.952744 43.165333,39.962082 
	C43.695126,42.348671 43.844593,44.770126 43.919731,47.607811 
z"/>
<path fill="#0F0F0F" opacity="1.000000" stroke="none" 
	d="
M14.478591,69.936935 
	C14.147120,67.924248 14.147120,65.846619 14.147120,62.638683 
	C14.848922,64.499977 15.209001,65.454964 15.785326,66.701988 
	C15.604402,67.953354 15.207232,68.912682 14.478591,69.936935 
z"/>
<path fill="#FDFDFD" opacity="1.000000" stroke="none" 
	d="
M64.105820,39.425362 
	C64.787491,38.983185 65.499428,38.984116 66.567139,38.998646 
	C66.844986,40.265614 66.767052,41.518982 66.689110,42.772350 
	C66.301834,42.892536 65.914558,43.012718 65.527283,43.132904 
	C65.063545,42.044758 64.599808,40.956612 64.105820,39.425362 
z"/>
<path fill="#151515" opacity="1.000000" stroke="none" 
	d="
M41.136703,28.859005 
	C40.573895,28.269726 40.285034,27.490242 39.973099,26.364771 
	C40.436905,26.902124 40.923775,27.785461 41.136703,28.859005 
z"/>
<path fill="#D6D6D6" opacity="1.000000" stroke="none" 
	d="
M20.253101,38.922020 
	C20.281874,38.056110 20.587025,37.259735 20.892176,36.463360 
	C21.129063,37.175770 21.365952,37.888184 21.350828,38.782486 
	C20.909039,38.973434 20.719261,38.982491 20.253101,38.922020 
z"/>
<path fill="#0F0F0F" opacity="1.000000" stroke="none" 
	d="
M24.888695,66.968529 
	C24.491167,67.201477 24.095877,67.111801 23.396481,67.027679 
	C22.727772,66.728172 22.363167,66.423111 21.998562,66.118042 
	C22.962687,66.293991 23.926809,66.469948 24.888695,66.968529 
z"/>
<path fill="#D6D6D6" opacity="1.000000" stroke="none" 
	d="
M21.486328,41.129265 
	C21.985746,41.493435 22.359421,42.052826 22.534546,42.754166 
	C22.010860,42.372238 21.685724,41.848362 21.486328,41.129265 
z"/>
<path fill="#D6D6D6" opacity="1.000000" stroke="none" 
	d="
M22.383095,45.227566 
	C22.862558,45.529186 23.228899,46.119518 23.366421,46.833878 
	C22.848391,46.477360 22.559181,45.996819 22.383095,45.227566 
z"/>
<path fill="#D6D6D6" opacity="1.000000" stroke="none" 
	d="
M41.297333,68.826881 
	C41.077259,68.355011 41.075336,67.688454 41.345814,66.984383 
	C41.583969,67.508644 41.549725,68.070419 41.297333,68.826881 
z"/>
<path fill="#0F0F0F" opacity="1.000000" stroke="none" 
	d="
M18.109108,60.897350 
	C17.741577,60.463978 17.623867,59.877079 17.655640,59.111366 
	C17.989725,59.536312 18.174328,60.140068 18.109108,60.897350 
z"/>
<path fill="#FDFDFD" opacity="1.000000" stroke="none" 
	d="
M67.356010,45.408970 
	C66.732010,45.926918 66.108170,45.950817 65.017593,45.932735 
	C64.905792,44.976498 65.260712,44.062241 65.615623,43.147984 
	C66.195801,43.736965 66.775978,44.325943 67.356010,45.408970 
z"/>
<path fill="#D6D6D6" opacity="1.000000" stroke="none" 
	d="
M23.416975,49.206219 
	C23.903067,49.537445 24.224724,50.141747 24.313210,50.860687 
	C23.804207,50.476646 23.528374,49.977970 23.416975,49.206219 
z"/>
<path fill="#0F0F0F" opacity="1.000000" stroke="none" 
	d="
M23.022930,60.970085 
	C23.146183,61.418190 23.269436,61.866295 23.392689,62.314400 
	C23.263803,62.044697 23.134918,61.774998 23.001682,61.253052 
	C22.997330,61.000805 23.022930,60.970085 23.022930,60.970085 
z"/>
<path fill="#0F0F0F" opacity="1.000000" stroke="none" 
	d="
M22.981773,61.013447 
	C22.853252,60.873257 22.740292,60.720425 22.627329,60.567593 
	C22.716782,60.613022 22.806234,60.658455 22.959309,60.836987 
	C23.022930,60.970085 22.997330,61.000805 22.981773,61.013447 
z"/>
<path fill="#FBFBFB" opacity="1.000000" stroke="none" 
	d="
M28.855366,79.710297 
	C28.515062,79.832649 28.307482,79.617256 28.104055,79.110634 
	C28.323315,79.079140 28.616608,79.263519 28.855366,79.710297 
z"/>
<path fill="#101010" opacity="1.000000" stroke="none" 
	d="
M34.096313,13.682804 
	C34.159748,13.497097 34.674431,13.410989 35.329628,13.581171 
	C35.162613,13.819109 34.855087,13.800756 34.096313,13.682804 
z"/>
<path fill="#E6E6E6" opacity="1.000000" stroke="none" 
	d="
M98.088913,49.937576 
	C97.000252,50.894669 95.922356,52.739922 94.874741,52.722885 
	C91.510689,52.668175 91.429718,54.952328 90.666679,57.141468 
	C90.240715,58.363579 89.025017,59.310421 88.165192,60.381310 
	C87.173096,59.421898 85.639900,58.631275 85.279182,57.474918 
	C83.343170,51.268482 82.082008,44.950253 84.187820,38.008892 
	C88.142921,42.833271 88.136711,51.664997 97.746521,50.112946 
	C98.183983,50.023582 98.113533,49.973198 98.088913,49.937576 
z"/>
<path fill="#F8F8F8" opacity="1.000000" stroke="none" 
	d="
M114.993584,23.992050 
	C115.867935,22.806179 116.742287,21.620308 117.317841,20.186306 
	C117.019051,19.938177 117.004539,20.005243 117.241943,20.278217 
	C117.302818,19.859793 117.126297,19.168394 116.949776,18.476994 
	C116.949776,18.476994 117.018837,18.404371 117.032288,18.393476 
	C119.905998,17.007681 122.851997,15.785122 125.611755,14.231700 
	C138.063721,7.222679 152.511841,11.452375 158.252228,23.912613 
	C158.720520,24.929081 158.850601,26.101353 158.881454,27.713926 
	C158.892548,28.830076 159.160004,29.433529 159.427475,30.036982 
	C160.258667,34.323517 157.924713,38.266148 157.599243,41.963444 
	C156.999557,48.775978 153.326065,53.291237 149.778473,58.725529 
	C147.467117,60.217518 145.727539,61.513042 143.987976,62.808571 
	C139.274658,63.855988 134.587234,65.058029 129.831802,65.853806 
	C128.457825,66.083733 126.888512,65.146286 124.996384,64.139282 
	C123.916618,63.409271 123.249214,63.283997 122.581802,63.158718 
	C118.719162,60.730099 114.856529,58.301479 111.136154,55.491913 
	C111.549225,54.998196 111.820030,54.885422 112.090836,54.772644 
	C111.953804,54.632782 111.711441,54.359852 111.695267,54.372658 
	C111.358833,54.638981 111.048058,54.937706 110.732224,55.230038 
	C106.399902,49.398296 107.663971,43.033031 109.119957,36.730690 
	C109.889183,33.401047 111.093750,30.171986 112.444305,26.411263 
	C113.522430,25.280693 114.258003,24.636372 114.993584,23.992050 
M150.107437,35.267124 
	C150.189011,35.317181 150.270584,35.367237 150.352158,35.417294 
	C150.233414,35.279232 150.114670,35.141174 149.994217,34.403114 
	C150.001633,34.003181 150.009048,33.603252 150.736664,32.958527 
	C151.842285,32.254204 152.947891,31.549877 154.928650,30.288048 
	C149.048904,30.002829 144.427750,29.778664 139.130737,29.521713 
	C139.751511,32.467083 140.350235,35.307892 141.004578,38.694099 
	C141.682419,38.632812 142.360245,38.571522 143.428787,37.877651 
	C144.953415,36.588112 146.478058,35.298576 148.340637,34.494087 
	C148.894791,34.661373 149.448929,34.828659 150.107437,35.267124 
M134.536652,35.819153 
	C134.114029,35.548492 133.691422,35.277828 132.934708,34.316505 
	C132.056122,32.311031 131.177551,30.305557 130.230148,28.142962 
	C129.463135,28.950674 128.533585,29.929556 127.678246,30.830282 
	C125.400780,29.783016 123.377075,28.852442 121.353371,27.921865 
	C121.090897,28.212305 120.828430,28.502747 120.565956,28.793188 
	C123.040230,31.506176 125.514496,34.219162 128.515686,37.509911 
	C129.189941,37.573895 130.999191,37.745594 133.483841,37.896069 
	C133.987671,37.262844 134.491486,36.629620 135.268906,35.893665 
	C135.180481,35.930672 135.092056,35.967678 134.536652,35.819153 
M133.927078,55.271389 
	C133.277039,55.376659 132.627014,55.481930 131.328308,55.693958 
	C130.891403,55.670868 130.454483,55.647778 129.932022,55.064793 
	C129.334915,54.707138 128.737793,54.349483 127.761742,53.421577 
	C123.795753,48.780315 119.829773,44.139053 115.585258,39.171833 
	C114.810425,40.707558 113.732841,42.843330 111.993385,45.168240 
	C112.272575,46.797192 112.551773,48.426147 113.414207,50.220398 
	C113.601212,50.296944 113.788223,50.373489 114.110954,51.015583 
	C114.741745,51.283352 115.372536,51.551117 116.003334,51.818886 
	C115.970192,51.142879 115.937050,50.466869 115.979614,49.078339 
	C117.097908,49.439560 118.385414,49.560806 119.302437,50.207455 
	C121.946465,52.071896 124.441048,54.148254 127.044006,56.692795 
	C127.669907,56.870201 128.295807,57.047607 129.730301,57.214680 
	C133.617996,60.203522 137.847656,59.658367 142.073715,59.056980 
	C142.277878,59.345284 142.482040,59.633587 142.686203,59.921890 
	C142.619537,59.348850 142.552856,58.775814 142.947983,57.761612 
	C144.329941,56.496521 145.711899,55.231434 147.559341,53.606850 
	C147.332443,53.121834 147.105545,52.636818 146.878662,52.151798 
	C146.247955,52.694363 145.617233,53.236927 144.229996,53.991463 
	C140.823807,54.597580 137.417603,55.203697 133.927078,55.271389 
M123.313644,60.293633 
	C123.641518,60.619091 123.969383,60.944546 124.297256,61.270004 
	C124.471436,60.894787 124.645615,60.519566 124.819794,60.144352 
	C124.342148,60.011806 123.864510,59.879261 123.313644,60.293633 
z"/>
<path fill="#919191" opacity="1.000000" stroke="none" 
	d="
M114.712395,23.913315 
	C114.258003,24.636372 113.522430,25.280693 112.461914,26.007298 
	C111.956657,25.759022 111.776337,25.428467 111.314545,25.068913 
	C110.957726,23.939804 110.882378,22.839699 111.197014,21.473572 
	C112.051323,21.176865 112.515663,21.146177 112.979996,21.115490 
	C113.196648,21.419027 113.413292,21.722567 113.901680,22.120382 
	C114.259354,22.754631 114.345276,23.294605 114.712395,23.913315 
z"/>
<path fill="#ECECEC" opacity="1.000000" stroke="none" 
	d="
M144.330231,62.865639 
	C145.727539,61.513042 147.467117,60.217518 149.512817,58.953968 
	C148.103455,60.298195 146.387970,61.610451 144.330231,62.865639 
z"/>
<path fill="#E9E9E9" opacity="1.000000" stroke="none" 
	d="
M159.523300,29.772289 
	C159.160004,29.433529 158.892548,28.830076 158.854218,28.098587 
	C159.261948,28.482899 159.440536,28.995247 159.523300,29.772289 
z"/>
<path fill="#ECECEC" opacity="1.000000" stroke="none" 
	d="
M122.811440,63.406601 
	C123.249214,63.283997 123.916618,63.409271 124.798294,63.812584 
	C124.355400,63.945236 123.698235,63.799858 122.811440,63.406601 
z"/>
<path fill="#FBFBFB" opacity="1.000000" stroke="none" 
	d="
M112.835175,20.858747 
	C112.515663,21.146177 112.051323,21.176865 111.237419,21.251427 
	C111.488686,21.064201 112.089516,20.833103 112.835175,20.858747 
z"/>
<path fill="#181818" opacity="1.000000" stroke="none" 
	d="
M116.927872,18.862797 
	C117.126297,19.168394 117.302818,19.859793 117.208519,20.285997 
	C116.927116,19.763403 116.916542,19.506002 116.927872,18.862797 
z"/>
<path fill="#D6D6D6" opacity="1.000000" stroke="none" 
	d="
M41.479885,57.447472 
	C41.542370,57.409725 41.417400,57.485218 41.479885,57.447472 
z"/>
<path fill="#181818" opacity="1.000000" stroke="none" 
	d="
M112.655258,44.979107 
	C113.732841,42.843330 114.810425,40.707558 115.585258,39.171833 
	C119.829773,44.139053 123.795753,48.780315 127.818054,53.993004 
	C127.581017,55.090076 127.287674,55.615726 126.994324,56.141380 
	C124.441048,54.148254 121.946465,52.071896 119.302437,50.207455 
	C118.385414,49.560806 117.097908,49.439560 115.612335,49.520172 
	C114.821785,50.124683 114.398514,50.287357 113.975235,50.450035 
	C113.788223,50.373489 113.601212,50.296944 113.082077,49.715340 
	C112.718376,47.799889 112.686821,46.389500 112.655258,44.979107 
z"/>
<path fill="#151515" opacity="1.000000" stroke="none" 
	d="
M140.948959,38.148701 
	C140.350235,35.307892 139.751511,32.467083 139.130737,29.521713 
	C144.427750,29.778664 149.048904,30.002829 154.928650,30.288048 
	C152.947891,31.549877 151.842285,32.254204 150.085022,33.032551 
	C148.956482,33.407398 148.479599,33.708221 148.002701,34.009041 
	C146.478058,35.298576 144.953415,36.588112 142.888031,38.118114 
	C141.881165,38.288620 141.415070,38.218658 140.948959,38.148701 
z"/>
<path fill="#181818" opacity="1.000000" stroke="none" 
	d="
M132.808441,37.917294 
	C130.999191,37.745594 129.189941,37.573895 128.515686,37.509911 
	C125.514496,34.219162 123.040230,31.506176 120.565956,28.793188 
	C120.828430,28.502747 121.090897,28.212305 121.353371,27.921865 
	C123.377075,28.852442 125.400780,29.783016 127.678246,30.830282 
	C128.533585,29.929556 129.463135,28.950674 130.230148,28.142962 
	C131.177551,30.305557 132.056122,32.311031 133.039734,35.025280 
	C133.032654,36.461800 132.920547,37.189545 132.808441,37.917294 
z"/>
<path fill="#0D0D0D" opacity="1.000000" stroke="none" 
	d="
M142.144791,58.415932 
	C137.847656,59.658367 133.617996,60.203522 129.321609,56.862480 
	C129.281143,56.215088 129.649353,55.919888 130.017578,55.624691 
	C130.454483,55.647778 130.891403,55.670868 131.974609,55.779198 
	C133.084412,55.846233 133.547913,55.828026 134.011414,55.809814 
	C137.417603,55.203697 140.823807,54.597580 144.956787,53.941948 
	C146.153687,53.917076 146.623779,53.941711 147.093872,53.966347 
	C145.711899,55.231434 144.329941,56.496521 142.629608,58.031853 
	C142.311249,58.302097 142.144791,58.415932 142.144791,58.415932 
z"/>
<path fill="#ECECEC" opacity="1.000000" stroke="none" 
	d="
M112.324326,45.073673 
	C112.686821,46.389500 112.718376,47.799889 112.790451,49.632690 
	C112.551773,48.426147 112.272575,46.797192 112.324326,45.073673 
z"/>
<path fill="#ECECEC" opacity="1.000000" stroke="none" 
	d="
M129.974792,55.344742 
	C129.649353,55.919888 129.281143,56.215088 128.917313,56.867649 
	C128.295807,57.047607 127.669907,56.870201 127.019165,56.417084 
	C127.287674,55.615726 127.581017,55.090076 128.007523,54.278130 
	C128.737793,54.349483 129.334915,54.707138 129.974792,55.344742 
z"/>
<path fill="#ECECEC" opacity="1.000000" stroke="none" 
	d="
M147.326599,53.786598 
	C146.623779,53.941711 146.153687,53.917076 145.335052,53.835968 
	C145.617233,53.236927 146.247955,52.694363 146.878662,52.151798 
	C147.105545,52.636818 147.332443,53.121834 147.326599,53.786598 
z"/>
<path fill="#ECECEC" opacity="1.000000" stroke="none" 
	d="
M123.350250,60.020176 
	C123.864510,59.879261 124.342148,60.011806 124.819794,60.144348 
	C124.645615,60.519566 124.471436,60.894787 124.297256,61.270004 
	C123.969383,60.944546 123.641518,60.619091 123.350250,60.020176 
z"/>
<path fill="#ECECEC" opacity="1.000000" stroke="none" 
	d="
M114.043091,50.732811 
	C114.398514,50.287357 114.821785,50.124683 115.574486,49.876434 
	C115.937050,50.466869 115.970192,51.142879 116.003326,51.818886 
	C115.372536,51.551117 114.741745,51.283352 114.043091,50.732811 
z"/>
<path fill="#E9E9E9" opacity="1.000000" stroke="none" 
	d="
M133.146149,37.906681 
	C132.920547,37.189545 133.032654,36.461800 133.206787,35.370613 
	C133.691422,35.277828 134.114029,35.548492 134.768326,35.909576 
	C135.000000,36.000000 134.995300,35.996391 134.995300,35.996391 
	C134.491486,36.629620 133.987671,37.262844 133.146149,37.906681 
z"/>
<path fill="#E9E9E9" opacity="1.000000" stroke="none" 
	d="
M148.171661,34.251564 
	C148.479599,33.708221 148.956482,33.407398 149.724915,33.154945 
	C150.009048,33.603252 150.001633,34.003181 149.997101,34.701557 
	C150.000000,35.000000 150.003082,34.995945 150.003082,34.995945 
	C149.448929,34.828659 148.894791,34.661373 148.171661,34.251564 
z"/>
<path fill="#ECECEC" opacity="1.000000" stroke="none" 
	d="
M133.969238,55.540604 
	C133.547913,55.828026 133.084412,55.846233 132.298950,55.725822 
	C132.627014,55.481930 133.277039,55.376659 133.969238,55.540604 
z"/>
<path fill="#E9E9E9" opacity="1.000000" stroke="none" 
	d="
M140.976776,38.421402 
	C141.415070,38.218658 141.881165,38.288620 142.692688,38.434406 
	C142.360245,38.571522 141.682419,38.632812 140.976776,38.421402 
z"/>
<path fill="#ECECEC" opacity="1.000000" stroke="none" 
	d="
M110.789429,55.156570 
	C111.048058,54.937706 111.358833,54.638981 111.695267,54.372658 
	C111.711441,54.359852 111.953804,54.632782 112.090836,54.772644 
	C111.820030,54.885422 111.549225,54.998196 111.013657,55.174435 
	C110.748901,55.237904 110.846642,55.083103 110.789429,55.156570 
z"/>
<path fill="#ECECEC" opacity="1.000000" stroke="none" 
	d="
M142.109253,58.736458 
	C142.144791,58.415932 142.311249,58.302097 142.398712,58.252434 
	C142.552856,58.775814 142.619537,59.348850 142.686203,59.921890 
	C142.482040,59.633587 142.277878,59.345284 142.109253,58.736458 
z"/>
<path fill="#E9E9E9" opacity="1.000000" stroke="none" 
	d="
M149.997955,35.001556 
	C150.114670,35.141174 150.233414,35.279232 150.352158,35.417294 
	C150.270584,35.367237 150.189011,35.317181 150.055267,35.131535 
	C150.003082,34.995945 150.000000,35.000000 149.997955,35.001556 
z"/>
<path fill="#E9E9E9" opacity="1.000000" stroke="none" 
	d="
M135.001816,36.002342 
	C135.092056,35.967678 135.180481,35.930672 135.132111,35.945030 
	C134.995300,35.996391 135.000000,36.000000 135.001816,36.002342 
z"/>
</svg>