<svg version="1.1" id="Layer_1" xmlns="http://www.w3.org/2000/svg" xmlns:xlink="http://www.w3.org/1999/xlink" x="0px" y="0px"
	 width="100%" viewBox="0 0 480 360" enable-background="new 0 0 480 360" xml:space="preserve">
<path fill="#FFFFFE" opacity="1.000000" stroke="none" 
	d="
M297.000000,361.000000 
	C198.000015,361.000000 99.500023,361.000000 1.000026,361.000000 
	C1.000018,241.000031 1.000018,121.000053 1.000009,1.000059 
	C160.999954,1.000039 320.999908,1.000039 480.999908,1.000020 
	C480.999939,120.999939 480.999939,240.999878 480.999969,360.999908 
	C419.833344,361.000000 358.666656,361.000000 297.000000,361.000000 
M376.500000,222.695999 
	C399.998505,222.695847 423.497620,222.608963 446.994934,222.775711 
	C451.211853,222.805634 452.833710,221.805862 452.796234,217.233032 
	C452.603638,193.737442 452.773132,170.239105 452.747070,146.741791 
	C452.738342,138.876511 452.644989,138.879471 444.710999,138.879868 
	C311.384583,138.886429 178.058182,138.891983 44.731766,138.899475 
	C40.898960,138.899689 37.065777,138.955261 33.233475,138.916138 
	C30.611958,138.889389 29.239698,139.861313 29.245646,142.723022 
	C29.298296,168.054321 29.304482,193.385818 29.258385,218.717133 
	C29.253452,221.425934 30.195498,222.790817 33.018921,222.674210 
	C34.848358,222.598663 36.684410,222.694550 38.517498,222.694580 
	C150.845001,222.696136 263.172485,222.695709 376.500000,222.695999 
z"/>
<path fill="#FCE00A" opacity="1.000000" stroke="none" 
	d="
M376.000000,222.695740 
	C263.172485,222.695709 150.845001,222.696136 38.517498,222.694580 
	C36.684410,222.694550 34.848358,222.598663 33.018921,222.674210 
	C30.195498,222.790817 29.253452,221.425934 29.258385,218.717133 
	C29.304482,193.385818 29.298296,168.054321 29.245646,142.723022 
	C29.239698,139.861313 30.611958,138.889389 33.233475,138.916138 
	C37.065777,138.955261 40.898960,138.899689 44.731766,138.899475 
	C178.058182,138.891983 311.384583,138.886429 444.710999,138.879868 
	C452.644989,138.879471 452.738342,138.876511 452.747070,146.741791 
	C452.773132,170.239105 452.603638,193.737442 452.796234,217.233032 
	C452.833710,221.805862 451.211853,222.805634 446.994934,222.775711 
	C423.497620,222.608963 399.998505,222.695847 376.000000,222.695740 
M75.712311,200.063782 
	C76.158653,199.730652 76.604996,199.397537 77.799751,199.020569 
	C80.251266,197.401611 82.702782,195.782654 85.736671,193.999878 
	C86.177521,193.614456 86.618370,193.229034 87.622665,192.463882 
	C90.328964,190.926804 93.035255,189.389740 96.504791,187.924591 
	C97.717789,186.932724 98.930794,185.940872 100.259476,184.827606 
	C100.259476,184.827606 100.417519,184.883713 101.238571,184.934692 
	C103.039986,184.214081 104.933121,183.652390 106.596443,182.692490 
	C107.237167,182.322754 107.355324,181.047485 107.711571,180.184799 
	C106.740555,179.852264 105.769539,179.519730 104.956810,179.089386 
	C104.956810,179.089386 104.834358,179.229477 104.854950,178.468567 
	C103.557884,177.975388 102.260818,177.482208 100.510635,176.937820 
	C100.197968,176.845047 99.975197,176.649734 99.890007,175.605392 
	C97.531700,174.463806 95.173386,173.322220 92.917564,172.108719 
	C92.917564,172.108719 92.879906,172.228134 92.706375,171.671204 
	C92.353912,171.627136 92.001450,171.583069 91.615341,171.458618 
	C91.615341,171.458618 91.540756,171.503677 91.556190,170.800735 
	C90.937912,170.659561 90.319626,170.518387 89.886215,170.101135 
	C89.886215,170.101135 89.744507,170.401657 89.610291,169.696854 
	C86.411575,167.476868 83.212852,165.256882 79.333427,162.716339 
	C78.408424,162.730820 77.483414,162.745300 76.479393,162.650558 
	C76.479393,162.650558 76.344589,162.648300 76.475037,161.886841 
	C75.549103,161.629333 74.623169,161.371826 73.319397,161.101822 
	C73.319397,161.101822 73.044792,160.841980 72.935768,160.216248 
	C72.455986,160.089050 71.976196,159.961868 71.419830,159.815659 
	C71.419830,159.815659 71.344917,159.790802 71.629868,159.057236 
	C67.241203,156.161392 62.852547,153.265549 58.141525,150.156998 
	C57.208492,154.688019 62.301888,159.853699 67.155113,160.786804 
	C67.155113,160.786804 67.185471,160.791550 66.987099,161.491440 
	C64.276215,163.948090 61.565323,166.404724 58.145504,169.034836 
	C52.273293,171.417969 53.381203,176.925110 53.530064,181.268311 
	C53.614220,183.723801 52.306618,188.033539 56.918747,189.833908 
	C57.570477,190.598831 58.222202,191.363770 59.228821,192.720123 
	C61.524250,194.709625 63.819675,196.699127 66.400269,198.935791 
	C64.141068,200.370544 61.611145,201.622559 59.566437,203.425003 
	C58.540611,204.329285 58.165035,206.210388 58.003014,207.704773 
	C57.956448,208.134277 60.196796,209.429337 60.511963,209.187073 
	C64.721313,205.951462 71.093979,206.302979 74.485527,200.857513 
	C74.761559,200.682861 74.982780,200.455002 75.712311,200.063782 
M157.902618,191.894836 
	C157.902618,191.894836 157.799774,191.857971 158.515259,191.899033 
	C158.959488,191.199265 159.403702,190.499496 159.888412,189.899979 
	C159.888412,189.899979 159.780441,189.894547 160.490707,189.754959 
	C161.313461,188.148453 162.136215,186.541946 162.995010,184.996567 
	C162.995010,184.996567 162.930817,184.966248 163.713470,184.998627 
	C164.444717,183.620667 165.175949,182.242706 166.247162,180.218674 
	C167.117950,177.591202 168.411072,175.007599 168.690262,172.318695 
	C168.841141,170.865402 167.259979,169.232269 166.428589,167.550705 
	C166.428589,167.550705 166.315231,167.480453 166.503265,166.738388 
	C164.357132,165.850311 162.231171,164.256989 160.061447,164.194992 
	C150.128891,163.911209 140.183456,163.998367 130.244446,164.111282 
	C128.788651,164.127823 127.342583,164.999863 125.308411,165.736160 
	C124.929283,165.930008 124.550148,166.123871 123.842316,165.887100 
	C123.628403,166.648880 123.414482,167.410675 123.102348,168.102188 
	C123.102348,168.102188 123.222916,168.095322 122.551437,168.448639 
	C122.807091,172.375870 123.062744,176.303116 123.058937,180.203888 
	C123.058937,180.203888 123.311401,180.269440 122.529747,180.247650 
	C122.037994,181.867142 121.546242,183.486618 120.910423,185.857422 
	C119.952667,187.074814 118.863586,189.416321 118.059044,189.322311 
	C113.702469,188.813339 112.395927,191.651199 111.230446,195.301224 
	C111.530884,195.519516 111.831314,195.737793 112.050430,195.959961 
	C112.050430,195.959961 112.066711,195.880188 112.085800,196.551941 
	C125.379936,196.641602 138.676544,196.872452 151.965042,196.640244 
	C153.605179,196.611588 155.202179,194.114761 156.873062,192.855576 
	C156.873062,192.855576 156.764801,192.854172 157.339386,192.754379 
	C157.524673,192.431534 157.709946,192.108688 157.902618,191.894836 
M207.573517,188.693558 
	C208.021866,187.306396 208.470230,185.919235 208.872604,184.259888 
	C208.872604,184.259888 209.068253,184.065140 209.757996,183.925293 
	C211.192780,180.981918 212.627548,178.038528 214.681061,174.698212 
	C218.113022,173.738754 221.544968,172.779297 225.320648,172.447357 
	C226.242310,172.628098 227.163956,172.808853 228.004669,173.782913 
	C226.950806,176.777374 225.693497,179.718597 224.892410,182.779221 
	C223.785690,187.007584 221.795624,190.036713 216.906845,189.829437 
	C216.637024,190.228104 216.367203,190.626755 215.535172,191.379593 
	C215.089966,192.587372 214.644745,193.795151 213.860184,195.522491 
	C216.977432,197.699646 228.562485,197.600754 232.208603,195.491028 
	C232.208603,195.491028 232.372025,195.689514 233.192139,195.817642 
	C234.115189,194.682404 235.549240,193.655502 235.819336,192.381790 
	C236.096161,191.076370 235.113266,189.545975 234.911942,188.082382 
	C234.775146,187.087830 235.035019,186.038696 235.117493,185.013977 
	C236.125793,185.547699 237.375916,185.866516 238.085907,186.665375 
	C239.157272,187.870880 240.444351,189.347717 240.602722,190.820724 
	C241.257614,196.912064 245.679977,196.842606 250.207153,198.061539 
	C256.618652,199.787796 265.082367,188.458237 263.959656,182.310654 
	C264.009979,181.869568 264.060333,181.428467 264.796875,180.861954 
	C267.822235,177.450958 269.402740,172.934784 274.479523,171.097870 
	C277.161072,170.127625 276.398010,164.486160 273.851471,164.344238 
	C268.578979,164.050354 263.205078,164.054901 257.991089,164.783096 
	C254.685318,165.244812 253.889572,168.633286 255.943604,171.428619 
	C255.943604,171.428619 256.010071,171.799088 256.058868,172.573059 
	C256.383942,174.070114 256.709015,175.567154 257.001648,177.008530 
	C257.001648,177.008530 257.066071,177.008636 256.454742,177.267838 
	C251.951004,177.101517 250.687897,173.324295 249.696594,170.213760 
	C248.123062,165.276398 244.895752,163.769150 240.326508,164.104004 
	C234.964523,164.496979 229.611816,165.645340 224.269608,165.559677 
	C209.201813,165.318069 194.143494,164.536011 179.077042,164.130569 
	C173.741409,163.986984 172.066452,166.843979 174.389008,172.660477 
	C174.399460,174.150879 174.717010,175.719772 174.360046,177.116257 
	C173.459122,180.640976 172.254547,184.088058 171.296371,187.775909 
	C171.296371,187.775909 171.151764,187.972397 170.436340,188.064850 
	C168.536301,191.977524 170.914658,196.305801 176.045258,196.689468 
	C183.239624,197.227448 190.516632,197.111740 197.725037,196.697250 
	C199.557709,196.591873 201.264709,194.301422 203.008301,193.004486 
	C203.008301,193.004486 203.007370,193.027664 203.771729,193.065750 
	C204.811661,191.671051 205.851578,190.276352 206.952942,188.962906 
	C206.952942,188.962906 206.853500,188.940872 207.573517,188.693558 
M358.557251,193.400314 
	C360.541016,194.018021 358.498199,199.572693 363.772766,197.041245 
	C364.507141,197.028244 365.241547,197.015228 366.915405,197.019348 
	C372.941956,197.037186 378.968475,197.055008 385.303406,197.492126 
	C385.868256,197.345016 386.433105,197.197891 387.508209,197.025070 
	C387.678131,197.013947 387.848053,197.002808 388.783051,196.906418 
	C395.831848,195.615570 392.015930,190.391068 392.364685,185.915329 
	C395.804993,185.915329 399.174011,186.102982 402.512421,185.863297 
	C405.945648,185.616791 409.472717,185.353714 412.726959,184.347977 
	C415.420990,183.515427 417.911438,181.658966 416.050842,177.444122 
	C416.393860,177.008682 416.736908,176.573242 417.761841,175.917953 
	C419.518768,173.105194 423.167114,170.543396 418.748749,166.808258 
	C418.748749,166.808258 418.715881,166.568008 418.634369,165.737488 
	C417.035187,165.177841 415.441376,164.151749 413.835938,164.133118 
	C402.099854,163.996857 390.361328,164.035767 378.624054,164.104507 
	C377.376770,164.111801 376.132721,164.667389 374.225037,164.987320 
	C373.515289,165.383591 372.805511,165.779861 372.100250,166.602951 
	C372.100250,166.602951 372.067993,167.028580 371.495239,167.060242 
	C370.649750,168.388443 369.804291,169.716629 368.580933,170.617065 
	C368.810486,167.745392 367.873047,165.995346 364.837860,166.031860 
	C364.771332,166.187012 364.704803,166.342163 364.558868,165.773636 
	C361.425629,163.115616 357.734375,163.593811 353.893982,163.263382 
	C347.557129,163.181961 341.000763,162.079666 334.960693,163.378494 
	C330.942932,164.242447 324.685608,163.997284 323.422302,170.450317 
	C323.422302,170.450317 323.423523,170.547424 322.849213,170.411148 
	C322.788452,170.737381 322.727692,171.063599 322.567322,171.504730 
	C322.567322,171.504730 322.493317,171.637589 321.781219,171.413025 
	C320.507172,174.182999 319.233093,176.952957 317.571716,180.044891 
	C317.411774,180.095901 317.251862,180.146896 316.807556,179.694931 
	C316.200714,179.825134 315.593872,179.955353 314.492767,179.974884 
	C314.326721,179.944260 314.160706,179.913620 313.577820,179.418594 
	C311.723389,179.621811 309.868988,179.825027 307.433899,180.369400 
	C303.218292,182.233078 301.621918,188.354767 295.644287,187.855667 
	C296.076721,185.184219 296.457825,182.829834 296.781708,180.263733 
	C296.781708,180.263733 296.946747,180.119278 297.631989,179.945038 
	C300.632660,177.373062 303.874084,175.022629 306.531525,172.134781 
	C307.842407,170.710220 308.074738,168.293152 308.795105,166.325195 
	C307.174561,165.856979 305.578583,165.124481 303.928772,164.970871 
	C299.255798,164.535751 294.549225,164.000992 289.878296,164.160614 
	C286.588806,164.273010 283.335907,165.455856 280.033478,166.882584 
	C279.827484,168.523651 279.621521,170.164719 278.942963,172.124130 
	C279.398987,173.319595 280.272644,174.533768 280.220062,175.706421 
	C280.124359,177.841782 279.478973,179.952515 279.016937,182.010666 
	C279.016937,182.010666 279.094360,182.019135 278.511963,182.325424 
	C278.398499,182.945328 278.285034,183.565231 278.104919,184.041733 
	C278.104919,184.041733 278.221558,184.148499 277.470062,184.126755 
	C275.342102,185.471115 273.054230,186.626175 271.149902,188.235199 
	C270.109650,189.114151 269.718689,190.761581 268.998138,192.009888 
	C268.998138,192.009888 269.060547,192.024750 268.368317,191.980591 
	C267.494507,192.089325 266.620697,192.198074 264.212128,192.497833 
	C266.207703,194.122864 267.279419,194.995590 268.689636,195.782394 
	C268.689636,195.782394 268.987274,195.965179 269.472748,196.576462 
	C273.024139,197.044937 276.578674,197.926437 280.126343,197.899658 
	C288.654541,197.835281 297.185059,197.435349 305.699249,196.917526 
	C306.819946,196.849365 307.850586,195.300308 308.800140,194.254791 
	C308.800140,194.254791 308.938019,194.083527 309.576477,193.741013 
	C310.008026,192.449829 310.439545,191.158661 310.959900,189.991638 
	C310.959900,189.991638 310.841034,189.895844 311.476807,189.900467 
	C312.183105,189.523544 312.889435,189.146622 313.591583,188.761856 
	C316.941986,196.696365 316.941986,196.696365 327.534821,197.589661 
	C330.730042,197.685654 333.925262,197.781662 337.705475,197.930679 
	C338.097809,197.912582 338.490112,197.894485 339.359344,198.424377 
	C342.590485,197.955139 345.821655,197.485901 349.776917,196.925964 
	C351.814758,195.564026 353.852631,194.202072 355.953491,192.975067 
	C355.953491,192.975067 355.850494,192.867477 356.561554,193.000885 
	C357.042999,192.994995 357.524445,192.989090 358.557251,193.400314 
z"/>
<path fill="#100B05" opacity="1.000000" stroke="none" 
	d="
M124.171021,166.317719 
	C124.550148,166.123871 124.929283,165.930008 126.054298,165.761993 
	C137.593613,165.803314 148.388672,165.722977 159.179169,165.908707 
	C161.566177,165.949783 163.936966,166.931732 166.315231,167.480453 
	C166.315231,167.480453 166.428589,167.550705 166.543945,167.997681 
	C166.027283,172.593170 165.395248,176.741684 164.541107,181.125626 
	C163.856277,182.562790 163.393539,183.764511 162.930817,184.966248 
	C162.930817,184.966248 162.995010,184.996567 162.693115,185.137604 
	C161.520950,186.817276 160.650696,188.355911 159.780441,189.894547 
	C159.780441,189.894547 159.888412,189.899979 159.574951,189.937439 
	C158.774246,190.602585 158.287018,191.230286 157.799774,191.857971 
	C157.799774,191.857971 157.902618,191.894836 157.618607,191.903961 
	C157.144653,192.226791 156.954727,192.540482 156.764801,192.854172 
	C156.764801,192.854172 156.873062,192.855576 156.479034,192.869446 
	C152.299667,193.807404 148.539871,195.382217 144.724136,195.531998 
	C133.850525,195.958817 122.954140,195.805328 112.066711,195.880188 
	C112.066711,195.880188 112.050430,195.959961 111.950806,195.729889 
	C111.600899,195.247650 111.350624,194.995483 111.100349,194.743301 
	C112.395927,191.651199 113.702469,188.813339 118.059044,189.322311 
	C118.863586,189.416321 119.952667,187.074814 121.251740,185.272446 
	C122.165840,183.214783 122.738617,181.742111 123.311401,180.269440 
	C123.311401,180.269440 123.058937,180.203888 123.469696,180.009399 
	C125.025040,177.306503 126.169624,174.798096 127.314217,172.289688 
	C126.771233,172.369293 126.228256,172.448898 125.685272,172.528503 
	C124.864487,171.050781 124.043701,169.573044 123.222916,168.095322 
	C123.222916,168.095322 123.102348,168.102188 123.405212,168.010315 
	C123.862404,167.384872 124.016716,166.851303 124.171021,166.317719 
M138.997665,181.521423 
	C137.887817,184.018341 136.777969,186.515259 135.601181,189.162796 
	C143.791351,190.296249 145.205505,189.600876 148.408646,183.056625 
	C149.208435,181.422592 150.186584,179.722122 150.365875,177.978485 
	C150.572189,175.972336 150.423645,172.325836 149.660538,172.110031 
	C146.822281,171.307373 143.325790,170.535919 141.956924,174.919113 
	C141.318863,176.962250 140.180634,178.849197 138.997665,181.521423 
z"/>
<path fill="#0E0A05" opacity="1.000000" stroke="none" 
	d="
M317.091919,180.197906 
	C317.251862,180.146896 317.411774,180.095901 318.069580,179.753342 
	C319.876099,176.853729 321.184692,174.245651 322.493286,171.637573 
	C322.493317,171.637589 322.567322,171.504730 322.817596,171.390778 
	C323.324188,171.100906 323.442749,170.857773 323.423523,170.547424 
	C323.423523,170.547424 323.422302,170.450317 323.788940,170.353989 
	C327.789246,168.540298 331.422852,166.822922 335.493103,165.156525 
	C338.273102,165.060562 340.616425,164.913620 343.412720,164.833435 
	C346.913330,164.850433 349.960999,164.800674 353.427917,164.854340 
	C357.444214,165.470932 361.041260,165.984116 364.638275,166.497299 
	C364.704803,166.342163 364.771332,166.187012 364.906067,166.568298 
	C365.670563,168.961609 366.990845,170.845764 366.911102,172.668671 
	C366.802307,175.156097 365.626892,177.596848 364.833252,180.130280 
	C364.757782,180.202942 364.820007,180.403046 364.539795,180.644012 
	C362.024078,184.358963 359.788574,187.832932 357.483643,191.367218 
	C357.414215,191.427567 357.279510,191.552856 357.029846,191.621674 
	C356.470276,192.082825 356.160370,192.475143 355.850494,192.867477 
	C355.850494,192.867477 355.953491,192.975067 355.545837,192.977982 
	C352.997711,193.956406 350.857178,194.931915 348.612213,195.821289 
	C348.296051,195.736496 348.159210,195.838547 348.073334,196.018738 
	C348.049500,195.996185 348.021759,196.055664 347.643219,196.011963 
	C346.523071,196.098892 345.781494,196.229523 344.610931,196.337006 
	C342.480896,196.434265 340.779816,196.554703 338.829468,196.533020 
	C338.036499,196.490341 337.492798,196.589783 336.562531,196.607483 
	C333.772614,196.474335 331.369293,196.422913 328.566711,196.223083 
	C316.259735,195.275909 314.876862,193.593857 316.970490,182.466217 
	C316.999634,182.311493 316.941193,182.140305 317.019287,181.690491 
	C317.107269,181.002090 317.099609,180.599991 317.091919,180.197906 
M333.766144,181.433319 
	C333.213684,182.993607 332.189697,184.573776 332.254364,186.108047 
	C332.308411,187.390610 333.362640,189.335709 334.446716,189.749771 
	C339.490387,191.676270 344.218933,189.607788 346.318420,184.610565 
	C347.862213,180.935989 348.943298,177.067062 350.206085,173.356613 
	C342.129059,168.998657 339.620483,169.703644 335.811432,177.141312 
	C335.205688,178.324127 334.648773,179.531937 333.766144,181.433319 
z"/>
<path fill="#0E0A05" opacity="1.000000" stroke="none" 
	d="
M417.079956,176.137817 
	C416.736908,176.573242 416.393860,177.008682 415.825745,177.997711 
	C412.719788,180.101028 409.986053,182.433243 406.922180,183.009186 
	C402.773407,183.789062 398.339417,183.554214 394.086548,183.144455 
	C389.288208,182.682159 387.073975,184.634155 386.598328,189.311554 
	C388.111633,189.573380 389.509644,189.815247 392.282318,190.294937 
	C390.015778,192.656647 388.441498,194.297058 386.417480,195.835205 
	C379.305908,195.787613 372.644104,195.842285 365.620056,195.798767 
	C364.514496,195.742310 363.771088,195.784042 362.875671,195.753693 
	C362.723633,195.681625 362.420135,195.827042 362.263458,195.475494 
	C362.372559,191.623306 363.669647,189.315979 367.779297,189.698883 
	C368.444702,189.760864 369.221497,188.627121 370.138245,187.747955 
	C371.647247,185.110657 372.964783,182.771469 374.549469,180.194626 
	C375.982269,177.454605 377.147949,174.952240 378.514374,172.018860 
	C376.420624,171.675995 374.869324,171.421967 373.113464,171.134430 
	C373.541626,169.269012 373.899261,167.710938 374.462311,166.085083 
	C374.667725,166.017288 374.993561,165.732773 375.459717,165.784546 
	C385.735565,165.833710 395.546112,165.756256 405.354675,165.862183 
	C409.810425,165.910278 414.262268,166.321518 418.715881,166.568024 
	C418.715881,166.568008 418.748749,166.808258 418.858185,167.288513 
	C418.338409,170.558456 417.709167,173.348145 417.079956,176.137817 
M392.020630,176.705215 
	C397.720978,179.778564 401.640442,177.896210 401.542389,171.943985 
	C397.689240,171.545303 393.579620,170.328003 392.020630,176.705215 
z"/>
<path fill="#080504" opacity="1.000000" stroke="none" 
	d="
M264.110657,180.987381 
	C264.060333,181.428467 264.009979,181.869568 263.567993,182.789841 
	C261.863861,185.686554 260.459625,188.059753 259.264740,190.534073 
	C258.071381,193.005264 257.690063,196.042114 253.706665,195.650253 
	C249.481674,195.234619 244.770432,197.013504 242.445084,191.126480 
	C240.644348,186.567612 237.844849,182.403229 234.966934,177.100998 
	C232.799271,181.783600 231.206345,185.224655 229.613419,188.665710 
	C230.260223,188.703110 230.907028,188.740509 231.553833,188.777893 
	C231.826569,191.081772 232.099289,193.385635 232.372025,195.689514 
	C232.372025,195.689514 232.208603,195.491028 231.725372,195.270325 
	C225.561264,195.034042 219.880402,195.018478 214.199524,195.002930 
	C214.644745,193.795151 215.089966,192.587372 216.053589,191.200455 
	C216.904617,190.861725 217.046844,190.598999 216.998657,190.233139 
	C221.795624,190.036713 223.785690,187.007584 224.892410,182.779221 
	C225.693497,179.718597 226.950806,176.777374 228.359634,173.366776 
	C228.813324,170.649902 228.912064,168.349152 229.380966,165.982422 
	C230.499329,165.951874 231.247528,165.987335 232.274490,166.286713 
	C236.960785,166.717438 241.368317,166.884262 245.996033,167.345139 
	C248.771912,172.453995 251.327621,177.268814 254.417297,183.089584 
	C255.596481,180.382446 256.331268,178.695541 257.066071,177.008636 
	C257.066071,177.008636 257.001648,177.008530 257.312836,176.852081 
	C258.314056,175.215866 259.004120,173.736115 259.771973,172.089539 
	C258.247711,171.971848 257.128876,171.885468 256.010071,171.799088 
	C256.010071,171.799088 255.943604,171.428619 255.966736,170.845917 
	C257.598999,168.801331 259.060699,166.341171 260.846802,166.077362 
	C265.063263,165.454651 269.434174,165.877533 275.480438,165.877533 
	C273.215210,168.524368 272.057281,171.208694 270.474030,171.488815 
	C264.685669,172.512955 265.081177,177.087524 264.110657,180.987381 
z"/>
<path fill="#130D05" opacity="1.000000" stroke="none" 
	d="
M171.151764,187.972397 
	C171.151764,187.972397 171.296371,187.775909 171.495697,187.396912 
	C173.865402,182.101013 176.035797,177.184128 178.396988,171.835022 
	C176.856537,171.835022 176.060440,171.835022 174.942871,171.637421 
	C173.745972,167.752457 175.025360,165.792725 178.992630,165.821411 
	C185.150513,165.865952 191.310486,165.763580 197.465973,165.893906 
	C198.982437,165.926010 200.485001,166.615814 201.993942,167.003250 
	C201.408386,168.347122 200.822830,169.690994 199.925537,171.278931 
	C197.635651,172.279480 194.811279,172.470291 193.850830,173.907089 
	C191.670456,177.168869 190.207245,180.973358 188.893326,184.712158 
	C188.502029,185.825562 189.138702,188.128265 190.057053,188.722092 
	C193.082397,190.678421 198.786270,189.065628 200.485046,185.789551 
	C202.732925,181.454498 204.570541,176.906708 206.849472,171.863998 
	C205.101685,171.863998 204.158234,171.863998 203.021484,171.493530 
	C204.073013,169.360306 205.146591,166.263153 206.593857,166.077408 
	C211.531525,165.443649 216.600739,165.834778 222.064041,165.834778 
	C220.866379,169.250046 220.433289,172.303574 216.184341,171.797119 
	C215.506760,171.716354 214.666763,172.998184 213.663437,173.919647 
	C211.972763,177.481186 210.520508,180.773163 209.068253,184.065140 
	C209.068253,184.065140 208.872604,184.259888 208.612122,184.625275 
	C207.852280,186.307404 207.352905,187.624146 206.853516,188.940887 
	C206.853500,188.940872 206.952942,188.962906 206.633484,189.059036 
	C205.211823,190.445999 204.109604,191.736847 203.007385,193.027679 
	C203.007370,193.027664 203.008301,193.004486 202.644211,193.078003 
	C193.893478,197.052155 185.091812,196.228882 176.344330,195.208237 
	C172.339508,194.740952 170.965530,191.765701 171.151764,187.972397 
z"/>
<path fill="#130D05" opacity="1.000000" stroke="none" 
	d="
M279.415558,171.805786 
	C279.621521,170.164719 279.827484,168.523651 280.511627,166.463181 
	C289.816803,166.043777 298.643829,166.043777 308.445374,166.043777 
	C306.941620,168.305847 305.908508,171.203384 304.867065,171.206360 
	C298.583252,171.224380 298.533752,176.261703 296.946747,180.119278 
	C296.946747,180.119278 296.781708,180.263733 296.518829,180.616272 
	C295.063110,183.630966 293.870270,186.293121 292.570679,189.193481 
	C298.235229,190.646317 302.352936,189.783005 305.492676,185.067230 
	C307.371033,182.246063 309.674896,179.295410 314.070679,181.645279 
	C312.975250,184.443680 311.908142,187.169754 310.841034,189.895844 
	C310.841034,189.895844 310.959900,189.991638 310.643433,190.130676 
	C309.863983,191.540985 309.401001,192.812256 308.938019,194.083527 
	C308.938019,194.083527 308.800140,194.254791 308.486877,194.563202 
	C306.589905,195.135025 305.009094,195.606033 303.421936,195.628586 
	C291.944427,195.791656 280.465637,195.864059 268.987274,195.965179 
	C268.987274,195.965179 268.689636,195.782394 268.513885,195.496277 
	C268.578918,194.148361 268.819733,193.086563 269.060547,192.024750 
	C269.060547,192.024750 268.998138,192.009888 269.308868,191.786316 
	C270.489258,190.927551 271.438538,189.662918 272.215363,189.761230 
	C276.639862,190.321091 277.489655,187.361786 278.221558,184.148499 
	C278.221558,184.148499 278.104919,184.041733 278.400940,183.937134 
	C278.829407,183.228058 278.961884,182.623596 279.094360,182.019135 
	C279.094360,182.019135 279.016937,182.010666 279.336365,181.858444 
	C281.084991,178.597443 282.514130,175.488678 284.207245,171.805786 
	C282.249908,171.805786 280.832733,171.805786 279.415558,171.805786 
z"/>
<path fill="#171208" opacity="1.000000" stroke="none" 
	d="
M99.842308,176.351883 
	C99.975197,176.649734 100.197968,176.845047 100.929955,177.228348 
	C102.510971,178.089081 103.672661,178.659286 104.834351,179.229492 
	C104.834358,179.229477 104.956810,179.089386 105.014465,179.421753 
	C103.520592,181.463974 101.969055,183.173843 100.417526,184.883713 
	C100.417519,184.883713 100.259476,184.827606 99.850372,184.916031 
	C98.208031,185.953857 96.974792,186.903259 95.741554,187.852661 
	C93.035255,189.389740 90.328964,190.926804 87.004700,192.589279 
	C85.948799,192.832916 85.510864,192.951157 84.861305,192.957428 
	C84.368889,192.672516 84.158737,192.436646 84.229889,191.860672 
	C85.929924,187.501648 88.527130,183.431427 88.570168,179.334381 
	C88.606873,175.840958 85.706551,172.316681 84.477829,168.857849 
	C86.481613,169.406998 88.113060,169.904327 89.744507,170.401657 
	C89.744507,170.401657 89.886215,170.101135 89.937943,170.484253 
	C90.506699,171.079468 91.023727,171.291565 91.540756,171.503677 
	C91.540756,171.503677 91.615341,171.458618 91.762825,171.717682 
	C92.233505,172.060547 92.556709,172.144333 92.879906,172.228134 
	C92.879906,172.228134 92.917564,172.108719 93.037537,172.437927 
	C95.385773,173.962067 97.614037,175.156982 99.842308,176.351883 
z"/>
<path fill="#CDBA38" opacity="1.000000" stroke="none" 
	d="
M213.901855,173.650070 
	C214.666763,172.998184 215.506760,171.716354 216.184341,171.797119 
	C220.433289,172.303574 220.866379,169.250046 222.064041,165.834778 
	C216.600739,165.834778 211.531525,165.443649 206.593857,166.077408 
	C205.146591,166.263153 204.073013,169.360306 202.708160,171.489288 
	C201.804535,171.581955 201.020905,171.308411 200.237274,171.034866 
	C200.822830,169.690994 201.408386,168.347122 201.993942,167.003250 
	C200.485001,166.615814 198.982437,165.926010 197.465973,165.893906 
	C191.310486,165.763580 185.150513,165.865952 178.992630,165.821411 
	C175.025360,165.792725 173.745972,167.752457 174.616608,171.733246 
	C174.392456,172.084076 174.173096,172.141479 173.953735,172.198883 
	C172.066452,166.843979 173.741409,163.986984 179.077042,164.130569 
	C194.143494,164.536011 209.201813,165.318069 224.269608,165.559677 
	C229.611816,165.645340 234.964523,164.496979 240.326508,164.104004 
	C244.895752,163.769150 248.123062,165.276398 249.696594,170.213760 
	C250.687897,173.324295 251.951004,177.101517 256.760406,177.138245 
	C256.331268,178.695541 255.596481,180.382446 254.417297,183.089584 
	C251.327621,177.268814 248.771912,172.453995 245.835022,166.953644 
	C240.967789,166.186325 236.481766,166.104568 231.995728,166.022797 
	C231.247528,165.987335 230.499329,165.951874 229.020050,165.905701 
	C227.184952,167.869919 226.080933,169.844879 224.976929,171.819839 
	C221.544968,172.779297 218.113022,173.738754 214.324280,174.535843 
	C213.945602,174.132324 213.923721,173.891190 213.901855,173.650070 
z"/>
<path fill="#DECB37" opacity="1.000000" stroke="none" 
	d="
M232.782074,195.753571 
	C232.099289,193.385635 231.826569,191.081772 231.553833,188.777893 
	C230.907028,188.740509 230.260223,188.703110 229.613419,188.665710 
	C231.206345,185.224655 232.799271,181.783600 234.966934,177.100998 
	C237.844849,182.403229 240.644348,186.567612 242.445084,191.126480 
	C244.770432,197.013504 249.481674,195.234619 253.706665,195.650253 
	C257.690063,196.042114 258.071381,193.005264 259.264740,190.534073 
	C260.459625,188.059753 261.863861,185.686554 263.484039,183.112549 
	C265.082367,188.458237 256.618652,199.787796 250.207153,198.061539 
	C245.679977,196.842606 241.257614,196.912064 240.602722,190.820724 
	C240.444351,189.347717 239.157272,187.870880 238.085907,186.665375 
	C237.375916,185.866516 236.125793,185.547699 235.117493,185.013977 
	C235.035019,186.038696 234.775146,187.087830 234.911942,188.082382 
	C235.113266,189.545975 236.096161,191.076370 235.819336,192.381790 
	C235.549240,193.655502 234.115189,194.682404 232.782074,195.753571 
z"/>
<path fill="#ECD41E" opacity="1.000000" stroke="none" 
	d="
M386.867218,195.937454 
	C388.441498,194.297058 390.015778,192.656647 392.282318,190.294937 
	C389.509644,189.815247 388.111633,189.573380 386.598328,189.311554 
	C387.073975,184.634155 389.288208,182.682159 394.086548,183.144455 
	C398.339417,183.554214 402.773407,183.789062 406.922180,183.009186 
	C409.986053,182.433243 412.719788,180.101028 415.820557,178.276978 
	C417.911438,181.658966 415.420990,183.515427 412.726959,184.347977 
	C409.472717,185.353714 405.945648,185.616791 402.512421,185.863297 
	C399.174011,186.102982 395.804993,185.915329 392.364685,185.915329 
	C392.015930,190.391068 395.831848,195.615570 388.267120,196.716797 
	C387.456543,196.330597 387.161865,196.134033 386.867218,195.937454 
z"/>
<path fill="#F2DA1B" opacity="1.000000" stroke="none" 
	d="
M374.282349,180.432281 
	C372.964783,182.771469 371.647247,185.110657 369.715637,187.743896 
	C367.238831,188.037979 365.376099,188.037979 363.399261,188.037979 
	C363.960815,185.020248 364.390411,182.711655 364.820007,180.403046 
	C364.820007,180.403046 364.757782,180.202942 365.196655,180.065536 
	C366.743317,176.967026 367.851044,174.005936 368.958801,171.044830 
	C369.804291,169.716629 370.649750,168.388443 371.780884,167.452744 
	C371.785370,172.220444 376.540405,175.709076 374.282349,180.432281 
z"/>
<path fill="#CDBA38" opacity="1.000000" stroke="none" 
	d="
M311.158936,189.898163 
	C311.908142,187.169754 312.975250,184.443680 314.070679,181.645279 
	C309.674896,179.295410 307.371033,182.246063 305.492676,185.067230 
	C302.352936,189.783005 298.235229,190.646317 292.570679,189.193481 
	C293.870270,186.293121 295.063110,183.630966 296.547424,180.722122 
	C296.457825,182.829834 296.076721,185.184219 295.644287,187.855667 
	C301.621918,188.354767 303.218292,182.233078 308.151428,180.189270 
	C310.577545,179.967102 312.286133,179.925049 313.994690,179.882996 
	C314.160706,179.913620 314.326721,179.944260 314.786133,180.334183 
	C315.694183,181.121246 316.308899,181.549026 316.923584,181.976791 
	C316.941193,182.140305 316.999634,182.311493 316.970490,182.466217 
	C314.876862,193.593857 316.259735,195.275909 328.365479,196.408844 
	C328.027924,196.850845 327.492371,196.958679 326.956787,197.066528 
	C316.941986,196.696365 316.941986,196.696365 313.593658,188.765778 
	C312.889435,189.146622 312.183105,189.523544 311.158936,189.898163 
z"/>
<path fill="#E9D325" opacity="1.000000" stroke="none" 
	d="
M74.047417,201.054001 
	C71.093979,206.302979 64.721313,205.951462 60.511963,209.187073 
	C60.196796,209.429337 57.956448,208.134277 58.003014,207.704773 
	C58.165035,206.210388 58.540611,204.329285 59.566437,203.425003 
	C61.611145,201.622559 64.141068,200.370544 66.400269,198.935791 
	C63.819675,196.699127 61.524250,194.709625 59.180462,192.292191 
	C59.132103,191.864258 59.390320,191.599854 59.695644,191.756546 
	C63.501026,193.795853 67.001076,195.678467 70.869682,197.759308 
	C68.483025,199.783875 66.270851,201.660416 64.058678,203.536957 
	C64.232262,203.871582 64.405853,204.206207 64.579445,204.540817 
	C67.299309,203.316727 70.019180,202.092621 73.065796,200.917328 
	C73.610840,200.995407 73.829132,201.024704 74.047417,201.054001 
z"/>
<path fill="#CDBA38" opacity="1.000000" stroke="none" 
	d="
M264.453766,180.924667 
	C265.081177,177.087524 264.685669,172.512955 270.474030,171.488815 
	C272.057281,171.208694 273.215210,168.524368 275.480438,165.877533 
	C269.434174,165.877533 265.063263,165.454651 260.846802,166.077362 
	C259.060699,166.341171 257.598999,168.801331 255.918411,170.664047 
	C253.889572,168.633286 254.685318,165.244812 257.991089,164.783096 
	C263.205078,164.054901 268.578979,164.050354 273.851471,164.344238 
	C276.398010,164.486160 277.161072,170.127625 274.479523,171.097870 
	C269.402740,172.934784 267.822235,177.450958 264.453766,180.924667 
z"/>
<path fill="#CDBA38" opacity="1.000000" stroke="none" 
	d="
M418.675110,166.152756 
	C414.262268,166.321518 409.810425,165.910278 405.354675,165.862183 
	C395.546112,165.756256 385.735565,165.833710 375.425659,165.594620 
	C374.925507,165.352921 374.887177,164.968613 374.887177,164.968628 
	C376.132721,164.667389 377.376770,164.111801 378.624054,164.104507 
	C390.361328,164.035767 402.099854,163.996857 413.835938,164.133118 
	C415.441376,164.151749 417.035187,165.177841 418.675110,166.152756 
z"/>
<path fill="#CDBA38" opacity="1.000000" stroke="none" 
	d="
M166.409241,167.109421 
	C163.936966,166.931732 161.566177,165.949783 159.179169,165.908707 
	C148.388672,165.722977 137.593613,165.803314 126.346100,165.631943 
	C127.342583,164.999863 128.788651,164.127823 130.244446,164.111282 
	C140.183456,163.998367 150.128891,163.911209 160.061447,164.194992 
	C162.231171,164.256989 164.357132,165.850311 166.409241,167.109421 
z"/>
<path fill="#EED735" opacity="1.000000" stroke="none" 
	d="
M112.076256,196.216064 
	C122.954140,195.805328 133.850525,195.958817 144.724136,195.531998 
	C148.539871,195.382217 152.299667,193.807404 156.452087,192.822479 
	C155.202179,194.114761 153.605179,196.611588 151.965042,196.640244 
	C138.676544,196.872452 125.379936,196.641602 112.076256,196.216064 
z"/>
<path fill="#CDBA38" opacity="1.000000" stroke="none" 
	d="
M297.289368,180.032166 
	C298.533752,176.261703 298.583252,171.224380 304.867065,171.206360 
	C305.908508,171.203384 306.941620,168.305847 308.445374,166.043777 
	C298.643829,166.043777 289.816803,166.043777 280.528198,166.102264 
	C283.335907,165.455856 286.588806,164.273010 289.878296,164.160614 
	C294.549225,164.000992 299.255798,164.535751 303.928772,164.970871 
	C305.578583,165.124481 307.174561,165.856979 308.795105,166.325195 
	C308.074738,168.293152 307.842407,170.710220 306.531525,172.134781 
	C303.874084,175.022629 300.632660,177.373062 297.289368,180.032166 
z"/>
<path fill="#E9D325" opacity="1.000000" stroke="none" 
	d="
M67.187065,160.766724 
	C62.301888,159.853699 57.208492,154.688019 58.141525,150.156998 
	C62.852547,153.265549 67.241203,156.161392 71.132034,159.336838 
	C69.220848,159.469574 67.807503,159.322708 66.394150,159.175842 
	C66.658455,159.706146 66.922760,160.236435 67.187065,160.766724 
z"/>
<path fill="#EED735" opacity="1.000000" stroke="none" 
	d="
M269.230011,196.270813 
	C280.465637,195.864059 291.944427,195.791656 303.421936,195.628586 
	C305.009094,195.606033 306.589905,195.135025 308.548279,194.654388 
	C307.850586,195.300308 306.819946,196.849365 305.699249,196.917526 
	C297.185059,197.435349 288.654541,197.835281 280.126343,197.899658 
	C276.578674,197.926437 273.024139,197.044937 269.230011,196.270813 
z"/>
<path fill="#DECB37" opacity="1.000000" stroke="none" 
	d="
M170.794052,188.018616 
	C170.965530,191.765701 172.339508,194.740952 176.344330,195.208237 
	C185.091812,196.228882 193.893478,197.052155 202.654785,193.083252 
	C201.264709,194.301422 199.557709,196.591873 197.725037,196.697250 
	C190.516632,197.111740 183.239624,197.227448 176.045258,196.689468 
	C170.914658,196.305801 168.536301,191.977524 170.794052,188.018616 
z"/>
<path fill="#E9D325" opacity="1.000000" stroke="none" 
	d="
M353.008667,164.750916 
	C349.960999,164.800674 346.913330,164.850433 343.112793,164.596313 
	C339.925446,164.563461 337.490967,164.834503 335.056488,165.105545 
	C331.422852,166.822922 327.789246,168.540298 323.835754,170.366882 
	C324.685608,163.997284 330.942932,164.242447 334.960693,163.378494 
	C341.000763,162.079666 347.557129,163.181961 353.771484,163.682419 
	C353.366333,164.249741 353.152893,164.466217 353.008667,164.750916 
z"/>
<path fill="#171208" opacity="1.000000" stroke="none" 
	d="
M67.171089,160.776764 
	C66.922760,160.236435 66.658455,159.706146 66.394150,159.175842 
	C67.807503,159.322708 69.220848,159.469574 70.989563,159.703613 
	C71.344917,159.790802 71.419830,159.815659 71.571671,160.043610 
	C72.163933,160.461700 72.604362,160.651840 73.044792,160.841980 
	C73.044792,160.841980 73.319397,161.101822 73.692505,161.369446 
	C74.825264,161.974136 75.584930,162.311218 76.344589,162.648300 
	C76.344589,162.648300 76.479393,162.650558 76.673889,162.945847 
	C77.874435,163.824249 78.880486,164.407364 79.913162,165.285126 
	C79.976448,165.972092 80.013107,166.364426 79.645393,166.865662 
	C76.257584,166.112442 73.274139,165.250290 70.460571,164.082794 
	C69.482124,162.782166 68.333794,161.786865 67.185471,160.791550 
	C67.185471,160.791550 67.155113,160.786804 67.171089,160.776764 
z"/>
<path fill="#E9D325" opacity="1.000000" stroke="none" 
	d="
M56.798836,189.175720 
	C52.306618,188.033539 53.614220,183.723801 53.530064,181.268311 
	C53.381203,176.925110 52.273293,171.417969 58.633183,169.076462 
	C59.120861,169.118088 59.383816,169.373535 59.236671,169.688232 
	C54.126331,175.845779 53.954575,182.167450 57.105820,188.917603 
	C57.003647,189.003830 56.798836,189.175720 56.798836,189.175720 
z"/>
<path fill="#594806" opacity="1.000000" stroke="none" 
	d="
M214.029861,195.262711 
	C219.880402,195.018478 225.561264,195.034042 231.612549,195.208710 
	C228.562485,197.600754 216.977432,197.699646 214.029861,195.262711 
z"/>
<path fill="#CDBA38" opacity="1.000000" stroke="none" 
	d="
M374.549500,180.194641 
	C376.540405,175.709076 371.785370,172.220444 372.067261,167.436920 
	C372.067993,167.028580 372.100250,166.602951 372.456818,166.360870 
	C373.294556,166.130157 373.775726,166.141510 374.256897,166.152863 
	C373.899261,167.710938 373.541626,169.269012 373.113464,171.134430 
	C374.869324,171.421967 376.420624,171.675995 378.514374,172.018860 
	C377.147949,174.952240 375.982269,177.454605 374.549500,180.194641 
z"/>
<path fill="#DECB37" opacity="1.000000" stroke="none" 
	d="
M174.171371,172.429688 
	C174.173096,172.141479 174.392456,172.084076 174.938080,171.930847 
	C176.060440,171.835022 176.856537,171.835022 178.396988,171.835022 
	C176.035797,177.184128 173.865402,182.101013 171.433319,187.292084 
	C172.254547,184.088058 173.459122,180.640976 174.360046,177.116257 
	C174.717010,175.719772 174.399460,174.150879 174.171371,172.429688 
z"/>
<path fill="#E9D325" opacity="1.000000" stroke="none" 
	d="
M67.086288,161.141495 
	C68.333794,161.786865 69.482124,162.782166 70.209229,164.289215 
	C69.579529,164.856613 69.371063,164.912277 68.784149,164.992371 
	C65.398399,166.469040 62.391109,167.921295 59.383820,169.373535 
	C59.383816,169.373535 59.120861,169.118088 58.987648,168.989731 
	C61.565323,166.404724 64.276215,163.948090 67.086288,161.141495 
z"/>
<path fill="#DECB37" opacity="1.000000" stroke="none" 
	d="
M368.769867,170.830948 
	C367.851044,174.005936 366.743317,176.967026 365.272156,179.992874 
	C365.626892,177.596848 366.802307,175.156097 366.911102,172.668671 
	C366.990845,170.845764 365.670563,168.961609 364.790863,166.793839 
	C367.873047,165.995346 368.810486,167.745392 368.769867,170.830948 
z"/>
<path fill="#CDBA38" opacity="1.000000" stroke="none" 
	d="
M122.887177,168.271973 
	C124.043701,169.573044 124.864487,171.050781 125.685272,172.528503 
	C126.228256,172.448898 126.771233,172.369293 127.314217,172.289688 
	C126.169624,174.798096 125.025040,177.306503 123.599426,180.022629 
	C123.062744,176.303116 122.807091,172.375870 122.887177,168.271973 
z"/>
<path fill="#EED735" opacity="1.000000" stroke="none" 
	d="
M279.179260,171.964966 
	C280.832733,171.805786 282.249908,171.805786 284.207245,171.805786 
	C282.514130,175.488678 281.084991,178.597443 279.359375,181.889862 
	C279.478973,179.952515 280.124359,177.841782 280.220062,175.706421 
	C280.272644,174.533768 279.398987,173.319595 279.179260,171.964966 
z"/>
<path fill="#DECB37" opacity="1.000000" stroke="none" 
	d="
M80.049759,166.756744 
	C80.013107,166.364426 79.976448,165.972092 79.940109,164.961182 
	C79.964996,163.907349 79.989571,163.472122 80.014145,163.036896 
	C83.212852,165.256882 86.411575,167.476868 89.677399,170.049255 
	C88.113060,169.904327 86.481613,169.406998 84.251320,168.622131 
	C82.451569,167.808640 81.250664,167.282700 80.049759,166.756744 
z"/>
<path fill="#EED735" opacity="1.000000" stroke="none" 
	d="
M277.845825,184.137634 
	C277.489655,187.361786 276.639862,190.321091 272.215363,189.761230 
	C271.438538,189.662918 270.489258,190.927551 269.327271,191.812592 
	C269.718689,190.761581 270.109650,189.114151 271.149902,188.235199 
	C273.054230,186.626175 275.342102,185.471115 277.845825,184.137634 
z"/>
<path fill="#CDBA38" opacity="1.000000" stroke="none" 
	d="
M164.763229,180.890198 
	C165.395248,176.741684 166.027283,172.593170 166.559753,168.062469 
	C167.259979,169.232269 168.841141,170.865402 168.690262,172.318695 
	C168.411072,175.007599 167.117950,177.591202 165.791901,180.564880 
	C165.145508,180.904114 164.954376,180.897156 164.763229,180.890198 
z"/>
<path fill="#2D2512" opacity="1.000000" stroke="none" 
	d="
M225.148773,172.133606 
	C226.080933,169.844879 227.184952,167.869919 228.649872,165.971695 
	C228.912064,168.349152 228.813324,170.649902 228.400116,172.970123 
	C227.163956,172.808853 226.242310,172.628098 225.148773,172.133606 
z"/>
<path fill="#EED735" opacity="1.000000" stroke="none" 
	d="
M386.417480,195.835205 
	C387.161865,196.134033 387.456543,196.330597 387.884583,196.759430 
	C387.848053,197.002808 387.678131,197.013947 386.919312,197.024704 
	C385.885284,197.040497 385.440155,197.056671 384.995026,197.072845 
	C378.968475,197.055008 372.941956,197.037186 366.449707,196.734467 
	C365.983459,196.265366 365.982849,196.081161 365.982269,195.896942 
	C372.644104,195.842285 379.305908,195.787613 386.417480,195.835205 
z"/>
<path fill="#EED735" opacity="1.000000" stroke="none" 
	d="
M327.245789,197.328094 
	C327.492371,196.958679 328.027924,196.850845 328.764709,196.557251 
	C331.369293,196.422913 333.772614,196.474335 336.594116,196.906235 
	C337.048340,197.483704 337.084412,197.680695 337.120483,197.877670 
	C333.925262,197.781662 330.730042,197.685654 327.245789,197.328094 
z"/>
<path fill="#EED735" opacity="1.000000" stroke="none" 
	d="
M339.078735,196.675125 
	C340.779816,196.554703 342.480896,196.434265 344.850342,196.529205 
	C346.329529,196.807648 347.140289,196.870743 348.226624,196.953369 
	C348.685699,196.987488 348.869232,197.002075 349.052795,197.016663 
	C345.821655,197.485901 342.590485,197.955139 339.156921,197.951340 
	C339.042236,197.217743 339.083649,196.950027 339.078735,196.675125 
z"/>
<path fill="#DECB37" opacity="1.000000" stroke="none" 
	d="
M100.828049,184.909210 
	C101.969055,183.173843 103.520592,181.463974 104.935326,179.470642 
	C105.769539,179.519730 106.740555,179.852264 107.711571,180.184799 
	C107.355324,181.047485 107.237167,182.322754 106.596443,182.692490 
	C104.933121,183.652390 103.039986,184.214081 100.828049,184.909210 
z"/>
<path fill="#DECB37" opacity="1.000000" stroke="none" 
	d="
M353.427917,164.854340 
	C353.152893,164.466217 353.366333,164.249741 353.860657,164.004623 
	C357.734375,163.593811 361.425629,163.115616 364.598572,166.135468 
	C361.041260,165.984116 357.444214,165.470932 353.427917,164.854340 
z"/>
<path fill="#E9D325" opacity="1.000000" stroke="none" 
	d="
M322.137268,171.525299 
	C321.184692,174.245651 319.876099,176.853729 318.263245,179.592361 
	C319.233093,176.952957 320.507172,174.182999 322.137268,171.525299 
z"/>
<path fill="#DECB37" opacity="1.000000" stroke="none" 
	d="
M213.663437,173.919647 
	C213.923721,173.891190 213.945602,174.132324 214.014908,174.734314 
	C212.627548,178.038528 211.192780,180.981918 209.413116,183.995209 
	C210.520508,180.773163 211.972763,177.481186 213.663437,173.919647 
z"/>
<path fill="#CDBA38" opacity="1.000000" stroke="none" 
	d="
M417.420898,176.027893 
	C417.709167,173.348145 418.338409,170.558456 418.960510,167.353577 
	C423.167114,170.543396 419.518768,173.105194 417.420898,176.027893 
z"/>
<path fill="#DECB37" opacity="1.000000" stroke="none" 
	d="
M85.154297,194.163696 
	C82.702782,195.782654 80.251266,197.401611 77.310913,198.906097 
	C76.822083,198.791641 76.591782,198.519775 76.831116,198.283600 
	C79.646317,196.627655 82.222176,195.207901 84.887314,193.881836 
	C84.976585,193.975525 85.154297,194.163696 85.154297,194.163696 
z"/>
<path fill="#DECB37" opacity="1.000000" stroke="none" 
	d="
M349.414856,196.971313 
	C348.869232,197.002075 348.685699,196.987488 348.249451,196.734558 
	C347.996796,196.496231 348.021759,196.055664 348.021759,196.055664 
	C348.021759,196.055664 348.049500,195.996185 348.181396,196.024994 
	C348.313324,196.053787 348.716675,195.907425 348.716675,195.907425 
	C350.857178,194.931915 352.997711,193.956406 355.514343,192.910507 
	C353.852631,194.202072 351.814758,195.564026 349.414856,196.971313 
z"/>
<path fill="#ECD41E" opacity="1.000000" stroke="none" 
	d="
M362.420135,195.827042 
	C362.420135,195.827042 362.723633,195.681625 362.868530,196.061279 
	C363.021881,196.645782 363.030365,196.850632 363.038818,197.055466 
	C358.498199,199.572693 360.541016,194.018021 358.149017,192.809357 
	C357.587006,191.996536 357.433258,191.774689 357.279510,191.552856 
	C357.279510,191.552856 357.414215,191.427567 357.835022,191.588913 
	C359.643921,193.109192 361.032013,194.468109 362.420135,195.827042 
z"/>
<path fill="#DECB37" opacity="1.000000" stroke="none" 
	d="
M99.866158,175.978638 
	C97.614037,175.156982 95.385773,173.962067 92.986290,172.473907 
	C95.173386,173.322220 97.531700,174.463806 99.866158,175.978638 
z"/>
<path fill="#CDBA38" opacity="1.000000" stroke="none" 
	d="
M256.034485,172.186066 
	C257.128876,171.885468 258.247711,171.971848 259.771973,172.089539 
	C259.004120,173.736115 258.314056,175.215866 257.329041,176.879913 
	C256.709015,175.567154 256.383942,174.070114 256.034485,172.186066 
z"/>
<path fill="#EED735" opacity="1.000000" stroke="none" 
	d="
M164.541107,181.125626 
	C164.954376,180.897156 165.145508,180.904114 165.621918,180.887924 
	C165.175949,182.242706 164.444717,183.620667 163.322144,184.982437 
	C163.393539,183.764511 163.856277,182.562790 164.541107,181.125626 
z"/>
<path fill="#EED735" opacity="1.000000" stroke="none" 
	d="
M268.714417,192.002670 
	C268.819733,193.086563 268.578918,194.148361 268.344635,195.539246 
	C267.279419,194.995590 266.207703,194.122864 264.212128,192.497833 
	C266.620697,192.198074 267.494507,192.089325 268.714417,192.002670 
z"/>
<path fill="#DECB37" opacity="1.000000" stroke="none" 
	d="
M203.389557,193.046722 
	C204.109604,191.736847 205.211823,190.445999 206.602768,189.018402 
	C205.851578,190.276352 204.811661,191.671051 203.389557,193.046722 
z"/>
<path fill="#DECB37" opacity="1.000000" stroke="none" 
	d="
M96.123169,187.888626 
	C96.974792,186.903259 98.208031,185.953857 99.792534,184.976746 
	C98.930794,185.940872 97.717789,186.932724 96.123169,187.888626 
z"/>
<path fill="#CDBA38" opacity="1.000000" stroke="none" 
	d="
M122.920570,180.258545 
	C122.738617,181.742111 122.165840,183.214783 121.323776,184.896790 
	C121.546242,183.486618 122.037994,181.867142 122.920570,180.258545 
z"/>
<path fill="#EED735" opacity="1.000000" stroke="none" 
	d="
M160.135574,189.824753 
	C160.650696,188.355911 161.520950,186.817276 162.675079,185.107025 
	C162.136215,186.541946 161.313461,188.148453 160.135574,189.824753 
z"/>
<path fill="#E9D325" opacity="1.000000" stroke="none" 
	d="
M313.786255,179.650787 
	C312.286133,179.925049 310.577545,179.967102 308.441772,180.018707 
	C309.868988,179.825027 311.723389,179.621811 313.786255,179.650787 
z"/>
<path fill="#DECB37" opacity="1.000000" stroke="none" 
	d="
M104.844650,178.849030 
	C103.672661,178.659286 102.510971,178.089081 101.156509,177.253967 
	C102.260818,177.482208 103.557884,177.975388 104.844650,178.849030 
z"/>
<path fill="#E9D325" opacity="1.000000" stroke="none" 
	d="
M317.019287,181.690491 
	C316.308899,181.549026 315.694183,181.121246 315.033264,180.389526 
	C315.593872,179.955353 316.200714,179.825134 316.949738,179.946411 
	C317.099609,180.599991 317.107269,181.002090 317.019287,181.690491 
z"/>
<path fill="#E9D325" opacity="1.000000" stroke="none" 
	d="
M79.673782,162.876617 
	C79.989571,163.472122 79.964996,163.907349 79.913475,164.666534 
	C78.880486,164.407364 77.874435,163.824249 76.713394,163.000458 
	C77.483414,162.745300 78.408424,162.730820 79.673782,162.876617 
z"/>
<path fill="#CDBA38" opacity="1.000000" stroke="none" 
	d="
M309.257263,193.912262 
	C309.401001,192.812256 309.863983,191.540985 310.599060,190.068604 
	C310.439545,191.158661 310.008026,192.449829 309.257263,193.912262 
z"/>
<path fill="#E9D325" opacity="1.000000" stroke="none" 
	d="
M59.003014,191.996475 
	C58.222202,191.363770 57.570477,190.598831 56.858791,189.504822 
	C56.798836,189.175720 57.003647,189.003830 57.347107,189.092819 
	C58.257153,189.987823 58.823738,190.793839 59.390320,191.599854 
	C59.390320,191.599854 59.132103,191.864258 59.003014,191.996475 
z"/>
<path fill="#DECB37" opacity="1.000000" stroke="none" 
	d="
M207.213531,188.817230 
	C207.352905,187.624146 207.852280,186.307404 208.635132,184.761383 
	C208.470230,185.919235 208.021866,187.306396 207.213531,188.817230 
z"/>
<path fill="#CDBA38" opacity="1.000000" stroke="none" 
	d="
M338.829468,196.533020 
	C339.083649,196.950027 339.042236,197.217743 338.918488,197.677338 
	C338.490112,197.894485 338.097809,197.912582 337.412964,197.904175 
	C337.084412,197.680695 337.048340,197.483704 336.980682,196.987976 
	C337.492798,196.589783 338.036499,196.490341 338.829468,196.533020 
z"/>
<path fill="#F2DA1B" opacity="1.000000" stroke="none" 
	d="
M374.462311,166.085083 
	C373.775726,166.141510 373.294556,166.130157 372.454559,166.147461 
	C372.805511,165.779861 373.515289,165.383591 374.556091,164.977966 
	C374.887177,164.968613 374.925507,165.352921 374.959534,165.542847 
	C374.993561,165.732773 374.667725,166.017288 374.462311,166.085083 
z"/>
<path fill="#EED735" opacity="1.000000" stroke="none" 
	d="
M158.157516,191.878510 
	C158.287018,191.230286 158.774246,190.602585 159.554703,189.887299 
	C159.403702,190.499496 158.959488,191.199265 158.157516,191.878510 
z"/>
<path fill="#CDBA38" opacity="1.000000" stroke="none" 
	d="
M124.006668,166.102417 
	C124.016716,166.851303 123.862404,167.384872 123.454330,168.045441 
	C123.414482,167.410675 123.628403,166.648880 124.006668,166.102417 
z"/>
<path fill="#DECB37" opacity="1.000000" stroke="none" 
	d="
M363.405792,197.048355 
	C363.030365,196.850632 363.021881,196.645782 363.020569,196.133331 
	C363.771088,195.784042 364.514496,195.742310 365.620056,195.798767 
	C365.982849,196.081161 365.983459,196.265366 365.979980,196.725891 
	C365.241547,197.015228 364.507141,197.028244 363.405792,197.048355 
z"/>
<path fill="#E9D325" opacity="1.000000" stroke="none" 
	d="
M76.409813,162.267578 
	C75.584930,162.311218 74.825264,161.974136 73.881424,161.375687 
	C74.623169,161.371826 75.549103,161.629333 76.409813,162.267578 
z"/>
<path fill="#DECB37" opacity="1.000000" stroke="none" 
	d="
M91.548477,171.152206 
	C91.023727,171.291565 90.506699,171.079468 89.845505,170.622284 
	C90.319626,170.518387 90.937912,170.659561 91.548477,171.152206 
z"/>
<path fill="#EED735" opacity="1.000000" stroke="none" 
	d="
M278.803162,182.172272 
	C278.961884,182.623596 278.829407,183.228058 278.434265,184.008820 
	C278.285034,183.565231 278.398499,182.945328 278.803162,182.172272 
z"/>
<path fill="#DECB37" opacity="1.000000" stroke="none" 
	d="
M85.072937,193.069397 
	C85.510864,192.951157 85.948799,192.832916 86.722969,192.779144 
	C86.618370,193.229034 86.177521,193.614456 85.445480,194.081787 
	C85.154297,194.163696 84.976585,193.975525 84.959450,193.703461 
	C84.942314,193.431396 85.072937,193.069397 85.072937,193.069397 
z"/>
<path fill="#DECB37" opacity="1.000000" stroke="none" 
	d="
M357.029846,191.621674 
	C357.433258,191.774689 357.587006,191.996536 357.873352,192.600800 
	C357.524445,192.989090 357.042999,192.994995 356.206024,192.934174 
	C356.160370,192.475143 356.470276,192.082825 357.029846,191.621674 
z"/>
<path fill="#594806" opacity="1.000000" stroke="none" 
	d="
M216.952759,190.031281 
	C217.046844,190.598999 216.904617,190.861725 216.334686,191.023376 
	C216.367203,190.626755 216.637024,190.228104 216.952759,190.031281 
z"/>
<path fill="#ECD41E" opacity="1.000000" stroke="none" 
	d="
M385.149231,197.282486 
	C385.440155,197.056671 385.885284,197.040497 386.664185,197.037552 
	C386.433105,197.197891 385.868256,197.345016 385.149231,197.282486 
z"/>
<path fill="#DECB37" opacity="1.000000" stroke="none" 
	d="
M76.936707,198.928040 
	C76.604996,199.397537 76.158653,199.730652 75.317184,199.983658 
	C74.922066,199.903534 74.698059,199.635788 74.882843,199.425262 
	C75.575684,198.983078 76.083733,198.751419 76.591782,198.519775 
	C76.591782,198.519775 76.822083,198.791641 76.936707,198.928040 
z"/>
<path fill="#DECB37" opacity="1.000000" stroke="none" 
	d="
M74.266472,200.955750 
	C73.829132,201.024704 73.610840,200.995407 73.233475,200.669159 
	C73.615616,200.126740 74.156837,199.881271 74.698059,199.635803 
	C74.698059,199.635788 74.922066,199.903534 75.035629,200.038727 
	C74.982780,200.455002 74.761559,200.682861 74.266472,200.955750 
z"/>
<path fill="#E9D325" opacity="1.000000" stroke="none" 
	d="
M72.990280,160.529114 
	C72.604362,160.651840 72.163933,160.461700 71.609955,160.053131 
	C71.976196,159.961868 72.455986,160.089050 72.990280,160.529114 
z"/>
<path fill="#EED735" opacity="1.000000" stroke="none" 
	d="
M111.165398,195.022263 
	C111.350624,194.995483 111.600899,195.247650 111.991463,195.727966 
	C111.831314,195.737793 111.530884,195.519516 111.165398,195.022263 
z"/>
<path fill="#DECB37" opacity="1.000000" stroke="none" 
	d="
M92.793137,171.949677 
	C92.556709,172.144333 92.233505,172.060547 91.779648,171.757874 
	C92.001450,171.583069 92.353912,171.627136 92.793137,171.949677 
z"/>
<path fill="#E9D325" opacity="1.000000" stroke="none" 
	d="
M323.136353,170.479279 
	C323.442749,170.857773 323.324188,171.100906 322.867401,171.333344 
	C322.727692,171.063599 322.788452,170.737381 323.136353,170.479279 
z"/>
<path fill="#EED735" opacity="1.000000" stroke="none" 
	d="
M157.052094,192.804276 
	C156.954727,192.540482 157.144653,192.226791 157.614914,191.849472 
	C157.709946,192.108688 157.524673,192.431534 157.052094,192.804276 
z"/>
<path fill="#E9D325" opacity="1.000000" stroke="none" 
	d="
M139.133392,181.164185 
	C140.180634,178.849197 141.318863,176.962250 141.956924,174.919113 
	C143.325790,170.535919 146.822281,171.307373 149.660538,172.110031 
	C150.423645,172.325836 150.572189,175.972336 150.365875,177.978485 
	C150.186584,179.722122 149.208435,181.422592 148.408646,183.056625 
	C145.205505,189.600876 143.791351,190.296249 135.601181,189.162796 
	C136.777969,186.515259 137.887817,184.018341 139.133392,181.164185 
z"/>
<path fill="#F2DA1B" opacity="1.000000" stroke="none" 
	d="
M333.917725,181.080750 
	C334.648773,179.531937 335.205688,178.324127 335.811432,177.141312 
	C339.620483,169.703644 342.129059,168.998657 350.206085,173.356613 
	C348.943298,177.067062 347.862213,180.935989 346.318420,184.610565 
	C344.218933,189.607788 339.490387,191.676270 334.446716,189.749771 
	C333.362640,189.335709 332.308411,187.390610 332.254364,186.108047 
	C332.189697,184.573776 333.213684,182.993607 333.917725,181.080750 
z"/>
<path fill="#DECB37" opacity="1.000000" stroke="none" 
	d="
M362.263458,195.475494 
	C361.032013,194.468109 359.643921,193.109192 357.904419,191.528564 
	C359.788574,187.832932 362.024078,184.358963 364.539795,180.644012 
	C364.390411,182.711655 363.960815,185.020248 363.399261,188.037979 
	C365.376099,188.037979 367.238831,188.037979 369.524170,188.042023 
	C369.221497,188.627121 368.444702,189.760864 367.779297,189.698883 
	C363.669647,189.315979 362.372559,191.623306 362.263458,195.475494 
z"/>
<path fill="#DECB37" opacity="1.000000" stroke="none" 
	d="
M335.493103,165.156525 
	C337.490967,164.834503 339.925446,164.563461 342.659851,164.529541 
	C340.616425,164.913620 338.273102,165.060562 335.493103,165.156525 
z"/>
<path fill="#CDBA38" opacity="1.000000" stroke="none" 
	d="
M347.643219,196.011963 
	C348.021759,196.055664 347.996796,196.496231 347.973938,196.715027 
	C347.140289,196.870743 346.329529,196.807648 345.279297,196.552368 
	C345.781494,196.229523 346.523071,196.098892 347.643219,196.011963 
z"/>
<path fill="#CDBA38" opacity="1.000000" stroke="none" 
	d="
M348.612213,195.821289 
	C348.716675,195.907425 348.313324,196.053787 348.205261,196.047546 
	C348.159210,195.838547 348.296051,195.736496 348.612213,195.821289 
z"/>
<path fill="#DECB37" opacity="1.000000" stroke="none" 
	d="
M392.103760,176.294830 
	C393.579620,170.328003 397.689240,171.545303 401.542389,171.943985 
	C401.640442,177.896210 397.720978,179.778564 392.103760,176.294830 
z"/>
<path fill="#2D2512" opacity="1.000000" stroke="none" 
	d="
M232.274490,166.286697 
	C236.481766,166.104568 240.967789,166.186325 245.614838,166.659592 
	C241.368317,166.884262 236.960785,166.717438 232.274490,166.286697 
z"/>
<path fill="#F1D821" opacity="1.000000" stroke="none" 
	d="
M199.925537,171.278931 
	C201.020905,171.308411 201.804535,171.581955 202.901489,171.859741 
	C204.158234,171.863998 205.101685,171.863998 206.849472,171.863998 
	C204.570541,176.906708 202.732925,181.454498 200.485046,185.789551 
	C198.786270,189.065628 193.082397,190.678421 190.057053,188.722092 
	C189.138702,188.128265 188.502029,185.825562 188.893326,184.712158 
	C190.207245,180.973358 191.670456,177.168869 193.850830,173.907089 
	C194.811279,172.470291 197.635651,172.279480 199.925537,171.278931 
z"/>
<path fill="#F4ECEB" opacity="1.000000" stroke="none" 
	d="
M79.645393,166.865662 
	C81.250664,167.282700 82.451569,167.808640 83.878983,168.570312 
	C85.706551,172.316681 88.606873,175.840958 88.570168,179.334381 
	C88.527130,183.431427 85.929924,187.501648 83.899475,191.977173 
	C74.905724,197.556366 65.823875,195.987915 61.223209,188.548065 
	C56.525757,180.951706 59.152557,172.339996 67.690948,167.070267 
	C68.359383,166.657730 68.680214,165.681946 69.162598,164.967941 
	C69.371063,164.912277 69.579529,164.856613 70.039345,164.594543 
	C73.274139,165.250290 76.257584,166.112442 79.645393,166.865662 
M66.166336,180.092468 
	C64.742813,181.968658 63.319294,183.844849 61.514629,186.223389 
	C68.431953,186.223389 74.995338,186.633133 81.443115,185.950668 
	C83.170372,185.767853 85.237556,182.433075 85.817894,180.199509 
	C86.158066,178.890289 83.991425,175.554520 82.746086,175.443420 
	C76.940636,174.925552 71.063278,175.213867 64.537674,175.213867 
	C65.580620,177.316528 66.180832,178.526596 66.861717,179.717072 
	C66.861717,179.717072 66.771950,179.702393 66.166336,180.092468 
z"/>
<path fill="#2D2512" opacity="1.000000" stroke="none" 
	d="
M68.784149,164.992371 
	C68.680214,165.681946 68.359383,166.657730 67.690948,167.070267 
	C59.152557,172.339996 56.525757,180.951706 61.223209,188.548065 
	C65.823875,195.987915 74.905724,197.556366 83.688820,192.254349 
	C84.158737,192.436646 84.368889,192.672516 84.861305,192.957428 
	C85.072937,193.069397 84.942314,193.431396 84.870178,193.609772 
	C82.222176,195.207901 79.646317,196.627655 76.831116,198.283600 
	C76.083733,198.751419 75.575684,198.983078 74.882843,199.425262 
	C74.156837,199.881271 73.615616,200.126740 72.906723,200.620377 
	C70.019180,202.092621 67.299309,203.316727 64.579445,204.540817 
	C64.405853,204.206207 64.232262,203.871582 64.058678,203.536957 
	C66.270851,201.660416 68.483025,199.783875 70.869682,197.759308 
	C67.001076,195.678467 63.501026,193.795853 59.695648,191.756546 
	C58.823738,190.793839 58.257153,189.987823 57.449280,189.006592 
	C53.954575,182.167450 54.126331,175.845779 59.236671,169.688232 
	C62.391109,167.921295 65.398399,166.469040 68.784149,164.992371 
z"/>
<path fill="#B92432" opacity="1.000000" stroke="none" 
	d="
M66.781044,179.736664 
	C66.180832,178.526596 65.580620,177.316528 64.537674,175.213867 
	C71.063278,175.213867 76.940636,174.925552 82.746086,175.443420 
	C83.991425,175.554520 86.158066,178.890289 85.817894,180.199509 
	C85.237556,182.433075 83.170372,185.767853 81.443115,185.950668 
	C74.995338,186.633133 68.431953,186.223389 61.514629,186.223389 
	C63.319294,183.844849 64.742813,181.968658 66.514572,180.301636 
	C66.660004,181.835587 66.457191,183.160339 66.077377,185.641281 
	C68.795761,184.760315 70.610298,184.172272 72.781616,183.611786 
	C74.738449,182.663910 76.425064,181.794785 77.864853,180.622513 
	C78.149887,180.390442 77.486572,178.993576 77.260574,178.133850 
	C75.979141,178.817093 74.697708,179.500336 73.292496,179.782028 
	C72.457520,178.274353 71.746307,177.168213 71.035103,176.062088 
	C69.617081,177.286942 68.199066,178.511810 66.781044,179.736664 
z"/>
<path fill="#DC081B" opacity="1.000000" stroke="none" 
	d="
M72.424828,183.584229 
	C70.610298,184.172272 68.795761,184.760315 66.077377,185.641281 
	C66.457191,183.160339 66.660004,181.835587 66.817383,180.106598 
	C66.771950,179.702393 66.861717,179.717072 66.821381,179.726868 
	C68.199066,178.511810 69.617081,177.286942 71.035103,176.062088 
	C71.746307,177.168213 72.457520,178.274353 73.278107,179.763367 
	C73.387482,180.146271 73.355286,180.177994 72.999084,180.324646 
	C72.551338,181.195465 72.459808,181.919617 72.453796,182.788300 
	C72.582779,183.164337 72.544617,183.381454 72.424828,183.584229 
z"/>
<path fill="#F4ECEB" opacity="1.000000" stroke="none" 
	d="
M72.781616,183.611786 
	C72.544617,183.381454 72.582779,183.164337 72.698517,182.547119 
	C73.023575,181.500275 73.189430,180.839127 73.355286,180.177994 
	C73.355286,180.177994 73.387482,180.146271 73.401871,180.164917 
	C74.697708,179.500336 75.979141,178.817093 77.260574,178.133850 
	C77.486572,178.993576 78.149887,180.390442 77.864853,180.622513 
	C76.425064,181.794785 74.738449,182.663910 72.781616,183.611786 
z"/>
<path fill="#B92432" opacity="1.000000" stroke="none" 
	d="
M72.999084,180.324646 
	C73.189430,180.839127 73.023575,181.500275 72.612999,182.402588 
	C72.459808,181.919617 72.551338,181.195465 72.999084,180.324646 
z"/>
</svg>